<?xml version="1.0" encoding="utf-8"?>
<!-- Generator: Adobe Illustrator 23.1.0, SVG Export Plug-In . SVG Version: 6.00 Build 0)  -->
<svg version="1.1" id="Layer_1" xmlns="http://www.w3.org/2000/svg" xmlns:xlink="http://www.w3.org/1999/xlink" x="0px" y="0px"
	 viewBox="0 0 480 540" style="enable-background:new 0 0 480 540;" xml:space="preserve">
<style type="text/css">
	.st0{clip-path:url(#SVGID_2_);}
	.st1{fill-rule:evenodd;clip-rule:evenodd;fill:url(#SVGID_3_);}
	.st2{fill-rule:evenodd;clip-rule:evenodd;fill-opacity:0;}
	.st3{fill:#EEEEEE;}
	.st4{fill-rule:evenodd;clip-rule:evenodd;fill:#222529;}
	.st5{fill-rule:evenodd;clip-rule:evenodd;fill:#595959;}
	.st6{fill:none;stroke:#000000;stroke-linejoin:round;stroke-miterlimit:10;}
	.st7{fill:#FFFFFF;}
	.st8{fill-rule:evenodd;clip-rule:evenodd;fill:#00B39F;}
</style>
<g>
	<defs>
		<rect id="SVGID_1_" x="-240" width="960" height="540"/>
	</defs>
	<clipPath id="SVGID_2_">
		<use xlink:href="#SVGID_1_"  style="overflow:visible;"/>
	</clipPath>
	<g class="st0">
		
			<linearGradient id="SVGID_3_" gradientUnits="userSpaceOnUse" x1="-677.7194" y1="776.1942" x2="-677.7285" y2="799.4321" gradientTransform="matrix(23.2459 0 0 -23.2459 15994.8271 18583.4531)">
			<stop  offset="0" style="stop-color:#00B39F"/>
			<stop  offset="1" style="stop-color:#111111"/>
		</linearGradient>
		<path class="st1" d="M0,0h481v540H0V0z"/>
		<path class="st2" d="M27.8,25.5h424.3v155.6H27.8L27.8,25.5z"/>
		<path class="st3" d="M53.6,80.5h-4V49.8H38.9v-3.5h25.5v3.5H53.6V80.5z M78.8,54.4c2.2,0,4.1,0.5,5.6,1.5c1.6,1,2.8,2.3,3.6,4.1
			c0.8,1.7,1.2,3.8,1.2,6.1v2.4H71.5c0.1,3,0.8,5.3,2.2,6.9c1.5,1.6,3.5,2.4,6.1,2.4c1.6,0,3.1-0.1,4.3-0.4c1.2-0.3,2.5-0.7,3.9-1.3
			v3.4c-1.3,0.6-2.6,1-3.9,1.3C83,80.9,81.5,81,79.8,81c-2.5,0-4.6-0.5-6.5-1.5c-1.8-1-3.3-2.5-4.3-4.4c-1-2-1.5-4.3-1.5-7.2
			c0-2.8,0.5-5.2,1.4-7.2c0.9-2,2.2-3.6,3.9-4.7C74.5,54.9,76.5,54.4,78.8,54.4z M78.8,57.6c-2.1,0-3.7,0.7-5,2
			c-1.2,1.4-2,3.3-2.2,5.7h13.6c0-1.5-0.3-2.9-0.7-4c-0.5-1.2-1.2-2.1-2.1-2.7C81.4,57.9,80.2,57.6,78.8,57.6z M105.5,54.4
			c3.1,0,5.3,0.7,6.8,2.1c1.5,1.4,2.2,3.6,2.2,6.6v17.5h-2.8l-0.7-3.8h-0.2c-0.7,0.9-1.5,1.7-2.2,2.4c-0.8,0.6-1.7,1.1-2.7,1.4
			c-1,0.3-2.3,0.5-3.8,0.5c-1.6,0-2.9-0.3-4.2-0.8c-1.2-0.6-2.2-1.4-2.9-2.5c-0.7-1.1-1-2.5-1-4.2c0-2.6,1-4.5,3-5.9
			s5.1-2.1,9.3-2.2l4.4-0.2v-1.6c0-2.2-0.5-3.8-1.4-4.7c-0.9-0.9-2.3-1.3-4-1.3c-1.3,0-2.6,0.2-3.8,0.6c-1.2,0.4-2.4,0.8-3.5,1.4
			l-1.2-3c1.2-0.6,2.5-1.1,4-1.5C102.2,54.7,103.8,54.4,105.5,54.4z M110.7,67.9l-3.9,0.2c-3.2,0.1-5.4,0.7-6.8,1.6
			c-1.3,0.9-2,2.2-2,3.9c0,1.5,0.4,2.6,1.3,3.3c0.9,0.7,2.1,1,3.5,1c2.3,0,4.1-0.6,5.6-1.9c1.5-1.3,2.2-3.2,2.2-5.7V67.9z
			 M150.4,54.4c2.8,0,4.9,0.7,6.4,2.2c1.4,1.5,2.2,3.8,2.2,7.1v16.8h-3.8V63.9c0-2.1-0.4-3.6-1.3-4.7c-0.9-1-2.2-1.6-4-1.6
			c-2.5,0-4.3,0.7-5.4,2.2c-1.1,1.4-1.7,3.6-1.7,6.3v14.4h-3.9V63.9c0-1.4-0.2-2.6-0.6-3.5c-0.4-0.9-1-1.6-1.8-2.1
			c-0.8-0.5-1.8-0.7-3-0.7c-1.7,0-3.1,0.4-4.1,1.1c-1,0.7-1.8,1.7-2.2,3.1c-0.5,1.4-0.7,3.1-0.7,5.1v13.6h-3.9V54.9h3.1l0.6,3.6h0.2
			c0.5-0.9,1.2-1.6,1.9-2.2c0.8-0.6,1.7-1.1,2.6-1.4c1-0.3,2-0.5,3.1-0.5c2,0,3.6,0.4,4.9,1.1c1.3,0.7,2.3,1.8,2.9,3.3h0.2
			c0.8-1.5,2-2.6,3.5-3.3C147,54.8,148.6,54.4,150.4,54.4z M201.4,80.5l-4.2-10.9h-13.7l-4.2,10.9h-4l13.4-34.4h3.6l13.3,34.4H201.4
			z M196,66.1l-4-10.8c-0.1-0.3-0.2-0.7-0.5-1.4c-0.2-0.6-0.4-1.3-0.6-2c-0.2-0.7-0.4-1.2-0.5-1.7c-0.2,0.6-0.3,1.3-0.5,1.9
			c-0.2,0.6-0.4,1.2-0.5,1.8c-0.2,0.5-0.3,1-0.4,1.4l-4.1,10.8H196z M218.8,81c-3.2,0-5.8-1.1-7.7-3.3c-1.9-2.2-2.8-5.5-2.8-9.9
			c0-4.4,1-7.8,2.9-10c1.9-2.3,4.5-3.4,7.7-3.4c1.4,0,2.5,0.2,3.6,0.5c1,0.4,1.9,0.8,2.6,1.4c0.7,0.6,1.4,1.3,1.9,2h0.3
			c-0.1-0.5-0.1-1.2-0.2-2c-0.1-0.8-0.1-1.5-0.1-2.1V44.1h3.9v36.5h-3.1l-0.6-3.7h-0.2c-0.5,0.8-1.1,1.5-1.8,2.1
			c-0.7,0.6-1.6,1.1-2.7,1.5C221.4,80.8,220.2,81,218.8,81z M219.4,77.8c2.7,0,4.7-0.8,5.8-2.3c1.1-1.6,1.7-3.9,1.7-7v-0.7
			c0-3.3-0.5-5.8-1.6-7.5c-1.1-1.7-3-2.6-5.9-2.6c-2.4,0-4.2,0.9-5.4,2.8c-1.2,1.8-1.8,4.3-1.8,7.5c0,3.2,0.6,5.6,1.8,7.3
			C215.2,76.9,217,77.8,219.4,77.8z M266.9,54.4c2.8,0,4.9,0.7,6.4,2.2c1.4,1.5,2.2,3.8,2.2,7.1v16.8h-3.8V63.9
			c0-2.1-0.4-3.6-1.3-4.7c-0.9-1-2.2-1.6-4-1.6c-2.5,0-4.3,0.7-5.4,2.2c-1.1,1.4-1.7,3.6-1.7,6.3v14.4h-3.9V63.9
			c0-1.4-0.2-2.6-0.6-3.5c-0.4-0.9-1-1.6-1.8-2.1c-0.8-0.5-1.8-0.7-3-0.7c-1.7,0-3.1,0.4-4.1,1.1c-1,0.7-1.8,1.7-2.2,3.1
			c-0.5,1.4-0.7,3.1-0.7,5.1v13.6H239V54.9h3.1l0.6,3.6h0.2c0.5-0.9,1.2-1.6,1.9-2.2c0.8-0.6,1.7-1.1,2.6-1.4c1-0.3,2-0.5,3.1-0.5
			c2,0,3.6,0.4,4.9,1.1c1.3,0.7,2.3,1.8,2.9,3.3h0.2c0.8-1.5,2-2.6,3.5-3.3C263.5,54.8,265.1,54.4,266.9,54.4z M287.3,54.9v25.7
			h-3.9V54.9H287.3z M285.4,45.3c0.6,0,1.2,0.2,1.7,0.6c0.5,0.4,0.7,1,0.7,1.9c0,0.9-0.2,1.5-0.7,1.9c-0.5,0.4-1,0.6-1.7,0.6
			c-0.7,0-1.2-0.2-1.7-0.6c-0.4-0.4-0.7-1.1-0.7-1.9c0-0.9,0.2-1.5,0.7-1.9C284.2,45.5,284.7,45.3,285.4,45.3z M307.7,54.4
			c3,0,5.4,0.7,6.9,2.2c1.6,1.5,2.3,3.9,2.3,7.2v16.7h-3.8V64.1c0-2.1-0.5-3.7-1.5-4.8c-1-1.1-2.5-1.6-4.5-1.6c-2.8,0-4.8,0.8-6,2.4
			c-1.2,1.6-1.7,3.9-1.7,7v13.5h-3.9V54.9h3.1l0.6,3.7h0.2c0.5-0.9,1.2-1.7,2.1-2.3c0.8-0.6,1.8-1.1,2.8-1.4
			C305.4,54.6,306.5,54.4,307.7,54.4z M341.5,73.5c0,1.6-0.4,3-1.2,4.1c-0.8,1.1-2,2-3.5,2.5c-1.5,0.6-3.3,0.8-5.4,0.8
			c-1.8,0-3.4-0.1-4.7-0.4s-2.5-0.7-3.4-1.2v-3.6c1,0.5,2.3,1,3.7,1.4c1.5,0.4,2.9,0.6,4.5,0.6c2.2,0,3.8-0.4,4.8-1.1
			c1-0.7,1.5-1.7,1.5-2.9c0-0.7-0.2-1.3-0.6-1.9c-0.4-0.5-1.1-1.1-2-1.6c-0.9-0.5-2.2-1.1-3.9-1.7c-1.6-0.6-3-1.2-4.2-1.9
			c-1.2-0.6-2.1-1.4-2.8-2.3c-0.6-0.9-1-2.1-1-3.5c0-2.2,0.9-3.8,2.6-5c1.8-1.2,4.1-1.7,6.9-1.8c1.5,0,3,0.2,4.3,0.5
			c1.4,0.3,2.6,0.7,3.8,1.2l-1.3,3.1c-1.1-0.4-2.2-0.8-3.4-1.1c-1.2-0.3-2.4-0.5-3.7-0.5c-1.8,0-3.2,0.3-4.1,0.9
			c-1,0.6-1.4,1.4-1.4,2.4c0,0.8,0.2,1.4,0.7,2c0.4,0.5,1.2,1,2.1,1.5c1,0.4,2.3,1,3.9,1.6c1.6,0.6,3,1.2,4.2,1.8
			c1.2,0.6,2.1,1.4,2.7,2.3C341.2,71,341.5,72.1,341.5,73.5z M369.8,54.4c3.1,0,5.3,0.7,6.8,2.1c1.5,1.4,2.2,3.6,2.2,6.6v17.5H376
			l-0.7-3.8h-0.2c-0.7,0.9-1.5,1.7-2.2,2.4c-0.8,0.6-1.7,1.1-2.7,1.4c-1,0.3-2.3,0.5-3.8,0.5c-1.6,0-2.9-0.3-4.2-0.8
			c-1.2-0.6-2.2-1.4-2.9-2.5c-0.7-1.1-1-2.5-1-4.2c0-2.6,1-4.5,3-5.9c2-1.4,5.1-2.1,9.3-2.2l4.4-0.2v-1.6c0-2.2-0.5-3.8-1.4-4.7
			c-0.9-0.9-2.3-1.3-4-1.3c-1.3,0-2.6,0.2-3.8,0.6c-1.2,0.4-2.4,0.8-3.5,1.4l-1.2-3c1.2-0.6,2.5-1.1,4-1.5
			C366.6,54.7,368.2,54.4,369.8,54.4z M375,67.9l-3.9,0.2c-3.2,0.1-5.4,0.7-6.8,1.6c-1.3,0.9-2,2.2-2,3.9c0,1.5,0.4,2.6,1.3,3.3
			c0.9,0.7,2.1,1,3.5,1c2.3,0,4.1-0.6,5.6-1.9c1.5-1.3,2.2-3.2,2.2-5.7V67.9z M399,54.4c3,0,5.4,0.7,6.9,2.2
			c1.6,1.5,2.3,3.9,2.3,7.2v16.7h-3.8V64.1c0-2.1-0.5-3.7-1.5-4.8c-1-1.1-2.5-1.6-4.5-1.6c-2.8,0-4.8,0.8-6,2.4
			c-1.2,1.6-1.7,3.9-1.7,7v13.5h-3.9V54.9h3.1l0.6,3.7h0.2c0.5-0.9,1.2-1.7,2.1-2.3c0.8-0.6,1.8-1.1,2.8-1.4
			C396.8,54.6,397.9,54.4,399,54.4z M425.4,81c-3.2,0-5.8-1.1-7.7-3.3c-1.9-2.2-2.8-5.5-2.8-9.9c0-4.4,1-7.8,2.9-10
			c1.9-2.3,4.5-3.4,7.7-3.4c1.4,0,2.5,0.2,3.6,0.5c1,0.4,1.9,0.8,2.6,1.4c0.7,0.6,1.4,1.3,1.9,2h0.3c-0.1-0.5-0.1-1.2-0.2-2
			c-0.1-0.8-0.1-1.5-0.1-2.1V44.1h3.9v36.5h-3.1l-0.6-3.7h-0.2c-0.5,0.8-1.1,1.5-1.8,2.1c-0.7,0.6-1.6,1.1-2.7,1.5
			C428,80.8,426.8,81,425.4,81z M426,77.8c2.7,0,4.7-0.8,5.8-2.3c1.1-1.6,1.7-3.9,1.7-7v-0.7c0-3.3-0.5-5.8-1.6-7.5
			c-1.1-1.7-3-2.6-5.9-2.6c-2.4,0-4.2,0.9-5.4,2.8c-1.2,1.8-1.8,4.3-1.8,7.5c0,3.2,0.6,5.6,1.8,7.3C421.8,76.9,423.6,77.8,426,77.8z
			"/>
		<path class="st3" d="M76.1,138.5h-4v-30.8H61.4v-3.5h25.5v3.5H76.1V138.5z M101.3,112.4c2.2,0,4.1,0.5,5.6,1.5
			c1.6,1,2.8,2.3,3.6,4.1c0.8,1.7,1.2,3.8,1.2,6.1v2.4H94c0.1,3,0.8,5.3,2.2,6.9c1.5,1.6,3.5,2.4,6.1,2.4c1.6,0,3.1-0.1,4.3-0.4
			c1.2-0.3,2.5-0.7,3.9-1.3v3.4c-1.3,0.6-2.6,1-3.9,1.3c-1.3,0.3-2.8,0.4-4.5,0.4c-2.5,0-4.6-0.5-6.5-1.5c-1.8-1-3.3-2.5-4.3-4.4
			c-1-2-1.5-4.3-1.5-7.2c0-2.8,0.5-5.2,1.4-7.2c0.9-2,2.2-3.6,3.9-4.7C97,112.9,99,112.4,101.3,112.4z M101.3,115.6
			c-2.1,0-3.7,0.7-5,2c-1.2,1.4-2,3.3-2.2,5.7h13.6c0-1.5-0.3-2.9-0.7-4c-0.5-1.2-1.2-2.1-2.1-2.7
			C104,115.9,102.8,115.6,101.3,115.6z M128,112.4c3.1,0,5.3,0.7,6.8,2.1c1.5,1.4,2.2,3.6,2.2,6.6v17.5h-2.8l-0.7-3.8h-0.2
			c-0.7,0.9-1.5,1.7-2.2,2.4c-0.8,0.6-1.7,1.1-2.7,1.4c-1,0.3-2.3,0.5-3.8,0.5c-1.6,0-2.9-0.3-4.2-0.8c-1.2-0.6-2.2-1.4-2.9-2.5
			c-0.7-1.1-1-2.5-1-4.2c0-2.6,1-4.5,3-5.9c2-1.4,5.1-2.1,9.3-2.2l4.4-0.2v-1.6c0-2.2-0.5-3.8-1.4-4.7c-0.9-0.9-2.3-1.3-4-1.3
			c-1.3,0-2.6,0.2-3.8,0.6c-1.2,0.4-2.4,0.8-3.5,1.4l-1.2-3c1.2-0.6,2.5-1.1,4-1.5C124.8,112.7,126.3,112.4,128,112.4z M133.2,125.9
			l-3.9,0.2c-3.2,0.1-5.4,0.7-6.8,1.6c-1.3,0.9-2,2.2-2,3.9c0,1.5,0.4,2.6,1.3,3.3c0.9,0.7,2.1,1,3.5,1c2.3,0,4.1-0.6,5.6-1.9
			c1.5-1.3,2.2-3.2,2.2-5.7V125.9z M172.9,112.4c2.8,0,4.9,0.7,6.4,2.2c1.4,1.5,2.2,3.8,2.2,7.1v16.8h-3.8v-16.6
			c0-2.1-0.4-3.6-1.3-4.7c-0.9-1-2.2-1.6-4-1.6c-2.5,0-4.3,0.7-5.4,2.2c-1.1,1.4-1.7,3.6-1.7,6.3v14.4h-3.9v-16.6
			c0-1.4-0.2-2.6-0.6-3.5c-0.4-0.9-1-1.6-1.8-2.1c-0.8-0.5-1.8-0.7-3-0.7c-1.7,0-3.1,0.4-4.1,1.1c-1,0.7-1.8,1.7-2.2,3.1
			c-0.5,1.4-0.7,3.1-0.7,5.1v13.6H145v-25.7h3.1l0.6,3.6h0.2c0.5-0.9,1.2-1.6,1.9-2.2c0.8-0.6,1.7-1.1,2.6-1.4c1-0.3,2-0.5,3.1-0.5
			c2,0,3.6,0.4,4.9,1.1c1.3,0.7,2.3,1.8,2.9,3.3h0.2c0.8-1.5,2-2.6,3.5-3.3C169.5,112.8,171.1,112.4,172.9,112.4z M217.5,138.5
			L206,108.2h-0.2c0.1,0.6,0.1,1.4,0.2,2.3c0.1,0.9,0.1,1.9,0.1,3c0,1.1,0,2.2,0,3.3v21.7h-3.7v-34.3h5.9l10.8,28.5h0.2l11-28.5h5.9
			v34.3h-3.9v-21.9c0-1,0-2,0-3.1c0-1,0.1-2,0.1-2.9c0.1-0.9,0.1-1.7,0.2-2.4h-0.2l-11.6,30.3H217.5z M254.6,112.4
			c3.1,0,5.3,0.7,6.8,2.1c1.5,1.4,2.2,3.6,2.2,6.6v17.5h-2.8l-0.7-3.8h-0.2c-0.7,0.9-1.5,1.7-2.2,2.4c-0.8,0.6-1.7,1.1-2.7,1.4
			c-1,0.3-2.3,0.5-3.8,0.5c-1.6,0-2.9-0.3-4.2-0.8c-1.2-0.6-2.2-1.4-2.9-2.5c-0.7-1.1-1-2.5-1-4.2c0-2.6,1-4.5,3-5.9
			c2-1.4,5.1-2.1,9.3-2.2l4.4-0.2v-1.6c0-2.2-0.5-3.8-1.4-4.7c-0.9-0.9-2.3-1.3-4-1.3c-1.3,0-2.6,0.2-3.8,0.6
			c-1.2,0.4-2.4,0.8-3.5,1.4l-1.2-3c1.2-0.6,2.5-1.1,4-1.5C251.4,112.7,252.9,112.4,254.6,112.4z M259.8,125.9l-3.9,0.2
			c-3.2,0.1-5.4,0.7-6.8,1.6c-1.3,0.9-2,2.2-2,3.9c0,1.5,0.4,2.6,1.3,3.3c0.9,0.7,2.1,1,3.5,1c2.3,0,4.1-0.6,5.6-1.9
			c1.5-1.3,2.2-3.2,2.2-5.7V125.9z M283.8,112.4c3,0,5.4,0.7,6.9,2.2c1.6,1.5,2.3,3.9,2.3,7.2v16.7h-3.8v-16.5
			c0-2.1-0.5-3.7-1.5-4.8c-1-1.1-2.5-1.6-4.5-1.6c-2.8,0-4.8,0.8-6,2.4c-1.2,1.6-1.7,3.9-1.7,7v13.5h-3.9v-25.7h3.1l0.6,3.7h0.2
			c0.5-0.9,1.2-1.7,2.1-2.3c0.8-0.6,1.8-1.1,2.8-1.4C281.5,112.6,282.6,112.4,283.8,112.4z M310.7,112.4c3.1,0,5.3,0.7,6.8,2.1
			c1.5,1.4,2.2,3.6,2.2,6.6v17.5h-2.8l-0.7-3.8h-0.2c-0.7,0.9-1.5,1.7-2.2,2.4c-0.8,0.6-1.7,1.1-2.7,1.4c-1,0.3-2.3,0.5-3.8,0.5
			c-1.6,0-2.9-0.3-4.2-0.8c-1.2-0.6-2.2-1.4-2.9-2.5c-0.7-1.1-1-2.5-1-4.2c0-2.6,1-4.5,3-5.9c2-1.4,5.1-2.1,9.3-2.2l4.4-0.2v-1.6
			c0-2.2-0.5-3.8-1.4-4.7c-0.9-0.9-2.3-1.3-4-1.3c-1.3,0-2.6,0.2-3.8,0.6c-1.2,0.4-2.4,0.8-3.5,1.4l-1.2-3c1.2-0.6,2.5-1.1,4-1.5
			C307.4,112.7,309,112.4,310.7,112.4z M315.8,125.9l-3.9,0.2c-3.2,0.1-5.4,0.7-6.8,1.6c-1.3,0.9-2,2.2-2,3.9c0,1.5,0.4,2.6,1.3,3.3
			c0.9,0.7,2.1,1,3.5,1c2.3,0,4.1-0.6,5.6-1.9c1.5-1.3,2.2-3.2,2.2-5.7V125.9z M334.9,150.1c-3.4,0-6-0.6-7.8-1.9
			c-1.8-1.2-2.7-3-2.7-5.3c0-1.6,0.5-3,1.5-4.1c1-1.1,2.4-1.9,4.2-2.3c-0.7-0.3-1.2-0.8-1.7-1.4c-0.5-0.6-0.7-1.3-0.7-2.2
			c0-0.9,0.3-1.8,0.8-2.5c0.5-0.7,1.3-1.4,2.4-2c-1.3-0.6-2.4-1.5-3.3-2.8c-0.8-1.3-1.2-2.8-1.2-4.6c0-1.8,0.4-3.4,1.1-4.7
			c0.8-1.3,1.9-2.3,3.3-3c1.5-0.7,3.2-1,5.3-1c0.4,0,0.9,0,1.4,0.1c0.5,0,0.9,0.1,1.3,0.2c0.4,0.1,0.8,0.2,1.1,0.2h8.8v2.5l-4.7,0.6
			c0.5,0.6,0.9,1.3,1.2,2.2c0.3,0.9,0.5,1.8,0.5,2.9c0,2.6-0.9,4.6-2.6,6.1c-1.7,1.5-4.1,2.2-7.1,2.2c-0.7,0-1.5-0.1-2.2-0.2
			c-0.8,0.4-1.4,0.9-1.7,1.4c-0.4,0.5-0.6,1.1-0.6,1.8c0,0.5,0.2,0.9,0.5,1.2c0.3,0.3,0.7,0.5,1.3,0.6c0.6,0.1,1.3,0.2,2.1,0.2h4.5
			c2.8,0,4.9,0.6,6.4,1.8c1.5,1.2,2.2,2.9,2.2,5.1c0,2.8-1.2,5-3.5,6.5C342.6,149.3,339.2,150.1,334.9,150.1z M335,147
			c2.1,0,3.9-0.2,5.3-0.6c1.4-0.4,2.5-1,3.1-1.9c0.7-0.8,1-1.8,1-2.9c0-1-0.2-1.8-0.7-2.3c-0.5-0.5-1.2-0.9-2.1-1
			c-0.9-0.2-2-0.3-3.3-0.3h-4.4c-1.2,0-2.2,0.2-3,0.5c-0.9,0.4-1.5,0.9-2,1.6c-0.5,0.7-0.7,1.6-0.7,2.6c0,1.4,0.6,2.5,1.7,3.2
			C331.1,146.7,332.8,147,335,147z M336,126.5c1.9,0,3.2-0.5,4.2-1.4c0.9-0.9,1.4-2.3,1.4-4.1c0-1.9-0.5-3.4-1.4-4.3
			c-0.9-1-2.3-1.5-4.2-1.5c-1.8,0-3.2,0.5-4.1,1.5c-1,1-1.4,2.4-1.4,4.3c0,1.8,0.5,3.1,1.5,4C332.8,126,334.2,126.5,336,126.5z
			 M363.6,112.4c2.2,0,4.1,0.5,5.6,1.5c1.6,1,2.8,2.3,3.6,4.1c0.8,1.7,1.2,3.8,1.2,6.1v2.4h-17.7c0.1,3,0.8,5.3,2.2,6.9
			c1.5,1.6,3.5,2.4,6.1,2.4c1.6,0,3.1-0.1,4.3-0.4c1.2-0.3,2.5-0.7,3.9-1.3v3.4c-1.3,0.6-2.6,1-3.9,1.3c-1.3,0.3-2.8,0.4-4.5,0.4
			c-2.5,0-4.6-0.5-6.5-1.5c-1.8-1-3.3-2.5-4.3-4.4c-1-2-1.5-4.3-1.5-7.2c0-2.8,0.5-5.2,1.4-7.2c0.9-2,2.2-3.6,3.9-4.7
			C359.3,112.9,361.3,112.4,363.6,112.4z M363.6,115.6c-2.1,0-3.7,0.7-5,2c-1.2,1.4-2,3.3-2.2,5.7H370c0-1.5-0.3-2.9-0.7-4
			c-0.5-1.2-1.2-2.1-2.1-2.7C366.2,115.9,365,115.6,363.6,115.6z M392.3,112.4c0.5,0,1,0,1.6,0.1c0.6,0.1,1.1,0.1,1.5,0.2l-0.5,3.6
			c-0.4-0.1-0.9-0.2-1.4-0.2c-0.5-0.1-1-0.1-1.4-0.1c-1,0-2,0.2-2.9,0.6c-0.9,0.4-1.7,1-2.4,1.8c-0.7,0.8-1.2,1.7-1.6,2.8
			c-0.4,1.1-0.6,2.3-0.6,3.6v13.8h-3.9v-25.7h3.2l0.4,4.7h0.2c0.5-1,1.2-1.8,1.9-2.6c0.7-0.8,1.6-1.4,2.6-1.9
			C390,112.6,391.1,112.4,392.3,112.4z M416.8,131.5c0,1.6-0.4,3-1.2,4.1c-0.8,1.1-2,2-3.5,2.5c-1.5,0.6-3.3,0.8-5.4,0.8
			c-1.8,0-3.4-0.1-4.7-0.4s-2.5-0.7-3.4-1.2v-3.6c1,0.5,2.3,1,3.7,1.4c1.5,0.4,2.9,0.6,4.5,0.6c2.2,0,3.8-0.4,4.8-1.1
			c1-0.7,1.5-1.7,1.5-2.9c0-0.7-0.2-1.3-0.6-1.9c-0.4-0.5-1.1-1.1-2-1.6c-0.9-0.5-2.2-1.1-3.9-1.7c-1.6-0.6-3-1.2-4.2-1.9
			c-1.2-0.6-2.1-1.4-2.8-2.3c-0.6-0.9-1-2.1-1-3.5c0-2.2,0.9-3.8,2.6-5c1.8-1.2,4.1-1.7,6.9-1.8c1.5,0,3,0.2,4.3,0.5
			c1.4,0.3,2.6,0.7,3.8,1.2l-1.3,3.1c-1.1-0.4-2.2-0.8-3.4-1.1c-1.2-0.3-2.4-0.5-3.7-0.5c-1.8,0-3.2,0.3-4.1,0.9
			c-1,0.6-1.4,1.4-1.4,2.4c0,0.8,0.2,1.4,0.7,2c0.4,0.5,1.2,1,2.1,1.5c1,0.4,2.3,1,3.9,1.6c1.6,0.6,3,1.2,4.2,1.8
			c1.2,0.6,2.1,1.4,2.7,2.3C416.5,129,416.8,130.1,416.8,131.5z"/>
		<path class="st4" d="M118.8,173.4h223.7V215H118.8L118.8,173.4z"/>
		<path class="st3" d="M210.8,190.9c1,0,1.8,0.1,2.4,0.4c0.6,0.2,1.1,0.6,1.4,1.1c0.3,0.5,0.5,1.1,0.5,1.9c0,0.6-0.1,1-0.3,1.4
			c-0.2,0.4-0.5,0.7-0.8,1c-0.3,0.3-0.7,0.5-1.1,0.6l3.2,5.1H214l-2.7-4.6h-1.8v4.6h-1.9v-11.4H210.8z M210.6,192.5h-1.2v3.7h1.3
			c0.9,0,1.5-0.2,1.9-0.5c0.4-0.3,0.6-0.8,0.6-1.4c0-0.7-0.2-1.1-0.6-1.4C212.1,192.6,211.5,192.5,210.6,192.5z M227.9,196.6
			c0,0.9-0.1,1.7-0.3,2.4s-0.6,1.3-1,1.9c-0.4,0.5-1,0.9-1.7,1.2c-0.7,0.3-1.4,0.4-2.3,0.4c-0.9,0-1.7-0.1-2.4-0.4
			c-0.7-0.3-1.2-0.7-1.7-1.2c-0.4-0.5-0.8-1.1-1-1.9c-0.2-0.7-0.3-1.5-0.3-2.4c0-1.2,0.2-2.2,0.6-3.1c0.4-0.9,1-1.6,1.8-2
			c0.8-0.5,1.8-0.7,3-0.7c1.2,0,2.2,0.2,3,0.7c0.8,0.5,1.4,1.2,1.8,2C227.7,194.4,227.9,195.4,227.9,196.6z M219.2,196.6
			c0,0.9,0.1,1.7,0.4,2.3c0.2,0.6,0.6,1.1,1.1,1.5c0.5,0.3,1.1,0.5,1.9,0.5c0.8,0,1.4-0.2,1.9-0.5c0.5-0.4,0.9-0.8,1.1-1.5
			c0.2-0.6,0.4-1.4,0.4-2.3c0-1.3-0.3-2.4-0.8-3.1c-0.5-0.8-1.4-1.1-2.5-1.1c-0.8,0-1.4,0.2-1.9,0.5c-0.5,0.3-0.9,0.8-1.1,1.5
			C219.3,195,219.2,195.7,219.2,196.6z M230.3,202.4v-11.4h1.9v9.8h4.9v1.6H230.3z M245.5,202.4H239v-11.4h6.5v1.6h-4.6v3.1h4.3v1.6
			h-4.3v3.6h4.6V202.4z M254.5,199.3c0,0.7-0.2,1.3-0.5,1.8c-0.3,0.5-0.8,0.9-1.4,1.1c-0.6,0.3-1.3,0.4-2.2,0.4
			c-0.4,0-0.8,0-1.2-0.1c-0.4,0-0.7-0.1-1.1-0.2s-0.6-0.2-0.9-0.3v-1.8c0.5,0.2,1,0.4,1.6,0.5c0.6,0.2,1.2,0.2,1.7,0.2
			c0.5,0,0.9-0.1,1.2-0.2c0.3-0.1,0.6-0.3,0.7-0.5c0.2-0.2,0.2-0.5,0.2-0.8c0-0.3-0.1-0.6-0.3-0.8c-0.2-0.2-0.5-0.5-0.8-0.7
			c-0.4-0.2-0.8-0.4-1.4-0.6c-0.4-0.2-0.7-0.3-1.1-0.5c-0.3-0.2-0.6-0.4-0.9-0.7c-0.3-0.3-0.5-0.6-0.6-0.9c-0.2-0.4-0.2-0.8-0.2-1.3
			c0-0.6,0.2-1.2,0.5-1.7c0.3-0.5,0.7-0.8,1.3-1c0.6-0.2,1.2-0.4,2-0.4c0.6,0,1.2,0.1,1.7,0.2s1.1,0.3,1.6,0.5l-0.6,1.5
			c-0.5-0.2-0.9-0.4-1.4-0.5c-0.4-0.1-0.9-0.2-1.3-0.2c-0.4,0-0.7,0.1-1,0.2c-0.3,0.1-0.5,0.3-0.6,0.5c-0.1,0.2-0.2,0.5-0.2,0.8
			c0,0.3,0.1,0.6,0.2,0.8c0.2,0.2,0.4,0.4,0.8,0.6c0.4,0.2,0.8,0.4,1.3,0.6c0.6,0.3,1.2,0.5,1.6,0.8c0.4,0.3,0.8,0.6,1,1
			C254.4,198.1,254.5,198.6,254.5,199.3z"/>
		<path class="st5" d="M126.2,240.7h80.7V282h-80.7V240.7z"/>
		<path class="st6" d="M126.2,240.7h80.7V282h-80.7V240.7z"/>
		<path class="st7" d="M150.8,252.7c0.9,0,1.5,0.2,1.9,0.5c0.4,0.3,0.6,0.8,0.6,1.4c0,0.3,0,0.6-0.1,0.8c-0.1,0.2-0.2,0.5-0.5,0.7
			c-0.2,0.2-0.5,0.3-0.8,0.5c-0.3,0.1-0.7,0.2-1.2,0.2h-0.8v2.6H149v-6.7H150.8z M150.7,253.3h-0.9v2.7h0.7c0.4,0,0.8,0,1.1-0.1
			c0.3-0.1,0.5-0.2,0.6-0.4c0.1-0.2,0.2-0.5,0.2-0.8c0-0.4-0.1-0.8-0.4-1C151.7,253.4,151.3,253.3,150.7,253.3z M156.8,254.3
			c0.1,0,0.2,0,0.3,0c0.1,0,0.2,0,0.3,0l-0.1,0.7c-0.1,0-0.2,0-0.3,0c-0.1,0-0.2,0-0.3,0c-0.2,0-0.4,0-0.6,0.1
			c-0.2,0.1-0.3,0.2-0.5,0.3c-0.1,0.1-0.2,0.3-0.3,0.5c-0.1,0.2-0.1,0.4-0.1,0.7v2.7h-0.8v-5h0.6l0.1,0.9h0c0.1-0.2,0.2-0.3,0.4-0.5
			c0.1-0.2,0.3-0.3,0.5-0.4C156.3,254.3,156.5,254.3,156.8,254.3z M162.6,256.8c0,0.4-0.1,0.8-0.2,1.1s-0.3,0.6-0.5,0.8
			c-0.2,0.2-0.4,0.4-0.7,0.5c-0.3,0.1-0.6,0.2-1,0.2c-0.3,0-0.6-0.1-0.9-0.2c-0.3-0.1-0.5-0.3-0.7-0.5c-0.2-0.2-0.4-0.5-0.5-0.8
			s-0.2-0.7-0.2-1.1c0-0.6,0.1-1,0.3-1.4c0.2-0.4,0.5-0.7,0.8-0.9c0.3-0.2,0.8-0.3,1.2-0.3c0.4,0,0.8,0.1,1.2,0.3
			c0.3,0.2,0.6,0.5,0.8,0.9C162.5,255.8,162.6,256.3,162.6,256.8z M158.8,256.8c0,0.4,0.1,0.7,0.2,1c0.1,0.3,0.3,0.5,0.5,0.7
			c0.2,0.2,0.5,0.2,0.9,0.2c0.3,0,0.6-0.1,0.8-0.2c0.2-0.2,0.4-0.4,0.5-0.7c0.1-0.3,0.2-0.7,0.2-1c0-0.4-0.1-0.8-0.2-1
			c-0.1-0.3-0.3-0.5-0.5-0.7c-0.2-0.2-0.5-0.2-0.8-0.2c-0.5,0-0.9,0.2-1.2,0.5C158.9,255.7,158.8,256.2,158.8,256.8z M165,259.3
			l-1.9-5h0.8l1.1,3c0.1,0.2,0.2,0.4,0.2,0.7c0.1,0.2,0.1,0.4,0.2,0.6h0c0-0.2,0.1-0.4,0.2-0.6s0.2-0.5,0.2-0.7l1.1-3h0.8l-1.9,5
			H165z M169.3,254.4v5h-0.7v-5H169.3z M169,252.5c0.1,0,0.2,0,0.3,0.1c0.1,0.1,0.1,0.2,0.1,0.4c0,0.2,0,0.3-0.1,0.4
			c-0.1,0.1-0.2,0.1-0.3,0.1c-0.1,0-0.2,0-0.3-0.1c-0.1-0.1-0.1-0.2-0.1-0.4c0-0.2,0-0.3,0.1-0.4C168.7,252.5,168.8,252.5,169,252.5
			z M172.7,259.4c-0.6,0-1.1-0.2-1.5-0.6c-0.4-0.4-0.5-1.1-0.5-1.9c0-0.9,0.2-1.5,0.6-1.9c0.4-0.4,0.9-0.7,1.5-0.7
			c0.3,0,0.5,0,0.7,0.1c0.2,0.1,0.4,0.2,0.5,0.3c0.1,0.1,0.3,0.2,0.4,0.4h0c0-0.1,0-0.2,0-0.4c0-0.2,0-0.3,0-0.4v-2h0.7v7.1h-0.6
			l-0.1-0.7h0c-0.1,0.1-0.2,0.3-0.4,0.4c-0.1,0.1-0.3,0.2-0.5,0.3C173.2,259.4,173,259.4,172.7,259.4z M172.8,258.8
			c0.5,0,0.9-0.2,1.1-0.5c0.2-0.3,0.3-0.8,0.3-1.4v-0.1c0-0.6-0.1-1.1-0.3-1.5c-0.2-0.3-0.6-0.5-1.2-0.5c-0.5,0-0.8,0.2-1,0.5
			c-0.2,0.4-0.3,0.8-0.3,1.5c0,0.6,0.1,1.1,0.3,1.4C172,258.6,172.4,258.8,172.8,258.8z M178.6,254.3c0.4,0,0.8,0.1,1.1,0.3
			s0.5,0.5,0.7,0.8c0.2,0.3,0.2,0.7,0.2,1.2v0.5h-3.4c0,0.6,0.2,1,0.4,1.3s0.7,0.5,1.2,0.5c0.3,0,0.6,0,0.8-0.1
			c0.2-0.1,0.5-0.1,0.8-0.2v0.7c-0.2,0.1-0.5,0.2-0.7,0.2s-0.5,0.1-0.9,0.1c-0.5,0-0.9-0.1-1.3-0.3c-0.4-0.2-0.6-0.5-0.8-0.9
			c-0.2-0.4-0.3-0.8-0.3-1.4s0.1-1,0.3-1.4c0.2-0.4,0.4-0.7,0.8-0.9C177.7,254.4,178.1,254.3,178.6,254.3z M178.5,254.9
			c-0.4,0-0.7,0.1-1,0.4c-0.2,0.3-0.4,0.6-0.4,1.1h2.6c0-0.3,0-0.6-0.1-0.8c-0.1-0.2-0.2-0.4-0.4-0.5
			C179.1,254.9,178.8,254.9,178.5,254.9z M184.1,254.3c0.1,0,0.2,0,0.3,0c0.1,0,0.2,0,0.3,0l-0.1,0.7c-0.1,0-0.2,0-0.3,0
			c-0.1,0-0.2,0-0.3,0c-0.2,0-0.4,0-0.6,0.1c-0.2,0.1-0.3,0.2-0.5,0.3c-0.1,0.1-0.2,0.3-0.3,0.5c-0.1,0.2-0.1,0.4-0.1,0.7v2.7h-0.8
			v-5h0.6l0.1,0.9h0c0.1-0.2,0.2-0.3,0.4-0.5c0.1-0.2,0.3-0.3,0.5-0.4C183.7,254.3,183.9,254.3,184.1,254.3z"/>
		<path class="st7" d="M141.5,270.3l-0.8-2.1H138l-0.8,2.1h-0.8l2.6-6.7h0.7l2.6,6.7H141.5z M140.5,267.5l-0.8-2.1
			c0-0.1,0-0.1-0.1-0.3s-0.1-0.2-0.1-0.4c0-0.1-0.1-0.2-0.1-0.3c0,0.1-0.1,0.2-0.1,0.4c0,0.1-0.1,0.2-0.1,0.3c0,0.1-0.1,0.2-0.1,0.3
			l-0.8,2.1H140.5z M144.9,270.4c-0.6,0-1.1-0.2-1.5-0.6c-0.4-0.4-0.5-1.1-0.5-1.9s0.2-1.5,0.6-1.9c0.4-0.4,0.9-0.7,1.5-0.7
			c0.3,0,0.5,0,0.7,0.1c0.2,0.1,0.4,0.2,0.5,0.3c0.1,0.1,0.3,0.2,0.4,0.4h0c0-0.1,0-0.2,0-0.4c0-0.2,0-0.3,0-0.4v-2h0.7v7.1h-0.6
			l-0.1-0.7h0c-0.1,0.1-0.2,0.3-0.4,0.4c-0.1,0.1-0.3,0.2-0.5,0.3C145.4,270.4,145.2,270.4,144.9,270.4z M145,269.8
			c0.5,0,0.9-0.2,1.1-0.5c0.2-0.3,0.3-0.8,0.3-1.4v-0.1c0-0.6-0.1-1.1-0.3-1.5c-0.2-0.3-0.6-0.5-1.2-0.5c-0.5,0-0.8,0.2-1,0.5
			c-0.2,0.4-0.3,0.8-0.3,1.5c0,0.6,0.1,1.1,0.3,1.4C144.2,269.6,144.5,269.8,145,269.8z M154.2,265.3c0.6,0,1,0.1,1.2,0.4
			c0.3,0.3,0.4,0.7,0.4,1.4v3.3h-0.7v-3.2c0-0.4-0.1-0.7-0.3-0.9c-0.2-0.2-0.4-0.3-0.8-0.3c-0.5,0-0.8,0.1-1,0.4s-0.3,0.7-0.3,1.2
			v2.8H152v-3.2c0-0.3,0-0.5-0.1-0.7c-0.1-0.2-0.2-0.3-0.3-0.4s-0.3-0.1-0.6-0.1c-0.3,0-0.6,0.1-0.8,0.2c-0.2,0.1-0.3,0.3-0.4,0.6
			c-0.1,0.3-0.1,0.6-0.1,1v2.6h-0.7v-5h0.6l0.1,0.7h0c0.1-0.2,0.2-0.3,0.4-0.4c0.2-0.1,0.3-0.2,0.5-0.3c0.2-0.1,0.4-0.1,0.6-0.1
			c0.4,0,0.7,0.1,1,0.2c0.3,0.1,0.4,0.3,0.6,0.6h0c0.2-0.3,0.4-0.5,0.7-0.6C153.6,265.3,153.9,265.3,154.2,265.3z M158.2,265.4v5
			h-0.7v-5H158.2z M157.8,263.5c0.1,0,0.2,0,0.3,0.1c0.1,0.1,0.1,0.2,0.1,0.4c0,0.2,0,0.3-0.1,0.4c-0.1,0.1-0.2,0.1-0.3,0.1
			c-0.1,0-0.2,0-0.3-0.1s-0.1-0.2-0.1-0.4c0-0.2,0-0.3,0.1-0.4C157.6,263.5,157.7,263.5,157.8,263.5z M162.2,265.3
			c0.6,0,1,0.1,1.3,0.4c0.3,0.3,0.5,0.7,0.5,1.4v3.2h-0.7v-3.2c0-0.4-0.1-0.7-0.3-0.9c-0.2-0.2-0.5-0.3-0.9-0.3
			c-0.6,0-0.9,0.2-1.2,0.5c-0.2,0.3-0.3,0.8-0.3,1.4v2.6h-0.7v-5h0.6l0.1,0.7h0c0.1-0.2,0.2-0.3,0.4-0.4c0.2-0.1,0.3-0.2,0.5-0.3
			C161.7,265.3,161.9,265.3,162.2,265.3z M166.3,265.4v5h-0.7v-5H166.3z M165.9,263.5c0.1,0,0.2,0,0.3,0.1c0.1,0.1,0.1,0.2,0.1,0.4
			c0,0.2,0,0.3-0.1,0.4c-0.1,0.1-0.2,0.1-0.3,0.1c-0.1,0-0.2,0-0.3-0.1c-0.1-0.1-0.1-0.2-0.1-0.4c0-0.2,0-0.3,0.1-0.4
			C165.7,263.5,165.8,263.5,165.9,263.5z M171.1,269c0,0.3-0.1,0.6-0.2,0.8c-0.2,0.2-0.4,0.4-0.7,0.5c-0.3,0.1-0.6,0.2-1,0.2
			c-0.4,0-0.7,0-0.9-0.1c-0.2-0.1-0.5-0.1-0.7-0.2v-0.7c0.2,0.1,0.5,0.2,0.7,0.3c0.3,0.1,0.6,0.1,0.9,0.1c0.4,0,0.7-0.1,0.9-0.2
			c0.2-0.1,0.3-0.3,0.3-0.6c0-0.1,0-0.3-0.1-0.4c-0.1-0.1-0.2-0.2-0.4-0.3c-0.2-0.1-0.4-0.2-0.7-0.3c-0.3-0.1-0.6-0.2-0.8-0.4
			c-0.2-0.1-0.4-0.3-0.5-0.4c-0.1-0.2-0.2-0.4-0.2-0.7c0-0.4,0.2-0.8,0.5-1c0.3-0.2,0.8-0.3,1.4-0.3c0.3,0,0.6,0,0.8,0.1
			c0.3,0.1,0.5,0.1,0.7,0.2l-0.3,0.6c-0.2-0.1-0.4-0.2-0.7-0.2c-0.2-0.1-0.5-0.1-0.7-0.1c-0.3,0-0.6,0.1-0.8,0.2s-0.3,0.3-0.3,0.5
			c0,0.2,0,0.3,0.1,0.4c0.1,0.1,0.2,0.2,0.4,0.3c0.2,0.1,0.4,0.2,0.7,0.3c0.3,0.1,0.6,0.2,0.8,0.4s0.4,0.3,0.5,0.5
			C171,268.5,171.1,268.7,171.1,269z M173.9,269.8c0.1,0,0.2,0,0.4,0c0.1,0,0.2,0,0.3-0.1v0.6c-0.1,0-0.2,0.1-0.4,0.1
			c-0.2,0-0.3,0-0.5,0c-0.3,0-0.5,0-0.7-0.1c-0.2-0.1-0.4-0.2-0.5-0.5c-0.1-0.2-0.2-0.5-0.2-0.9v-3h-0.7v-0.4l0.7-0.3l0.3-1.1h0.5
			v1.2h1.5v0.6h-1.5v2.9c0,0.3,0.1,0.5,0.2,0.7C173.5,269.7,173.7,269.8,173.9,269.8z M177.9,265.3c0.1,0,0.2,0,0.3,0
			c0.1,0,0.2,0,0.3,0l-0.1,0.7c-0.1,0-0.2,0-0.3,0c-0.1,0-0.2,0-0.3,0c-0.2,0-0.4,0-0.6,0.1c-0.2,0.1-0.3,0.2-0.5,0.3
			c-0.1,0.1-0.2,0.3-0.3,0.5c-0.1,0.2-0.1,0.4-0.1,0.7v2.7h-0.8v-5h0.6l0.1,0.9h0c0.1-0.2,0.2-0.3,0.4-0.5s0.3-0.3,0.5-0.4
			C177.4,265.3,177.7,265.3,177.9,265.3z M181.3,265.3c0.6,0,1,0.1,1.3,0.4c0.3,0.3,0.4,0.7,0.4,1.3v3.4h-0.5l-0.2-0.7h0
			c-0.1,0.2-0.3,0.3-0.4,0.5c-0.1,0.1-0.3,0.2-0.5,0.3c-0.2,0.1-0.4,0.1-0.7,0.1c-0.3,0-0.6-0.1-0.8-0.2c-0.2-0.1-0.4-0.3-0.6-0.5
			c-0.1-0.2-0.2-0.5-0.2-0.8c0-0.5,0.2-0.9,0.6-1.1c0.4-0.3,1-0.4,1.8-0.4l0.9,0V267c0-0.4-0.1-0.7-0.3-0.9s-0.4-0.3-0.8-0.3
			c-0.3,0-0.5,0-0.7,0.1c-0.2,0.1-0.5,0.2-0.7,0.3l-0.2-0.6c0.2-0.1,0.5-0.2,0.8-0.3C180.7,265.3,181,265.3,181.3,265.3z
			 M182.3,267.9l-0.7,0c-0.6,0-1.1,0.1-1.3,0.3c-0.2,0.2-0.4,0.4-0.4,0.8c0,0.3,0.1,0.5,0.2,0.6c0.2,0.1,0.4,0.2,0.7,0.2
			c0.4,0,0.8-0.1,1.1-0.4c0.3-0.2,0.4-0.6,0.4-1.1V267.9z M186.2,269.8c0.1,0,0.2,0,0.4,0c0.1,0,0.2,0,0.3-0.1v0.6
			c-0.1,0-0.2,0.1-0.4,0.1c-0.2,0-0.3,0-0.5,0c-0.3,0-0.5,0-0.7-0.1c-0.2-0.1-0.4-0.2-0.5-0.5c-0.1-0.2-0.2-0.5-0.2-0.9v-3H184v-0.4
			l0.7-0.3l0.3-1.1h0.5v1.2h1.5v0.6h-1.5v2.9c0,0.3,0.1,0.5,0.2,0.7C185.8,269.7,186,269.8,186.2,269.8z M192.2,267.8
			c0,0.4-0.1,0.8-0.2,1.1c-0.1,0.3-0.3,0.6-0.5,0.8c-0.2,0.2-0.4,0.4-0.7,0.5c-0.3,0.1-0.6,0.2-1,0.2c-0.3,0-0.6-0.1-0.9-0.2
			c-0.3-0.1-0.5-0.3-0.7-0.5c-0.2-0.2-0.4-0.5-0.5-0.8c-0.1-0.3-0.2-0.7-0.2-1.1c0-0.6,0.1-1,0.3-1.4c0.2-0.4,0.5-0.7,0.8-0.9
			s0.8-0.3,1.2-0.3c0.4,0,0.8,0.1,1.2,0.3c0.3,0.2,0.6,0.5,0.8,0.9C192.1,266.8,192.2,267.3,192.2,267.8z M188.4,267.8
			c0,0.4,0.1,0.7,0.2,1c0.1,0.3,0.3,0.5,0.5,0.7c0.2,0.2,0.5,0.2,0.9,0.2c0.3,0,0.6-0.1,0.8-0.2c0.2-0.2,0.4-0.4,0.5-0.7
			c0.1-0.3,0.2-0.7,0.2-1c0-0.4-0.1-0.8-0.2-1c-0.1-0.3-0.3-0.5-0.5-0.7c-0.2-0.2-0.5-0.2-0.8-0.2c-0.5,0-0.9,0.2-1.2,0.5
			C188.6,266.7,188.4,267.2,188.4,267.8z M195.8,265.3c0.1,0,0.2,0,0.3,0c0.1,0,0.2,0,0.3,0l-0.1,0.7c-0.1,0-0.2,0-0.3,0
			c-0.1,0-0.2,0-0.3,0c-0.2,0-0.4,0-0.6,0.1c-0.2,0.1-0.3,0.2-0.5,0.3c-0.1,0.1-0.2,0.3-0.3,0.5c-0.1,0.2-0.1,0.4-0.1,0.7v2.7h-0.8
			v-5h0.6l0.1,0.9h0c0.1-0.2,0.2-0.3,0.4-0.5c0.1-0.2,0.3-0.3,0.5-0.4C195.4,265.3,195.6,265.3,195.8,265.3z"/>
		<path class="st5" d="M142.1,342.5h80.7v41.3h-80.7V342.5z"/>
		<path class="st6" d="M142.1,342.5h80.7v41.3h-80.7V342.5z"/>
		<path class="st7" d="M161.2,352.2c0,0.5-0.1,1-0.2,1.4c-0.1,0.4-0.3,0.8-0.6,1.1c-0.2,0.3-0.6,0.5-1,0.7c-0.4,0.2-0.8,0.2-1.3,0.2
			c-0.5,0-1-0.1-1.4-0.2c-0.4-0.2-0.7-0.4-1-0.7c-0.2-0.3-0.4-0.7-0.6-1.1c-0.1-0.4-0.2-0.9-0.2-1.4c0-0.7,0.1-1.3,0.3-1.8
			c0.2-0.5,0.6-0.9,1-1.2c0.5-0.3,1-0.4,1.7-0.4c0.7,0,1.2,0.1,1.7,0.4c0.4,0.3,0.8,0.7,1,1.2C161.1,350.9,161.2,351.5,161.2,352.2z
			 M155.9,352.2c0,0.6,0.1,1.1,0.2,1.5c0.2,0.4,0.4,0.7,0.7,1c0.3,0.2,0.8,0.3,1.3,0.3c0.5,0,0.9-0.1,1.2-0.3c0.3-0.2,0.6-0.5,0.7-1
			c0.2-0.4,0.2-0.9,0.2-1.5c0-0.9-0.2-1.5-0.5-2c-0.4-0.5-0.9-0.7-1.7-0.7c-0.5,0-0.9,0.1-1.3,0.3c-0.3,0.2-0.6,0.5-0.7,1
			C156,351.2,155.9,351.7,155.9,352.2z M164.8,350.5c0.1,0,0.2,0,0.3,0c0.1,0,0.2,0,0.3,0l-0.1,0.7c-0.1,0-0.2,0-0.3,0
			c-0.1,0-0.2,0-0.3,0c-0.2,0-0.4,0-0.6,0.1c-0.2,0.1-0.3,0.2-0.5,0.3c-0.1,0.1-0.2,0.3-0.3,0.5c-0.1,0.2-0.1,0.4-0.1,0.7v2.7h-0.8
			v-5h0.6l0.1,0.9h0c0.1-0.2,0.2-0.3,0.4-0.5s0.3-0.3,0.5-0.4C164.4,350.5,164.6,350.5,164.8,350.5z M167.8,357.8
			c-0.7,0-1.2-0.1-1.5-0.4c-0.4-0.2-0.5-0.6-0.5-1c0-0.3,0.1-0.6,0.3-0.8s0.5-0.4,0.8-0.4c-0.1-0.1-0.2-0.2-0.3-0.3
			s-0.1-0.3-0.1-0.4c0-0.2,0-0.3,0.1-0.5c0.1-0.1,0.3-0.3,0.5-0.4c-0.3-0.1-0.5-0.3-0.6-0.5c-0.2-0.3-0.2-0.6-0.2-0.9
			c0-0.4,0.1-0.7,0.2-0.9c0.2-0.2,0.4-0.4,0.7-0.6c0.3-0.1,0.6-0.2,1-0.2c0.1,0,0.2,0,0.3,0c0.1,0,0.2,0,0.3,0c0.1,0,0.2,0,0.2,0
			h1.7v0.5l-0.9,0.1c0.1,0.1,0.2,0.3,0.2,0.4c0.1,0.2,0.1,0.3,0.1,0.5c0,0.5-0.2,0.9-0.5,1.2c-0.3,0.3-0.8,0.4-1.4,0.4
			c-0.1,0-0.3,0-0.4,0c-0.1,0.1-0.3,0.2-0.3,0.3c-0.1,0.1-0.1,0.2-0.1,0.3c0,0.1,0,0.2,0.1,0.2c0.1,0.1,0.2,0.1,0.3,0.1
			c0.1,0,0.2,0,0.4,0h0.9c0.5,0,1,0.1,1.2,0.3c0.3,0.2,0.4,0.6,0.4,1c0,0.6-0.2,1-0.7,1.3C169.3,357.7,168.6,357.8,167.8,357.8z
			 M167.8,357.2c0.4,0,0.7,0,1-0.1c0.3-0.1,0.5-0.2,0.6-0.4c0.1-0.2,0.2-0.3,0.2-0.5c0-0.2,0-0.3-0.1-0.5c-0.1-0.1-0.2-0.2-0.4-0.2
			c-0.2,0-0.4-0.1-0.6-0.1h-0.9c-0.2,0-0.4,0-0.6,0.1c-0.2,0.1-0.3,0.2-0.4,0.3c-0.1,0.1-0.1,0.3-0.1,0.5c0,0.3,0.1,0.5,0.3,0.6
			C167.1,357.2,167.4,357.2,167.8,357.2z M168,353.2c0.4,0,0.6-0.1,0.8-0.3c0.2-0.2,0.3-0.5,0.3-0.8c0-0.4-0.1-0.7-0.3-0.8
			c-0.2-0.2-0.5-0.3-0.8-0.3c-0.4,0-0.6,0.1-0.8,0.3c-0.2,0.2-0.3,0.5-0.3,0.8c0,0.3,0.1,0.6,0.3,0.8
			C167.4,353.1,167.6,353.2,168,353.2z M173.3,350.5c0.6,0,1,0.1,1.3,0.4c0.3,0.3,0.4,0.7,0.4,1.3v3.4h-0.5l-0.2-0.7h0
			c-0.1,0.2-0.3,0.3-0.4,0.5c-0.1,0.1-0.3,0.2-0.5,0.3c-0.2,0.1-0.4,0.1-0.7,0.1c-0.3,0-0.6-0.1-0.8-0.2c-0.2-0.1-0.4-0.3-0.6-0.5
			c-0.1-0.2-0.2-0.5-0.2-0.8c0-0.5,0.2-0.9,0.6-1.1c0.4-0.3,1-0.4,1.8-0.4l0.9,0v-0.3c0-0.4-0.1-0.7-0.3-0.9
			c-0.2-0.2-0.4-0.3-0.8-0.3c-0.3,0-0.5,0-0.7,0.1c-0.2,0.1-0.5,0.2-0.7,0.3l-0.2-0.6c0.2-0.1,0.5-0.2,0.8-0.3
			C172.7,350.5,173,350.5,173.3,350.5z M174.3,353.1l-0.7,0c-0.6,0-1.1,0.1-1.3,0.3c-0.2,0.2-0.4,0.4-0.4,0.8c0,0.3,0.1,0.5,0.2,0.6
			c0.2,0.1,0.4,0.2,0.7,0.2c0.4,0,0.8-0.1,1.1-0.4c0.3-0.2,0.4-0.6,0.4-1.1V353.1z M179,350.5c0.6,0,1,0.1,1.3,0.4
			c0.3,0.3,0.5,0.7,0.5,1.4v3.2H180v-3.2c0-0.4-0.1-0.7-0.3-0.9c-0.2-0.2-0.5-0.3-0.9-0.3c-0.6,0-0.9,0.2-1.2,0.5
			c-0.2,0.3-0.3,0.8-0.3,1.4v2.6h-0.7v-5h0.6l0.1,0.7h0c0.1-0.2,0.2-0.3,0.4-0.4c0.2-0.1,0.3-0.2,0.5-0.3
			C178.5,350.5,178.8,350.5,179,350.5z M183.1,350.6v5h-0.7v-5H183.1z M182.7,348.7c0.1,0,0.2,0,0.3,0.1c0.1,0.1,0.1,0.2,0.1,0.4
			c0,0.2,0,0.3-0.1,0.4c-0.1,0.1-0.2,0.1-0.3,0.1c-0.1,0-0.2,0-0.3-0.1c-0.1-0.1-0.1-0.2-0.1-0.4c0-0.2,0-0.3,0.1-0.4
			C182.5,348.8,182.6,348.7,182.7,348.7z M187.9,355.6h-3.6v-0.5l2.7-3.9h-2.6v-0.6h3.4v0.5l-2.7,3.8h2.7V355.6z M190.9,350.5
			c0.6,0,1,0.1,1.3,0.4c0.3,0.3,0.4,0.7,0.4,1.3v3.4h-0.5l-0.2-0.7h0c-0.1,0.2-0.3,0.3-0.4,0.5c-0.1,0.1-0.3,0.2-0.5,0.3
			c-0.2,0.1-0.4,0.1-0.7,0.1c-0.3,0-0.6-0.1-0.8-0.2c-0.2-0.1-0.4-0.3-0.6-0.5c-0.1-0.2-0.2-0.5-0.2-0.8c0-0.5,0.2-0.9,0.6-1.1
			c0.4-0.3,1-0.4,1.8-0.4l0.9,0v-0.3c0-0.4-0.1-0.7-0.3-0.9c-0.2-0.2-0.4-0.3-0.8-0.3c-0.3,0-0.5,0-0.7,0.1
			c-0.2,0.1-0.5,0.2-0.7,0.3l-0.2-0.6c0.2-0.1,0.5-0.2,0.8-0.3C190.3,350.5,190.6,350.5,190.9,350.5z M191.9,353.1l-0.7,0
			c-0.6,0-1.1,0.1-1.3,0.3c-0.2,0.2-0.4,0.4-0.4,0.8c0,0.3,0.1,0.5,0.2,0.6c0.2,0.1,0.4,0.2,0.7,0.2c0.4,0,0.8-0.1,1.1-0.4
			c0.3-0.2,0.4-0.6,0.4-1.1V353.1z M195.8,355c0.1,0,0.2,0,0.4,0c0.1,0,0.2,0,0.3-0.1v0.6c-0.1,0-0.2,0.1-0.4,0.1
			c-0.2,0-0.3,0-0.5,0c-0.3,0-0.5,0-0.7-0.1c-0.2-0.1-0.4-0.2-0.5-0.5c-0.1-0.2-0.2-0.5-0.2-0.9v-3h-0.7v-0.4l0.7-0.3l0.3-1.1h0.5
			v1.2h1.5v0.6H195v2.9c0,0.3,0.1,0.5,0.2,0.7C195.4,355,195.6,355,195.8,355z M198.3,350.6v5h-0.7v-5H198.3z M197.9,348.7
			c0.1,0,0.2,0,0.3,0.1c0.1,0.1,0.1,0.2,0.1,0.4c0,0.2,0,0.3-0.1,0.4c-0.1,0.1-0.2,0.1-0.3,0.1c-0.1,0-0.2,0-0.3-0.1
			c-0.1-0.1-0.1-0.2-0.1-0.4c0-0.2,0-0.3,0.1-0.4C197.7,348.8,197.8,348.7,197.9,348.7z M204.2,353.1c0,0.4-0.1,0.8-0.2,1.1
			c-0.1,0.3-0.3,0.6-0.5,0.8c-0.2,0.2-0.4,0.4-0.7,0.5c-0.3,0.1-0.6,0.2-1,0.2c-0.3,0-0.6-0.1-0.9-0.2c-0.3-0.1-0.5-0.3-0.7-0.5
			c-0.2-0.2-0.4-0.5-0.5-0.8c-0.1-0.3-0.2-0.7-0.2-1.1c0-0.6,0.1-1,0.3-1.4c0.2-0.4,0.5-0.7,0.8-0.9c0.3-0.2,0.8-0.3,1.2-0.3
			c0.4,0,0.8,0.1,1.2,0.3c0.3,0.2,0.6,0.5,0.8,0.9C204.1,352.1,204.2,352.5,204.2,353.1z M200.4,353.1c0,0.4,0.1,0.7,0.2,1
			c0.1,0.3,0.3,0.5,0.5,0.7c0.2,0.2,0.5,0.2,0.9,0.2c0.3,0,0.6-0.1,0.8-0.2c0.2-0.2,0.4-0.4,0.5-0.7c0.1-0.3,0.2-0.7,0.2-1
			c0-0.4-0.1-0.8-0.2-1c-0.1-0.3-0.3-0.5-0.5-0.7c-0.2-0.2-0.5-0.2-0.8-0.2c-0.5,0-0.9,0.2-1.2,0.5
			C200.5,352,200.4,352.5,200.4,353.1z M207.9,350.5c0.6,0,1,0.1,1.3,0.4c0.3,0.3,0.5,0.7,0.5,1.4v3.2h-0.7v-3.2
			c0-0.4-0.1-0.7-0.3-0.9c-0.2-0.2-0.5-0.3-0.9-0.3c-0.6,0-0.9,0.2-1.2,0.5c-0.2,0.3-0.3,0.8-0.3,1.4v2.6h-0.7v-5h0.6l0.1,0.7h0
			c0.1-0.2,0.2-0.3,0.4-0.4c0.2-0.1,0.3-0.2,0.5-0.3C207.4,350.5,207.7,350.5,207.9,350.5z"/>
		<path class="st7" d="M170.3,359.9h1.9c0.8,0,1.5,0.1,1.9,0.4c0.4,0.2,0.6,0.7,0.6,1.3c0,0.3-0.1,0.5-0.2,0.7
			c-0.1,0.2-0.2,0.4-0.4,0.5c-0.2,0.1-0.4,0.2-0.7,0.3v0c0.3,0,0.5,0.1,0.8,0.2c0.2,0.1,0.4,0.3,0.5,0.5c0.1,0.2,0.2,0.5,0.2,0.8
			c0,0.4-0.1,0.8-0.3,1c-0.2,0.3-0.5,0.5-0.8,0.6c-0.3,0.1-0.7,0.2-1.2,0.2h-2.3V359.9z M171.1,362.8h1.3c0.6,0,1-0.1,1.2-0.3
			c0.2-0.2,0.3-0.5,0.3-0.8c0-0.4-0.1-0.7-0.4-0.8c-0.3-0.2-0.7-0.2-1.3-0.2h-1.1V362.8z M171.1,363.4v2.5h1.4c0.6,0,1-0.1,1.3-0.3
			c0.2-0.2,0.4-0.6,0.4-1c0-0.2-0.1-0.5-0.2-0.6c-0.1-0.2-0.3-0.3-0.5-0.4c-0.2-0.1-0.6-0.2-1-0.2H171.1z M176.9,361.6v5h-0.7v-5
			H176.9z M176.6,359.7c0.1,0,0.2,0,0.3,0.1c0.1,0.1,0.1,0.2,0.1,0.4c0,0.2,0,0.3-0.1,0.4c-0.1,0.1-0.2,0.1-0.3,0.1
			c-0.1,0-0.2,0-0.3-0.1c-0.1-0.1-0.1-0.2-0.1-0.4c0-0.2,0-0.3,0.1-0.4C176.3,359.8,176.5,359.7,176.6,359.7z M179.3,366.6h-0.8
			v-7.1h0.8V366.6z M181.7,366.6h-0.8v-7.1h0.8V366.6z M184,361.6v5h-0.7v-5H184z M183.6,359.7c0.1,0,0.2,0,0.3,0.1
			c0.1,0.1,0.1,0.2,0.1,0.4c0,0.2,0,0.3-0.1,0.4c-0.1,0.1-0.2,0.1-0.3,0.1c-0.1,0-0.2,0-0.3-0.1c-0.1-0.1-0.1-0.2-0.1-0.4
			c0-0.2,0-0.3,0.1-0.4C183.4,359.8,183.5,359.7,183.6,359.7z M188,361.5c0.6,0,1,0.1,1.3,0.4c0.3,0.3,0.5,0.7,0.5,1.4v3.2H189v-3.2
			c0-0.4-0.1-0.7-0.3-0.9c-0.2-0.2-0.5-0.3-0.9-0.3c-0.6,0-0.9,0.2-1.2,0.5c-0.2,0.3-0.3,0.8-0.3,1.4v2.6h-0.7v-5h0.6l0.1,0.7h0
			c0.1-0.2,0.2-0.3,0.4-0.4c0.2-0.1,0.3-0.2,0.5-0.3C187.5,361.5,187.7,361.5,188,361.5z M192.7,368.8c-0.7,0-1.2-0.1-1.5-0.4
			c-0.4-0.2-0.5-0.6-0.5-1c0-0.3,0.1-0.6,0.3-0.8c0.2-0.2,0.5-0.4,0.8-0.4c-0.1-0.1-0.2-0.2-0.3-0.3s-0.1-0.3-0.1-0.4
			c0-0.2,0-0.3,0.1-0.5c0.1-0.1,0.3-0.3,0.5-0.4c-0.3-0.1-0.5-0.3-0.6-0.5c-0.2-0.3-0.2-0.6-0.2-0.9c0-0.4,0.1-0.7,0.2-0.9
			c0.2-0.2,0.4-0.4,0.7-0.6c0.3-0.1,0.6-0.2,1-0.2c0.1,0,0.2,0,0.3,0c0.1,0,0.2,0,0.3,0c0.1,0,0.2,0,0.2,0h1.7v0.5l-0.9,0.1
			c0.1,0.1,0.2,0.3,0.2,0.4c0.1,0.2,0.1,0.3,0.1,0.5c0,0.5-0.2,0.9-0.5,1.2c-0.3,0.3-0.8,0.4-1.4,0.4c-0.1,0-0.3,0-0.4,0
			c-0.1,0.1-0.3,0.2-0.3,0.3c-0.1,0.1-0.1,0.2-0.1,0.3c0,0.1,0,0.2,0.1,0.2c0.1,0.1,0.2,0.1,0.3,0.1c0.1,0,0.2,0,0.4,0h0.9
			c0.5,0,1,0.1,1.2,0.3c0.3,0.2,0.4,0.6,0.4,1c0,0.6-0.2,1-0.7,1.3C194.2,368.7,193.6,368.8,192.7,368.8z M192.7,368.2
			c0.4,0,0.7,0,1-0.1c0.3-0.1,0.5-0.2,0.6-0.4s0.2-0.3,0.2-0.5c0-0.2,0-0.3-0.1-0.5c-0.1-0.1-0.2-0.2-0.4-0.2
			c-0.2,0-0.4-0.1-0.6-0.1h-0.9c-0.2,0-0.4,0-0.6,0.1c-0.2,0.1-0.3,0.2-0.4,0.3c-0.1,0.1-0.1,0.3-0.1,0.5c0,0.3,0.1,0.5,0.3,0.6
			C192,368.2,192.3,368.2,192.7,368.2z M192.9,364.2c0.4,0,0.6-0.1,0.8-0.3c0.2-0.2,0.3-0.5,0.3-0.8c0-0.4-0.1-0.7-0.3-0.8
			s-0.5-0.3-0.8-0.3c-0.4,0-0.6,0.1-0.8,0.3c-0.2,0.2-0.3,0.5-0.3,0.8c0,0.3,0.1,0.6,0.3,0.8C192.3,364.1,192.6,364.2,192.9,364.2z"
			/>
		<path class="st7" d="M167,377.6l-2.2-5.9h0c0,0.1,0,0.3,0,0.5c0,0.2,0,0.4,0,0.6c0,0.2,0,0.4,0,0.6v4.2h-0.7v-6.7h1.2l2.1,5.5h0
			l2.1-5.5h1.1v6.7h-0.8v-4.3c0-0.2,0-0.4,0-0.6c0-0.2,0-0.4,0-0.6c0-0.2,0-0.3,0-0.5h0l-2.3,5.9H167z M174.3,372.5
			c0.6,0,1,0.1,1.3,0.4c0.3,0.3,0.4,0.7,0.4,1.3v3.4h-0.5l-0.2-0.7h0c-0.1,0.2-0.3,0.3-0.4,0.5c-0.1,0.1-0.3,0.2-0.5,0.3
			c-0.2,0.1-0.4,0.1-0.7,0.1c-0.3,0-0.6-0.1-0.8-0.2c-0.2-0.1-0.4-0.3-0.6-0.5c-0.1-0.2-0.2-0.5-0.2-0.8c0-0.5,0.2-0.9,0.6-1.1
			c0.4-0.3,1-0.4,1.8-0.4l0.9,0v-0.3c0-0.4-0.1-0.7-0.3-0.9c-0.2-0.2-0.4-0.3-0.8-0.3c-0.3,0-0.5,0-0.7,0.1
			c-0.2,0.1-0.5,0.2-0.7,0.3l-0.2-0.6c0.2-0.1,0.5-0.2,0.8-0.3C173.6,372.5,173.9,372.5,174.3,372.5z M175.3,375.1l-0.7,0
			c-0.6,0-1.1,0.1-1.3,0.3c-0.2,0.2-0.4,0.4-0.4,0.8c0,0.3,0.1,0.5,0.2,0.6c0.2,0.1,0.4,0.2,0.7,0.2c0.4,0,0.8-0.1,1.1-0.4
			c0.3-0.2,0.4-0.6,0.4-1.1V375.1z M179.9,372.5c0.6,0,1,0.1,1.3,0.4c0.3,0.3,0.5,0.7,0.5,1.4v3.2H181v-3.2c0-0.4-0.1-0.7-0.3-0.9
			c-0.2-0.2-0.5-0.3-0.9-0.3c-0.6,0-0.9,0.2-1.2,0.5c-0.2,0.3-0.3,0.8-0.3,1.4v2.6h-0.7v-5h0.6l0.1,0.7h0c0.1-0.2,0.2-0.3,0.4-0.4
			c0.2-0.1,0.3-0.2,0.5-0.3C179.5,372.5,179.7,372.5,179.9,372.5z M185.1,372.5c0.6,0,1,0.1,1.3,0.4c0.3,0.3,0.4,0.7,0.4,1.3v3.4
			h-0.5l-0.2-0.7h0c-0.1,0.2-0.3,0.3-0.4,0.5c-0.1,0.1-0.3,0.2-0.5,0.3c-0.2,0.1-0.4,0.1-0.7,0.1c-0.3,0-0.6-0.1-0.8-0.2
			c-0.2-0.1-0.4-0.3-0.6-0.5c-0.1-0.2-0.2-0.5-0.2-0.8c0-0.5,0.2-0.9,0.6-1.1c0.4-0.3,1-0.4,1.8-0.4l0.9,0v-0.3
			c0-0.4-0.1-0.7-0.3-0.9c-0.2-0.2-0.4-0.3-0.8-0.3c-0.3,0-0.5,0-0.7,0.1c-0.2,0.1-0.5,0.2-0.7,0.3l-0.2-0.6
			c0.2-0.1,0.5-0.2,0.8-0.3C184.5,372.5,184.8,372.5,185.1,372.5z M186.1,375.1l-0.7,0c-0.6,0-1.1,0.1-1.3,0.3
			c-0.2,0.2-0.4,0.4-0.4,0.8c0,0.3,0.1,0.5,0.2,0.6c0.2,0.1,0.4,0.2,0.7,0.2c0.4,0,0.8-0.1,1.1-0.4c0.3-0.2,0.4-0.6,0.4-1.1V375.1z
			 M189.8,379.8c-0.7,0-1.2-0.1-1.5-0.4c-0.4-0.2-0.5-0.6-0.5-1c0-0.3,0.1-0.6,0.3-0.8c0.2-0.2,0.5-0.4,0.8-0.4
			c-0.1-0.1-0.2-0.2-0.3-0.3c-0.1-0.1-0.1-0.3-0.1-0.4c0-0.2,0-0.3,0.1-0.5c0.1-0.1,0.3-0.3,0.5-0.4c-0.3-0.1-0.5-0.3-0.6-0.5
			c-0.2-0.3-0.2-0.6-0.2-0.9c0-0.4,0.1-0.7,0.2-0.9c0.2-0.2,0.4-0.4,0.7-0.6c0.3-0.1,0.6-0.2,1-0.2c0.1,0,0.2,0,0.3,0
			c0.1,0,0.2,0,0.3,0c0.1,0,0.2,0,0.2,0h1.7v0.5l-0.9,0.1c0.1,0.1,0.2,0.3,0.2,0.4c0.1,0.2,0.1,0.3,0.1,0.5c0,0.5-0.2,0.9-0.5,1.2
			c-0.3,0.3-0.8,0.4-1.4,0.4c-0.1,0-0.3,0-0.4,0c-0.1,0.1-0.3,0.2-0.3,0.3c-0.1,0.1-0.1,0.2-0.1,0.3c0,0.1,0,0.2,0.1,0.2
			c0.1,0.1,0.2,0.1,0.3,0.1c0.1,0,0.2,0,0.4,0h0.9c0.5,0,1,0.1,1.2,0.3c0.3,0.2,0.4,0.6,0.4,1c0,0.6-0.2,1-0.7,1.3
			C191.3,379.7,190.7,379.8,189.8,379.8z M189.9,379.2c0.4,0,0.7,0,1-0.1c0.3-0.1,0.5-0.2,0.6-0.4c0.1-0.2,0.2-0.3,0.2-0.5
			c0-0.2,0-0.3-0.1-0.5c-0.1-0.1-0.2-0.2-0.4-0.2c-0.2,0-0.4-0.1-0.6-0.1h-0.9c-0.2,0-0.4,0-0.6,0.1c-0.2,0.1-0.3,0.2-0.4,0.3
			c-0.1,0.1-0.1,0.3-0.1,0.5c0,0.3,0.1,0.5,0.3,0.6C189.1,379.2,189.4,379.2,189.9,379.2z M190.1,375.2c0.4,0,0.6-0.1,0.8-0.3
			c0.2-0.2,0.3-0.5,0.3-0.8c0-0.4-0.1-0.7-0.3-0.8s-0.5-0.3-0.8-0.3s-0.6,0.1-0.8,0.3c-0.2,0.2-0.3,0.5-0.3,0.8
			c0,0.3,0.1,0.6,0.3,0.8C189.5,375.1,189.7,375.2,190.1,375.2z M195.4,372.5c0.4,0,0.8,0.1,1.1,0.3s0.5,0.5,0.7,0.8
			c0.2,0.3,0.2,0.7,0.2,1.2v0.5H194c0,0.6,0.2,1,0.4,1.3c0.3,0.3,0.7,0.5,1.2,0.5c0.3,0,0.6,0,0.8-0.1c0.2-0.1,0.5-0.1,0.8-0.2v0.7
			c-0.2,0.1-0.5,0.2-0.7,0.2c-0.2,0.1-0.5,0.1-0.9,0.1c-0.5,0-0.9-0.1-1.3-0.3c-0.4-0.2-0.6-0.5-0.8-0.9c-0.2-0.4-0.3-0.8-0.3-1.4
			c0-0.5,0.1-1,0.3-1.4c0.2-0.4,0.4-0.7,0.8-0.9C194.6,372.6,195,372.5,195.4,372.5z M195.4,373.1c-0.4,0-0.7,0.1-1,0.4
			c-0.2,0.3-0.4,0.6-0.4,1.1h2.6c0-0.3,0-0.6-0.1-0.8c-0.1-0.2-0.2-0.4-0.4-0.5C195.9,373.2,195.7,373.1,195.4,373.1z M201,372.5
			c0.1,0,0.2,0,0.3,0c0.1,0,0.2,0,0.3,0l-0.1,0.7c-0.1,0-0.2,0-0.3,0c-0.1,0-0.2,0-0.3,0c-0.2,0-0.4,0-0.6,0.1
			c-0.2,0.1-0.3,0.2-0.5,0.3c-0.1,0.1-0.2,0.3-0.3,0.5c-0.1,0.2-0.1,0.4-0.1,0.7v2.7h-0.8v-5h0.6l0.1,0.9h0c0.1-0.2,0.2-0.3,0.4-0.5
			s0.3-0.3,0.5-0.4C200.6,372.5,200.8,372.5,201,372.5z"/>
		<path class="st8" d="M150.1,444.2h80.7v41.3h-80.7V444.2z"/>
		<path class="st6" d="M150.1,444.2h80.7v41.3h-80.7V444.2z"/>
		<path class="st7" d="M181.3,462.8h-0.8v-6h-2.1v-0.7h5v0.7h-2.1V462.8z M186.2,457.7c0.4,0,0.8,0.1,1.1,0.3
			c0.3,0.2,0.5,0.5,0.7,0.8c0.2,0.3,0.2,0.7,0.2,1.2v0.5h-3.4c0,0.6,0.2,1,0.4,1.3c0.3,0.3,0.7,0.5,1.2,0.5c0.3,0,0.6,0,0.8-0.1
			c0.2-0.1,0.5-0.1,0.8-0.2v0.7c-0.2,0.1-0.5,0.2-0.7,0.2c-0.2,0.1-0.5,0.1-0.9,0.1c-0.5,0-0.9-0.1-1.3-0.3
			c-0.4-0.2-0.6-0.5-0.8-0.9c-0.2-0.4-0.3-0.8-0.3-1.4c0-0.5,0.1-1,0.3-1.4c0.2-0.4,0.4-0.7,0.8-0.9
			C185.4,457.8,185.8,457.7,186.2,457.7z M186.2,458.3c-0.4,0-0.7,0.1-1,0.4c-0.2,0.3-0.4,0.6-0.4,1.1h2.6c0-0.3,0-0.6-0.1-0.8
			c-0.1-0.2-0.2-0.4-0.4-0.5C186.7,458.4,186.5,458.3,186.2,458.3z M191.4,457.7c0.6,0,1,0.1,1.3,0.4c0.3,0.3,0.4,0.7,0.4,1.3v3.4
			h-0.5l-0.2-0.7h0c-0.1,0.2-0.3,0.3-0.4,0.5c-0.1,0.1-0.3,0.2-0.5,0.3c-0.2,0.1-0.4,0.1-0.7,0.1c-0.3,0-0.6-0.1-0.8-0.2
			c-0.2-0.1-0.4-0.3-0.6-0.5c-0.1-0.2-0.2-0.5-0.2-0.8c0-0.5,0.2-0.9,0.6-1.1c0.4-0.3,1-0.4,1.8-0.4l0.9,0v-0.3
			c0-0.4-0.1-0.7-0.3-0.9c-0.2-0.2-0.4-0.3-0.8-0.3c-0.3,0-0.5,0-0.7,0.1c-0.2,0.1-0.5,0.2-0.7,0.3l-0.2-0.6
			c0.2-0.1,0.5-0.2,0.8-0.3C190.8,457.8,191.1,457.7,191.4,457.7z M192.4,460.4l-0.7,0c-0.6,0-1.1,0.1-1.3,0.3
			c-0.2,0.2-0.4,0.4-0.4,0.8c0,0.3,0.1,0.5,0.2,0.6c0.2,0.1,0.4,0.2,0.7,0.2c0.4,0,0.8-0.1,1.1-0.4c0.3-0.2,0.4-0.6,0.4-1.1V460.4z
			 M200.1,457.7c0.6,0,1,0.1,1.2,0.4c0.3,0.3,0.4,0.7,0.4,1.4v3.3H201v-3.2c0-0.4-0.1-0.7-0.3-0.9c-0.2-0.2-0.4-0.3-0.8-0.3
			c-0.5,0-0.8,0.1-1,0.4c-0.2,0.3-0.3,0.7-0.3,1.2v2.8h-0.7v-3.2c0-0.3,0-0.5-0.1-0.7c-0.1-0.2-0.2-0.3-0.3-0.4
			c-0.2-0.1-0.3-0.1-0.6-0.1c-0.3,0-0.6,0.1-0.8,0.2c-0.2,0.1-0.3,0.3-0.4,0.6c-0.1,0.3-0.1,0.6-0.1,1v2.6h-0.7v-5h0.6l0.1,0.7h0
			c0.1-0.2,0.2-0.3,0.4-0.4c0.2-0.1,0.3-0.2,0.5-0.3c0.2-0.1,0.4-0.1,0.6-0.1c0.4,0,0.7,0.1,1,0.2c0.3,0.1,0.4,0.3,0.6,0.6h0
			c0.2-0.3,0.4-0.5,0.7-0.6C199.5,457.8,199.8,457.7,200.1,457.7z"/>
		<path class="st7" d="M175,473.8l-2.2-5.9h0c0,0.1,0,0.3,0,0.5c0,0.2,0,0.4,0,0.6c0,0.2,0,0.4,0,0.6v4.2h-0.7v-6.7h1.2l2.1,5.5h0
			l2.1-5.5h1.1v6.7h-0.8v-4.3c0-0.2,0-0.4,0-0.6c0-0.2,0-0.4,0-0.6c0-0.2,0-0.3,0-0.5h0l-2.3,5.9H175z M182.2,468.7
			c0.6,0,1,0.1,1.3,0.4c0.3,0.3,0.4,0.7,0.4,1.3v3.4h-0.5l-0.2-0.7h0c-0.1,0.2-0.3,0.3-0.4,0.5c-0.1,0.1-0.3,0.2-0.5,0.3
			c-0.2,0.1-0.4,0.1-0.7,0.1c-0.3,0-0.6-0.1-0.8-0.2c-0.2-0.1-0.4-0.3-0.6-0.5c-0.1-0.2-0.2-0.5-0.2-0.8c0-0.5,0.2-0.9,0.6-1.1
			c0.4-0.3,1-0.4,1.8-0.4l0.9,0v-0.3c0-0.4-0.1-0.7-0.3-0.9c-0.2-0.2-0.4-0.3-0.8-0.3c-0.3,0-0.5,0-0.7,0.1
			c-0.2,0.1-0.5,0.2-0.7,0.3l-0.2-0.6c0.2-0.1,0.5-0.2,0.8-0.3C181.6,468.8,181.9,468.7,182.2,468.7z M183.2,471.4l-0.7,0
			c-0.6,0-1.1,0.1-1.3,0.3c-0.2,0.2-0.4,0.4-0.4,0.8c0,0.3,0.1,0.5,0.2,0.6c0.2,0.1,0.4,0.2,0.7,0.2c0.4,0,0.8-0.1,1.1-0.4
			c0.3-0.2,0.4-0.6,0.4-1.1V471.4z M187.9,468.7c0.6,0,1,0.1,1.3,0.4c0.3,0.3,0.5,0.7,0.5,1.4v3.2H189v-3.2c0-0.4-0.1-0.7-0.3-0.9
			c-0.2-0.2-0.5-0.3-0.9-0.3c-0.6,0-0.9,0.2-1.2,0.5c-0.2,0.3-0.3,0.8-0.3,1.4v2.6h-0.7v-5h0.6l0.1,0.7h0c0.1-0.2,0.2-0.3,0.4-0.4
			c0.2-0.1,0.3-0.2,0.5-0.3C187.5,468.8,187.7,468.7,187.9,468.7z M193.1,468.7c0.6,0,1,0.1,1.3,0.4c0.3,0.3,0.4,0.7,0.4,1.3v3.4
			h-0.5l-0.2-0.7h0c-0.1,0.2-0.3,0.3-0.4,0.5c-0.1,0.1-0.3,0.2-0.5,0.3c-0.2,0.1-0.4,0.1-0.7,0.1c-0.3,0-0.6-0.1-0.8-0.2
			c-0.2-0.1-0.4-0.3-0.6-0.5c-0.1-0.2-0.2-0.5-0.2-0.8c0-0.5,0.2-0.9,0.6-1.1c0.4-0.3,1-0.4,1.8-0.4l0.9,0v-0.3
			c0-0.4-0.1-0.7-0.3-0.9c-0.2-0.2-0.4-0.3-0.8-0.3c-0.3,0-0.5,0-0.7,0.1c-0.2,0.1-0.5,0.2-0.7,0.3l-0.2-0.6
			c0.2-0.1,0.5-0.2,0.8-0.3C192.5,468.8,192.8,468.7,193.1,468.7z M194.1,471.4l-0.7,0c-0.6,0-1.1,0.1-1.3,0.3
			c-0.2,0.2-0.4,0.4-0.4,0.8c0,0.3,0.1,0.5,0.2,0.6c0.2,0.1,0.4,0.2,0.7,0.2c0.4,0,0.8-0.1,1.1-0.4c0.3-0.2,0.4-0.6,0.4-1.1V471.4z
			 M197.8,476c-0.7,0-1.2-0.1-1.5-0.4c-0.4-0.2-0.5-0.6-0.5-1c0-0.3,0.1-0.6,0.3-0.8c0.2-0.2,0.5-0.4,0.8-0.4
			c-0.1-0.1-0.2-0.2-0.3-0.3c-0.1-0.1-0.1-0.3-0.1-0.4c0-0.2,0-0.3,0.1-0.5c0.1-0.1,0.3-0.3,0.5-0.4c-0.3-0.1-0.5-0.3-0.6-0.5
			c-0.2-0.3-0.2-0.6-0.2-0.9c0-0.4,0.1-0.7,0.2-0.9c0.2-0.2,0.4-0.4,0.7-0.6c0.3-0.1,0.6-0.2,1-0.2c0.1,0,0.2,0,0.3,0
			c0.1,0,0.2,0,0.3,0c0.1,0,0.2,0,0.2,0h1.7v0.5l-0.9,0.1c0.1,0.1,0.2,0.3,0.2,0.4c0.1,0.2,0.1,0.3,0.1,0.5c0,0.5-0.2,0.9-0.5,1.2
			c-0.3,0.3-0.8,0.4-1.4,0.4c-0.1,0-0.3,0-0.4,0c-0.1,0.1-0.3,0.2-0.3,0.3c-0.1,0.1-0.1,0.2-0.1,0.3c0,0.1,0,0.2,0.1,0.2
			c0.1,0.1,0.2,0.1,0.3,0.1c0.1,0,0.2,0,0.4,0h0.9c0.5,0,1,0.1,1.2,0.3c0.3,0.2,0.4,0.6,0.4,1c0,0.6-0.2,1-0.7,1.3
			C199.3,475.9,198.7,476,197.8,476z M197.9,475.5c0.4,0,0.7,0,1-0.1c0.3-0.1,0.5-0.2,0.6-0.4c0.1-0.2,0.2-0.3,0.2-0.5
			c0-0.2,0-0.3-0.1-0.5c-0.1-0.1-0.2-0.2-0.4-0.2c-0.2,0-0.4-0.1-0.6-0.1h-0.9c-0.2,0-0.4,0-0.6,0.1c-0.2,0.1-0.3,0.2-0.4,0.3
			c-0.1,0.1-0.1,0.3-0.1,0.5c0,0.3,0.1,0.5,0.3,0.6C197.1,475.4,197.4,475.5,197.9,475.5z M198.1,471.5c0.4,0,0.6-0.1,0.8-0.3
			c0.2-0.2,0.3-0.5,0.3-0.8c0-0.4-0.1-0.7-0.3-0.8c-0.2-0.2-0.5-0.3-0.8-0.3c-0.4,0-0.6,0.1-0.8,0.3c-0.2,0.2-0.3,0.5-0.3,0.8
			c0,0.3,0.1,0.6,0.3,0.8C197.4,471.4,197.7,471.5,198.1,471.5z M203.4,468.7c0.4,0,0.8,0.1,1.1,0.3c0.3,0.2,0.5,0.5,0.7,0.8
			c0.2,0.3,0.2,0.7,0.2,1.2v0.5H202c0,0.6,0.2,1,0.4,1.3c0.3,0.3,0.7,0.5,1.2,0.5c0.3,0,0.6,0,0.8-0.1c0.2-0.1,0.5-0.1,0.8-0.2v0.7
			c-0.2,0.1-0.5,0.2-0.7,0.2c-0.2,0.1-0.5,0.1-0.9,0.1c-0.5,0-0.9-0.1-1.3-0.3c-0.4-0.2-0.6-0.5-0.8-0.9c-0.2-0.4-0.3-0.8-0.3-1.4
			c0-0.5,0.1-1,0.3-1.4c0.2-0.4,0.4-0.7,0.8-0.9C202.6,468.8,203,468.7,203.4,468.7z M203.4,469.3c-0.4,0-0.7,0.1-1,0.4
			c-0.2,0.3-0.4,0.6-0.4,1.1h2.6c0-0.3,0-0.6-0.1-0.8c-0.1-0.2-0.2-0.4-0.4-0.5C203.9,469.4,203.7,469.3,203.4,469.3z M209,468.7
			c0.1,0,0.2,0,0.3,0c0.1,0,0.2,0,0.3,0l-0.1,0.7c-0.1,0-0.2,0-0.3,0c-0.1,0-0.2,0-0.3,0c-0.2,0-0.4,0-0.6,0.1
			c-0.2,0.1-0.3,0.2-0.5,0.3c-0.1,0.1-0.2,0.3-0.3,0.5c-0.1,0.2-0.1,0.4-0.1,0.7v2.7h-0.8v-5h0.6l0.1,0.9h0c0.1-0.2,0.2-0.3,0.4-0.5
			c0.1-0.2,0.3-0.3,0.5-0.4C208.5,468.8,208.8,468.7,209,468.7z"/>
		<path class="st2" d="M126.2,261.4h-25v50.9h41"/>
		<path class="st6" d="M126.2,261.4h-25v50.9h41"/>
		<path class="st2" d="M142.1,312.3h-25v50.8h25"/>
		<path class="st6" d="M142.1,312.3h-25v50.8h25"/>
		<path class="st2" d="M142.1,363.1h-25V414h33"/>
		<path class="st6" d="M142.1,363.1h-25V414h33"/>
		<path class="st2" d="M150.1,414h-25v50.9h25"/>
		<path class="st6" d="M150.1,414h-25v50.9h25"/>
		<path class="st5" d="M142.1,291.6h80.7v41.3h-80.7V291.6z"/>
		<path class="st6" d="M142.1,291.6h80.7v41.3h-80.7V291.6z"/>
		<path class="st7" d="M161.2,306.9c0,0.5-0.1,1-0.2,1.4c-0.1,0.4-0.3,0.8-0.6,1.1c-0.2,0.3-0.6,0.5-1,0.7c-0.4,0.2-0.8,0.2-1.3,0.2
			c-0.5,0-1-0.1-1.4-0.2c-0.4-0.2-0.7-0.4-1-0.7c-0.2-0.3-0.4-0.7-0.6-1.1c-0.1-0.4-0.2-0.9-0.2-1.4c0-0.7,0.1-1.3,0.3-1.8
			c0.2-0.5,0.6-0.9,1-1.2c0.5-0.3,1-0.4,1.7-0.4c0.7,0,1.2,0.1,1.7,0.4c0.4,0.3,0.8,0.7,1,1.2C161.1,305.6,161.2,306.2,161.2,306.9z
			 M155.9,306.9c0,0.6,0.1,1.1,0.2,1.5c0.2,0.4,0.4,0.7,0.7,1c0.3,0.2,0.8,0.3,1.3,0.3c0.5,0,0.9-0.1,1.2-0.3c0.3-0.2,0.6-0.5,0.7-1
			c0.2-0.4,0.2-0.9,0.2-1.5c0-0.9-0.2-1.5-0.5-2c-0.4-0.5-0.9-0.7-1.7-0.7c-0.5,0-0.9,0.1-1.3,0.3c-0.3,0.2-0.6,0.5-0.7,1
			C156,305.8,155.9,306.3,155.9,306.9z M164.8,305.2c0.1,0,0.2,0,0.3,0c0.1,0,0.2,0,0.3,0l-0.1,0.7c-0.1,0-0.2,0-0.3,0
			c-0.1,0-0.2,0-0.3,0c-0.2,0-0.4,0-0.6,0.1c-0.2,0.1-0.3,0.2-0.5,0.3c-0.1,0.1-0.2,0.3-0.3,0.5c-0.1,0.2-0.1,0.4-0.1,0.7v2.7h-0.8
			v-5h0.6l0.1,0.9h0c0.1-0.2,0.2-0.3,0.4-0.5s0.3-0.3,0.5-0.4C164.4,305.2,164.6,305.2,164.8,305.2z M167.8,312.5
			c-0.7,0-1.2-0.1-1.5-0.4c-0.4-0.2-0.5-0.6-0.5-1c0-0.3,0.1-0.6,0.3-0.8s0.5-0.4,0.8-0.4c-0.1-0.1-0.2-0.2-0.3-0.3
			s-0.1-0.3-0.1-0.4c0-0.2,0-0.3,0.1-0.5c0.1-0.1,0.3-0.3,0.5-0.4c-0.3-0.1-0.5-0.3-0.6-0.5c-0.2-0.3-0.2-0.6-0.2-0.9
			c0-0.4,0.1-0.7,0.2-0.9c0.2-0.2,0.4-0.4,0.7-0.6c0.3-0.1,0.6-0.2,1-0.2c0.1,0,0.2,0,0.3,0c0.1,0,0.2,0,0.3,0c0.1,0,0.2,0,0.2,0
			h1.7v0.5l-0.9,0.1c0.1,0.1,0.2,0.3,0.2,0.4c0.1,0.2,0.1,0.3,0.1,0.5c0,0.5-0.2,0.9-0.5,1.2c-0.3,0.3-0.8,0.4-1.4,0.4
			c-0.1,0-0.3,0-0.4,0c-0.1,0.1-0.3,0.2-0.3,0.3c-0.1,0.1-0.1,0.2-0.1,0.3c0,0.1,0,0.2,0.1,0.2c0.1,0.1,0.2,0.1,0.3,0.1
			c0.1,0,0.2,0,0.4,0h0.9c0.5,0,1,0.1,1.2,0.3c0.3,0.2,0.4,0.6,0.4,1c0,0.6-0.2,1-0.7,1.3C169.3,312.3,168.6,312.5,167.8,312.5z
			 M167.8,311.9c0.4,0,0.7,0,1-0.1c0.3-0.1,0.5-0.2,0.6-0.4c0.1-0.2,0.2-0.3,0.2-0.5c0-0.2,0-0.3-0.1-0.5c-0.1-0.1-0.2-0.2-0.4-0.2
			c-0.2,0-0.4-0.1-0.6-0.1h-0.9c-0.2,0-0.4,0-0.6,0.1c-0.2,0.1-0.3,0.2-0.4,0.3c-0.1,0.1-0.1,0.3-0.1,0.5c0,0.3,0.1,0.5,0.3,0.6
			C167.1,311.8,167.4,311.9,167.8,311.9z M168,307.9c0.4,0,0.6-0.1,0.8-0.3c0.2-0.2,0.3-0.5,0.3-0.8c0-0.4-0.1-0.7-0.3-0.8
			c-0.2-0.2-0.5-0.3-0.8-0.3c-0.4,0-0.6,0.1-0.8,0.3c-0.2,0.2-0.3,0.5-0.3,0.8c0,0.3,0.1,0.6,0.3,0.8
			C167.4,307.8,167.6,307.9,168,307.9z M173.3,305.2c0.6,0,1,0.1,1.3,0.4c0.3,0.3,0.4,0.7,0.4,1.3v3.4h-0.5l-0.2-0.7h0
			c-0.1,0.2-0.3,0.3-0.4,0.5c-0.1,0.1-0.3,0.2-0.5,0.3c-0.2,0.1-0.4,0.1-0.7,0.1c-0.3,0-0.6-0.1-0.8-0.2c-0.2-0.1-0.4-0.3-0.6-0.5
			c-0.1-0.2-0.2-0.5-0.2-0.8c0-0.5,0.2-0.9,0.6-1.1c0.4-0.3,1-0.4,1.8-0.4l0.9,0v-0.3c0-0.4-0.1-0.7-0.3-0.9
			c-0.2-0.2-0.4-0.3-0.8-0.3c-0.3,0-0.5,0-0.7,0.1c-0.2,0.1-0.5,0.2-0.7,0.3l-0.2-0.6c0.2-0.1,0.5-0.2,0.8-0.3
			C172.7,305.2,173,305.2,173.3,305.2z M174.3,307.8l-0.7,0c-0.6,0-1.1,0.1-1.3,0.3c-0.2,0.2-0.4,0.4-0.4,0.8c0,0.3,0.1,0.5,0.2,0.6
			c0.2,0.1,0.4,0.2,0.7,0.2c0.4,0,0.8-0.1,1.1-0.4c0.3-0.2,0.4-0.6,0.4-1.1V307.8z M179,305.2c0.6,0,1,0.1,1.3,0.4
			c0.3,0.3,0.5,0.7,0.5,1.4v3.2H180V307c0-0.4-0.1-0.7-0.3-0.9c-0.2-0.2-0.5-0.3-0.9-0.3c-0.6,0-0.9,0.2-1.2,0.5
			c-0.2,0.3-0.3,0.8-0.3,1.4v2.6h-0.7v-5h0.6l0.1,0.7h0c0.1-0.2,0.2-0.3,0.4-0.4c0.2-0.1,0.3-0.2,0.5-0.3
			C178.5,305.2,178.8,305.2,179,305.2z M183.1,305.3v5h-0.7v-5H183.1z M182.7,303.4c0.1,0,0.2,0,0.3,0.1c0.1,0.1,0.1,0.2,0.1,0.4
			c0,0.2,0,0.3-0.1,0.4c-0.1,0.1-0.2,0.1-0.3,0.1c-0.1,0-0.2,0-0.3-0.1c-0.1-0.1-0.1-0.2-0.1-0.4c0-0.2,0-0.3,0.1-0.4
			C182.5,303.4,182.6,303.4,182.7,303.4z M187.9,310.2h-3.6v-0.5l2.7-3.9h-2.6v-0.6h3.4v0.5l-2.7,3.8h2.7V310.2z M190.9,305.2
			c0.6,0,1,0.1,1.3,0.4c0.3,0.3,0.4,0.7,0.4,1.3v3.4h-0.5l-0.2-0.7h0c-0.1,0.2-0.3,0.3-0.4,0.5c-0.1,0.1-0.3,0.2-0.5,0.3
			c-0.2,0.1-0.4,0.1-0.7,0.1c-0.3,0-0.6-0.1-0.8-0.2c-0.2-0.1-0.4-0.3-0.6-0.5c-0.1-0.2-0.2-0.5-0.2-0.8c0-0.5,0.2-0.9,0.6-1.1
			c0.4-0.3,1-0.4,1.8-0.4l0.9,0v-0.3c0-0.4-0.1-0.7-0.3-0.9c-0.2-0.2-0.4-0.3-0.8-0.3c-0.3,0-0.5,0-0.7,0.1
			c-0.2,0.1-0.5,0.2-0.7,0.3l-0.2-0.6c0.2-0.1,0.5-0.2,0.8-0.3C190.3,305.2,190.6,305.2,190.9,305.2z M191.9,307.8l-0.7,0
			c-0.6,0-1.1,0.1-1.3,0.3c-0.2,0.2-0.4,0.4-0.4,0.8c0,0.3,0.1,0.5,0.2,0.6c0.2,0.1,0.4,0.2,0.7,0.2c0.4,0,0.8-0.1,1.1-0.4
			c0.3-0.2,0.4-0.6,0.4-1.1V307.8z M195.8,309.7c0.1,0,0.2,0,0.4,0c0.1,0,0.2,0,0.3-0.1v0.6c-0.1,0-0.2,0.1-0.4,0.1
			c-0.2,0-0.3,0-0.5,0c-0.3,0-0.5,0-0.7-0.1c-0.2-0.1-0.4-0.2-0.5-0.5c-0.1-0.2-0.2-0.5-0.2-0.9v-3h-0.7v-0.4l0.7-0.3l0.3-1.1h0.5
			v1.2h1.5v0.6H195v2.9c0,0.3,0.1,0.5,0.2,0.7C195.4,309.6,195.6,309.7,195.8,309.7z M198.3,305.3v5h-0.7v-5H198.3z M197.9,303.4
			c0.1,0,0.2,0,0.3,0.1c0.1,0.1,0.1,0.2,0.1,0.4c0,0.2,0,0.3-0.1,0.4c-0.1,0.1-0.2,0.1-0.3,0.1c-0.1,0-0.2,0-0.3-0.1
			c-0.1-0.1-0.1-0.2-0.1-0.4c0-0.2,0-0.3,0.1-0.4C197.7,303.4,197.8,303.4,197.9,303.4z M204.2,307.7c0,0.4-0.1,0.8-0.2,1.1
			c-0.1,0.3-0.3,0.6-0.5,0.8c-0.2,0.2-0.4,0.4-0.7,0.5c-0.3,0.1-0.6,0.2-1,0.2c-0.3,0-0.6-0.1-0.9-0.2c-0.3-0.1-0.5-0.3-0.7-0.5
			c-0.2-0.2-0.4-0.5-0.5-0.8c-0.1-0.3-0.2-0.7-0.2-1.1c0-0.6,0.1-1,0.3-1.4c0.2-0.4,0.5-0.7,0.8-0.9c0.3-0.2,0.8-0.3,1.2-0.3
			c0.4,0,0.8,0.1,1.2,0.3c0.3,0.2,0.6,0.5,0.8,0.9C204.1,306.7,204.2,307.2,204.2,307.7z M200.4,307.7c0,0.4,0.1,0.7,0.2,1
			c0.1,0.3,0.3,0.5,0.5,0.7c0.2,0.2,0.5,0.2,0.9,0.2c0.3,0,0.6-0.1,0.8-0.2c0.2-0.2,0.4-0.4,0.5-0.7c0.1-0.3,0.2-0.7,0.2-1
			c0-0.4-0.1-0.8-0.2-1c-0.1-0.3-0.3-0.5-0.5-0.7c-0.2-0.2-0.5-0.2-0.8-0.2c-0.5,0-0.9,0.2-1.2,0.5
			C200.5,306.6,200.4,307.1,200.4,307.7z M207.9,305.2c0.6,0,1,0.1,1.3,0.4c0.3,0.3,0.5,0.7,0.5,1.4v3.2h-0.7V307
			c0-0.4-0.1-0.7-0.3-0.9c-0.2-0.2-0.5-0.3-0.9-0.3c-0.6,0-0.9,0.2-1.2,0.5c-0.2,0.3-0.3,0.8-0.3,1.4v2.6h-0.7v-5h0.6l0.1,0.7h0
			c0.1-0.2,0.2-0.3,0.4-0.4c0.2-0.1,0.3-0.2,0.5-0.3C207.4,305.2,207.7,305.2,207.9,305.2z"/>
		<path class="st7" d="M157.5,321.2l-0.8-2.1H154l-0.8,2.1h-0.8l2.6-6.7h0.7l2.6,6.7H157.5z M156.4,318.4l-0.8-2.1
			c0-0.1,0-0.1-0.1-0.3c0-0.1-0.1-0.2-0.1-0.4c0-0.1-0.1-0.2-0.1-0.3c0,0.1-0.1,0.2-0.1,0.4c0,0.1-0.1,0.2-0.1,0.3
			c0,0.1-0.1,0.2-0.1,0.3l-0.8,2.1H156.4z M160.9,321.3c-0.6,0-1.1-0.2-1.5-0.6c-0.4-0.4-0.5-1.1-0.5-1.9c0-0.9,0.2-1.5,0.6-1.9
			c0.4-0.4,0.9-0.7,1.5-0.7c0.3,0,0.5,0,0.7,0.1c0.2,0.1,0.4,0.2,0.5,0.3c0.1,0.1,0.3,0.2,0.4,0.4h0c0-0.1,0-0.2,0-0.4
			c0-0.2,0-0.3,0-0.4v-2h0.7v7.1h-0.6l-0.1-0.7h0c-0.1,0.1-0.2,0.3-0.4,0.4c-0.1,0.1-0.3,0.2-0.5,0.3
			C161.4,321.3,161.2,321.3,160.9,321.3z M161,320.7c0.5,0,0.9-0.2,1.1-0.5c0.2-0.3,0.3-0.8,0.3-1.4v-0.1c0-0.6-0.1-1.1-0.3-1.5
			c-0.2-0.3-0.6-0.5-1.2-0.5c-0.5,0-0.8,0.2-1,0.5c-0.2,0.4-0.3,0.8-0.3,1.5c0,0.6,0.1,1.1,0.3,1.4
			C160.2,320.5,160.5,320.7,161,320.7z M170.2,316.2c0.6,0,1,0.1,1.2,0.4c0.3,0.3,0.4,0.7,0.4,1.4v3.3h-0.7V318
			c0-0.4-0.1-0.7-0.3-0.9c-0.2-0.2-0.4-0.3-0.8-0.3c-0.5,0-0.8,0.1-1,0.4s-0.3,0.7-0.3,1.2v2.8H168V318c0-0.3,0-0.5-0.1-0.7
			c-0.1-0.2-0.2-0.3-0.3-0.4c-0.2-0.1-0.3-0.1-0.6-0.1c-0.3,0-0.6,0.1-0.8,0.2c-0.2,0.1-0.3,0.3-0.4,0.6c-0.1,0.3-0.1,0.6-0.1,1v2.6
			h-0.7v-5h0.6l0.1,0.7h0c0.1-0.2,0.2-0.3,0.4-0.4c0.2-0.1,0.3-0.2,0.5-0.3c0.2-0.1,0.4-0.1,0.6-0.1c0.4,0,0.7,0.1,1,0.2
			c0.3,0.1,0.4,0.3,0.6,0.6h0c0.2-0.3,0.4-0.5,0.7-0.6C169.6,316.2,169.9,316.2,170.2,316.2z M174.2,316.3v5h-0.7v-5H174.2z
			 M173.8,314.4c0.1,0,0.2,0,0.3,0.1c0.1,0.1,0.1,0.2,0.1,0.4c0,0.2,0,0.3-0.1,0.4c-0.1,0.1-0.2,0.1-0.3,0.1c-0.1,0-0.2,0-0.3-0.1
			c-0.1-0.1-0.1-0.2-0.1-0.4c0-0.2,0-0.3,0.1-0.4C173.6,314.4,173.7,314.4,173.8,314.4z M178.1,316.2c0.6,0,1,0.1,1.3,0.4
			c0.3,0.3,0.5,0.7,0.5,1.4v3.2h-0.7V318c0-0.4-0.1-0.7-0.3-0.9c-0.2-0.2-0.5-0.3-0.9-0.3c-0.6,0-0.9,0.2-1.2,0.5
			c-0.2,0.3-0.3,0.8-0.3,1.4v2.6h-0.7v-5h0.6l0.1,0.7h0c0.1-0.2,0.2-0.3,0.4-0.4c0.2-0.1,0.3-0.2,0.5-0.3
			C177.7,316.2,177.9,316.2,178.1,316.2z M182.3,316.3v5h-0.7v-5H182.3z M181.9,314.4c0.1,0,0.2,0,0.3,0.1c0.1,0.1,0.1,0.2,0.1,0.4
			c0,0.2,0,0.3-0.1,0.4c-0.1,0.1-0.2,0.1-0.3,0.1c-0.1,0-0.2,0-0.3-0.1c-0.1-0.1-0.1-0.2-0.1-0.4c0-0.2,0-0.3,0.1-0.4
			C181.6,314.4,181.8,314.4,181.9,314.4z M187.1,319.9c0,0.3-0.1,0.6-0.2,0.8c-0.2,0.2-0.4,0.4-0.7,0.5c-0.3,0.1-0.6,0.2-1,0.2
			c-0.4,0-0.7,0-0.9-0.1c-0.2-0.1-0.5-0.1-0.7-0.2v-0.7c0.2,0.1,0.5,0.2,0.7,0.3c0.3,0.1,0.6,0.1,0.9,0.1c0.4,0,0.7-0.1,0.9-0.2
			c0.2-0.1,0.3-0.3,0.3-0.6c0-0.1,0-0.3-0.1-0.4c-0.1-0.1-0.2-0.2-0.4-0.3c-0.2-0.1-0.4-0.2-0.7-0.3c-0.3-0.1-0.6-0.2-0.8-0.4
			c-0.2-0.1-0.4-0.3-0.5-0.4c-0.1-0.2-0.2-0.4-0.2-0.7c0-0.4,0.2-0.8,0.5-1c0.3-0.2,0.8-0.3,1.4-0.3c0.3,0,0.6,0,0.8,0.1
			c0.3,0.1,0.5,0.1,0.7,0.2l-0.3,0.6c-0.2-0.1-0.4-0.2-0.7-0.2c-0.2-0.1-0.5-0.1-0.7-0.1c-0.3,0-0.6,0.1-0.8,0.2
			c-0.2,0.1-0.3,0.3-0.3,0.5c0,0.2,0,0.3,0.1,0.4c0.1,0.1,0.2,0.2,0.4,0.3c0.2,0.1,0.4,0.2,0.7,0.3c0.3,0.1,0.6,0.2,0.8,0.4
			c0.2,0.1,0.4,0.3,0.5,0.5C187,319.4,187.1,319.6,187.1,319.9z M189.9,320.7c0.1,0,0.2,0,0.4,0c0.1,0,0.2,0,0.3-0.1v0.6
			c-0.1,0-0.2,0.1-0.4,0.1c-0.2,0-0.3,0-0.5,0c-0.3,0-0.5,0-0.7-0.1c-0.2-0.1-0.4-0.2-0.5-0.5c-0.1-0.2-0.2-0.5-0.2-0.9v-3h-0.7
			v-0.4l0.7-0.3l0.3-1.1h0.5v1.2h1.5v0.6h-1.5v2.9c0,0.3,0.1,0.5,0.2,0.7C189.5,320.6,189.7,320.7,189.9,320.7z M193.9,316.2
			c0.1,0,0.2,0,0.3,0c0.1,0,0.2,0,0.3,0l-0.1,0.7c-0.1,0-0.2,0-0.3,0c-0.1,0-0.2,0-0.3,0c-0.2,0-0.4,0-0.6,0.1
			c-0.2,0.1-0.3,0.2-0.5,0.3c-0.1,0.1-0.2,0.3-0.3,0.5c-0.1,0.2-0.1,0.4-0.1,0.7v2.7h-0.8v-5h0.6l0.1,0.9h0c0.1-0.2,0.2-0.3,0.4-0.5
			c0.1-0.2,0.3-0.3,0.5-0.4C193.4,316.2,193.6,316.2,193.9,316.2z M197.3,316.2c0.6,0,1,0.1,1.3,0.4c0.3,0.3,0.4,0.7,0.4,1.3v3.4
			h-0.5l-0.2-0.7h0c-0.1,0.2-0.3,0.3-0.4,0.5c-0.1,0.1-0.3,0.2-0.5,0.3c-0.2,0.1-0.4,0.1-0.7,0.1c-0.3,0-0.6-0.1-0.8-0.2
			c-0.2-0.1-0.4-0.3-0.6-0.5c-0.1-0.2-0.2-0.5-0.2-0.8c0-0.5,0.2-0.9,0.6-1.1c0.4-0.3,1-0.4,1.8-0.4l0.9,0v-0.3
			c0-0.4-0.1-0.7-0.3-0.9c-0.2-0.2-0.4-0.3-0.8-0.3c-0.3,0-0.5,0-0.7,0.1c-0.2,0.1-0.5,0.2-0.7,0.3l-0.2-0.6
			c0.2-0.1,0.5-0.2,0.8-0.3C196.7,316.2,197,316.2,197.3,316.2z M198.3,318.8l-0.7,0c-0.6,0-1.1,0.1-1.3,0.3
			c-0.2,0.2-0.4,0.4-0.4,0.8c0,0.3,0.1,0.5,0.2,0.6c0.2,0.1,0.4,0.2,0.7,0.2c0.4,0,0.8-0.1,1.1-0.4c0.3-0.2,0.4-0.6,0.4-1.1V318.8z
			 M202.2,320.7c0.1,0,0.2,0,0.4,0c0.1,0,0.2,0,0.3-0.1v0.6c-0.1,0-0.2,0.1-0.4,0.1c-0.2,0-0.3,0-0.5,0c-0.3,0-0.5,0-0.7-0.1
			c-0.2-0.1-0.4-0.2-0.5-0.5c-0.1-0.2-0.2-0.5-0.2-0.9v-3h-0.7v-0.4l0.7-0.3l0.3-1.1h0.5v1.2h1.5v0.6h-1.5v2.9
			c0,0.3,0.1,0.5,0.2,0.7C201.8,320.6,202,320.7,202.2,320.7z M208.2,318.7c0,0.4-0.1,0.8-0.2,1.1c-0.1,0.3-0.3,0.6-0.5,0.8
			s-0.4,0.4-0.7,0.5c-0.3,0.1-0.6,0.2-1,0.2c-0.3,0-0.6-0.1-0.9-0.2c-0.3-0.1-0.5-0.3-0.7-0.5c-0.2-0.2-0.4-0.5-0.5-0.8
			c-0.1-0.3-0.2-0.7-0.2-1.1c0-0.6,0.1-1,0.3-1.4c0.2-0.4,0.5-0.7,0.8-0.9c0.3-0.2,0.8-0.3,1.2-0.3c0.4,0,0.8,0.1,1.2,0.3
			c0.3,0.2,0.6,0.5,0.8,0.9C208.1,317.7,208.2,318.2,208.2,318.7z M204.4,318.7c0,0.4,0.1,0.7,0.2,1c0.1,0.3,0.3,0.5,0.5,0.7
			c0.2,0.2,0.5,0.2,0.9,0.2c0.3,0,0.6-0.1,0.8-0.2c0.2-0.2,0.4-0.4,0.5-0.7c0.1-0.3,0.2-0.7,0.2-1c0-0.4-0.1-0.8-0.2-1
			c-0.1-0.3-0.3-0.5-0.5-0.7c-0.2-0.2-0.5-0.2-0.8-0.2c-0.5,0-0.9,0.2-1.2,0.5C204.5,317.6,204.4,318.1,204.4,318.7z M211.8,316.2
			c0.1,0,0.2,0,0.3,0c0.1,0,0.2,0,0.3,0l-0.1,0.7c-0.1,0-0.2,0-0.3,0c-0.1,0-0.2,0-0.3,0c-0.2,0-0.4,0-0.6,0.1
			c-0.2,0.1-0.3,0.2-0.5,0.3c-0.1,0.1-0.2,0.3-0.3,0.5c-0.1,0.2-0.1,0.4-0.1,0.7v2.7h-0.8v-5h0.6l0.1,0.9h0c0.1-0.2,0.2-0.3,0.4-0.5
			c0.1-0.2,0.3-0.3,0.5-0.4C211.3,316.2,211.6,316.2,211.8,316.2z"/>
		<path class="st5" d="M128.5,332.7v-40.9h15.9v40.9H128.5z"/>
		<path class="st6" d="M128.5,332.7v-40.9h15.9v40.9H128.5z"/>
		<path class="st7" d="M136.3,321c0.4,0,0.8,0.1,1.2,0.2c0.4,0.1,0.7,0.3,0.9,0.5c0.3,0.2,0.5,0.5,0.6,0.8c0.1,0.3,0.2,0.7,0.2,1.1
			c0,0.4-0.1,0.8-0.2,1.2c-0.1,0.3-0.3,0.6-0.6,0.8c-0.3,0.2-0.6,0.4-0.9,0.5c-0.4,0.1-0.8,0.2-1.2,0.2c-0.6,0-1.1-0.1-1.5-0.3
			c-0.4-0.2-0.8-0.5-1-0.9c-0.2-0.4-0.4-0.9-0.4-1.5c0-0.6,0.1-1.1,0.4-1.4c0.2-0.4,0.6-0.7,1-0.9C135.2,321.1,135.7,321,136.3,321z
			 M136.3,325.5c0.5,0,0.9-0.1,1.2-0.2c0.4-0.1,0.6-0.4,0.8-0.6c0.2-0.3,0.3-0.6,0.3-1.1c0-0.4-0.1-0.8-0.3-1.1
			c-0.2-0.3-0.5-0.5-0.8-0.6c-0.4-0.1-0.8-0.2-1.2-0.2c-0.7,0-1.3,0.2-1.7,0.5c-0.4,0.3-0.6,0.8-0.6,1.4c0,0.4,0.1,0.8,0.3,1.1
			c0.2,0.3,0.5,0.5,0.8,0.6C135.4,325.5,135.8,325.5,136.3,325.5z M139.1,316.3l-2.5,0.8c-0.1,0-0.2,0.1-0.3,0.1
			c-0.1,0-0.2,0.1-0.3,0.1c-0.1,0-0.2,0-0.3,0.1c-0.1,0-0.2,0-0.2,0v0c0.1,0,0.1,0,0.2,0c0.1,0,0.2,0,0.3,0.1c0.1,0,0.2,0,0.3,0.1
			c0.1,0,0.2,0.1,0.3,0.1l2.5,0.8v0.7l-4.3,1.2v-0.7l2.4-0.6c0.2,0,0.3-0.1,0.5-0.1c0.1,0,0.3-0.1,0.4-0.1c0.1,0,0.2-0.1,0.3-0.1v0
			c-0.1,0-0.1,0-0.2-0.1c-0.1,0-0.2,0-0.3-0.1c-0.1,0-0.2,0-0.3-0.1c-0.1,0-0.2-0.1-0.3-0.1l-2.5-0.8V317l2.5-0.8
			c0.1,0,0.3-0.1,0.4-0.1c0.1,0,0.3-0.1,0.4-0.1c0.1,0,0.2-0.1,0.3-0.1v0c-0.1,0-0.2,0-0.3,0c-0.1,0-0.3-0.1-0.4-0.1
			c-0.2,0-0.3-0.1-0.5-0.1l-2.4-0.6v-0.7l4.3,1.2V316.3z M134.8,311.6c0-0.5,0.1-0.9,0.4-1.1c0.2-0.3,0.6-0.4,1.2-0.4h2.8v0.6h-2.7
			c-0.4,0-0.6,0.1-0.8,0.2c-0.2,0.2-0.3,0.4-0.3,0.7c0,0.5,0.1,0.8,0.4,1c0.3,0.2,0.6,0.3,1.2,0.3h2.2v0.6h-4.3v-0.5l0.6-0.1v0
			c-0.1-0.1-0.3-0.2-0.4-0.3c-0.1-0.1-0.2-0.3-0.2-0.5C134.8,312,134.8,311.8,134.8,311.6z M134.8,307.1c0-0.4,0.1-0.7,0.2-0.9
			c0.2-0.3,0.4-0.5,0.7-0.6c0.3-0.1,0.6-0.2,1-0.2h0.4v3c0.5,0,0.9-0.1,1.1-0.4c0.3-0.2,0.4-0.6,0.4-1c0-0.3,0-0.5-0.1-0.7
			c-0.1-0.2-0.1-0.4-0.2-0.7h0.6c0.1,0.2,0.2,0.4,0.2,0.7c0.1,0.2,0.1,0.5,0.1,0.8c0,0.4-0.1,0.8-0.2,1.1c-0.2,0.3-0.4,0.5-0.7,0.7
			c-0.3,0.2-0.7,0.2-1.2,0.2c-0.5,0-0.9-0.1-1.2-0.2c-0.3-0.2-0.6-0.4-0.8-0.7C134.9,307.8,134.8,307.4,134.8,307.1z M135.3,307.1
			c0,0.3,0.1,0.6,0.3,0.8c0.2,0.2,0.5,0.3,0.9,0.4V306c-0.2,0-0.5,0-0.7,0.1c-0.2,0.1-0.3,0.2-0.5,0.3
			C135.4,306.6,135.3,306.8,135.3,307.1z M134.8,302.3c0-0.1,0-0.2,0-0.3c0-0.1,0-0.2,0-0.2l0.6,0.1c0,0.1,0,0.1,0,0.2
			c0,0.1,0,0.2,0,0.2c0,0.2,0,0.3,0.1,0.5c0.1,0.1,0.2,0.3,0.3,0.4c0.1,0.1,0.3,0.2,0.5,0.3c0.2,0.1,0.4,0.1,0.6,0.1h2.3v0.7h-4.3
			v-0.5l0.8-0.1v0c-0.2-0.1-0.3-0.2-0.4-0.3c-0.1-0.1-0.2-0.3-0.3-0.4C134.8,302.7,134.8,302.5,134.8,302.3z M138,298.2
			c0.3,0,0.5,0.1,0.7,0.2c0.2,0.1,0.3,0.3,0.4,0.6c0.1,0.2,0.1,0.6,0.1,0.9c0,0.3,0,0.5-0.1,0.8c0,0.2-0.1,0.4-0.2,0.6h-0.6
			c0.1-0.2,0.2-0.4,0.2-0.6c0.1-0.2,0.1-0.5,0.1-0.7c0-0.4-0.1-0.6-0.2-0.8c-0.1-0.2-0.3-0.2-0.5-0.2c-0.1,0-0.2,0-0.3,0.1
			c-0.1,0.1-0.2,0.2-0.3,0.3c-0.1,0.2-0.2,0.4-0.3,0.6c-0.1,0.3-0.2,0.5-0.3,0.7c-0.1,0.2-0.2,0.4-0.4,0.5c-0.1,0.1-0.3,0.2-0.6,0.2
			c-0.4,0-0.6-0.1-0.8-0.4c-0.2-0.3-0.3-0.7-0.3-1.2c0-0.3,0-0.5,0.1-0.7c0.1-0.2,0.1-0.4,0.2-0.6l0.5,0.2c-0.1,0.2-0.1,0.4-0.2,0.6
			c-0.1,0.2-0.1,0.4-0.1,0.6c0,0.3,0.1,0.5,0.2,0.7c0.1,0.2,0.2,0.2,0.4,0.2c0.1,0,0.2,0,0.3-0.1c0.1-0.1,0.2-0.2,0.2-0.4
			c0.1-0.2,0.2-0.4,0.3-0.7c0.1-0.3,0.2-0.5,0.3-0.7c0.1-0.2,0.2-0.3,0.4-0.5C137.5,298.2,137.7,298.2,138,298.2z"/>
		<path class="st8" d="M150.1,393.3h80.7v41.3h-80.7V393.3z"/>
		<path class="st6" d="M150.1,393.3h80.7v41.3h-80.7V393.3z"/>
		<path class="st7" d="M181.3,411.9h-0.8v-6h-2.1v-0.7h5v0.7h-2.1V411.9z M186.2,406.9c0.4,0,0.8,0.1,1.1,0.3
			c0.3,0.2,0.5,0.5,0.7,0.8c0.2,0.3,0.2,0.7,0.2,1.2v0.5h-3.4c0,0.6,0.2,1,0.4,1.3c0.3,0.3,0.7,0.5,1.2,0.5c0.3,0,0.6,0,0.8-0.1
			c0.2-0.1,0.5-0.1,0.8-0.2v0.7c-0.2,0.1-0.5,0.2-0.7,0.2c-0.2,0.1-0.5,0.1-0.9,0.1c-0.5,0-0.9-0.1-1.3-0.3
			c-0.4-0.2-0.6-0.5-0.8-0.9c-0.2-0.4-0.3-0.8-0.3-1.4c0-0.5,0.1-1,0.3-1.4c0.2-0.4,0.4-0.7,0.8-0.9
			C185.4,407,185.8,406.9,186.2,406.9z M186.2,407.5c-0.4,0-0.7,0.1-1,0.4c-0.2,0.3-0.4,0.6-0.4,1.1h2.6c0-0.3,0-0.6-0.1-0.8
			c-0.1-0.2-0.2-0.4-0.4-0.5C186.7,407.5,186.5,407.5,186.2,407.5z M191.4,406.9c0.6,0,1,0.1,1.3,0.4c0.3,0.3,0.4,0.7,0.4,1.3v3.4
			h-0.5l-0.2-0.7h0c-0.1,0.2-0.3,0.3-0.4,0.5c-0.1,0.1-0.3,0.2-0.5,0.3c-0.2,0.1-0.4,0.1-0.7,0.1c-0.3,0-0.6-0.1-0.8-0.2
			c-0.2-0.1-0.4-0.3-0.6-0.5c-0.1-0.2-0.2-0.5-0.2-0.8c0-0.5,0.2-0.9,0.6-1.1c0.4-0.3,1-0.4,1.8-0.4l0.9,0v-0.3
			c0-0.4-0.1-0.7-0.3-0.9c-0.2-0.2-0.4-0.3-0.8-0.3c-0.3,0-0.5,0-0.7,0.1c-0.2,0.1-0.5,0.2-0.7,0.3l-0.2-0.6
			c0.2-0.1,0.5-0.2,0.8-0.3C190.8,406.9,191.1,406.9,191.4,406.9z M192.4,409.5l-0.7,0c-0.6,0-1.1,0.1-1.3,0.3
			c-0.2,0.2-0.4,0.4-0.4,0.8c0,0.3,0.1,0.5,0.2,0.6c0.2,0.1,0.4,0.2,0.7,0.2c0.4,0,0.8-0.1,1.1-0.4c0.3-0.2,0.4-0.6,0.4-1.1V409.5z
			 M200.1,406.9c0.6,0,1,0.1,1.2,0.4c0.3,0.3,0.4,0.7,0.4,1.4v3.3H201v-3.2c0-0.4-0.1-0.7-0.3-0.9c-0.2-0.2-0.4-0.3-0.8-0.3
			c-0.5,0-0.8,0.1-1,0.4s-0.3,0.7-0.3,1.2v2.8h-0.7v-3.2c0-0.3,0-0.5-0.1-0.7c-0.1-0.2-0.2-0.3-0.3-0.4c-0.2-0.1-0.3-0.1-0.6-0.1
			c-0.3,0-0.6,0.1-0.8,0.2c-0.2,0.1-0.3,0.3-0.4,0.6c-0.1,0.3-0.1,0.6-0.1,1v2.6h-0.7v-5h0.6l0.1,0.7h0c0.1-0.2,0.2-0.3,0.4-0.4
			c0.2-0.1,0.3-0.2,0.5-0.3c0.2-0.1,0.4-0.1,0.6-0.1c0.4,0,0.7,0.1,1,0.2c0.3,0.1,0.4,0.3,0.6,0.6h0c0.2-0.3,0.4-0.5,0.7-0.6
			C199.5,406.9,199.8,406.9,200.1,406.9z"/>
		<path class="st7" d="M165.5,422.9l-0.8-2.1H162l-0.8,2.1h-0.8l2.6-6.7h0.7l2.6,6.7H165.5z M164.4,420.1l-0.8-2.1
			c0-0.1,0-0.1-0.1-0.3s-0.1-0.2-0.1-0.4c0-0.1-0.1-0.2-0.1-0.3c0,0.1-0.1,0.2-0.1,0.4c0,0.1-0.1,0.2-0.1,0.3c0,0.1-0.1,0.2-0.1,0.3
			l-0.8,2.1H164.4z M168.9,423c-0.6,0-1.1-0.2-1.5-0.6c-0.4-0.4-0.5-1.1-0.5-1.9c0-0.9,0.2-1.5,0.6-1.9c0.4-0.4,0.9-0.7,1.5-0.7
			c0.3,0,0.5,0,0.7,0.1c0.2,0.1,0.4,0.2,0.5,0.3c0.1,0.1,0.3,0.2,0.4,0.4h0c0-0.1,0-0.2,0-0.4c0-0.2,0-0.3,0-0.4v-2h0.7v7.1h-0.6
			l-0.1-0.7h0c-0.1,0.1-0.2,0.3-0.4,0.4c-0.1,0.1-0.3,0.2-0.5,0.3C169.4,423,169.2,423,168.9,423z M169,422.4c0.5,0,0.9-0.2,1.1-0.5
			c0.2-0.3,0.3-0.8,0.3-1.4v-0.1c0-0.6-0.1-1.1-0.3-1.5c-0.2-0.3-0.6-0.5-1.2-0.5c-0.5,0-0.8,0.2-1,0.5c-0.2,0.4-0.3,0.8-0.3,1.5
			c0,0.6,0.1,1.1,0.3,1.4C168.2,422.2,168.5,422.4,169,422.4z M178.2,417.9c0.6,0,1,0.1,1.2,0.4c0.3,0.3,0.4,0.7,0.4,1.4v3.3h-0.7
			v-3.2c0-0.4-0.1-0.7-0.3-0.9c-0.2-0.2-0.4-0.3-0.8-0.3c-0.5,0-0.8,0.1-1,0.4s-0.3,0.7-0.3,1.2v2.8H176v-3.2c0-0.3,0-0.5-0.1-0.7
			c-0.1-0.2-0.2-0.3-0.3-0.4c-0.2-0.1-0.3-0.1-0.6-0.1c-0.3,0-0.6,0.1-0.8,0.2c-0.2,0.1-0.3,0.3-0.4,0.6c-0.1,0.3-0.1,0.6-0.1,1v2.6
			h-0.7v-5h0.6l0.1,0.7h0c0.1-0.2,0.2-0.3,0.4-0.4c0.2-0.1,0.3-0.2,0.5-0.3c0.2-0.1,0.4-0.1,0.6-0.1c0.4,0,0.7,0.1,1,0.2
			c0.3,0.1,0.4,0.3,0.6,0.6h0c0.2-0.3,0.4-0.5,0.7-0.6C177.6,417.9,177.9,417.9,178.2,417.9z M182.2,418v5h-0.7v-5H182.2z
			 M181.8,416.1c0.1,0,0.2,0,0.3,0.1c0.1,0.1,0.1,0.2,0.1,0.4c0,0.2,0,0.3-0.1,0.4c-0.1,0.1-0.2,0.1-0.3,0.1c-0.1,0-0.2,0-0.3-0.1
			c-0.1-0.1-0.1-0.2-0.1-0.4c0-0.2,0-0.3,0.1-0.4C181.6,416.1,181.7,416.1,181.8,416.1z M186.1,417.9c0.6,0,1,0.1,1.3,0.4
			c0.3,0.3,0.5,0.7,0.5,1.4v3.2h-0.7v-3.2c0-0.4-0.1-0.7-0.3-0.9c-0.2-0.2-0.5-0.3-0.9-0.3c-0.6,0-0.9,0.2-1.2,0.5
			c-0.2,0.3-0.3,0.8-0.3,1.4v2.6h-0.7v-5h0.6l0.1,0.7h0c0.1-0.2,0.2-0.3,0.4-0.4c0.2-0.1,0.3-0.2,0.5-0.3
			C185.7,417.9,185.9,417.9,186.1,417.9z M190.2,418v5h-0.7v-5H190.2z M189.9,416.1c0.1,0,0.2,0,0.3,0.1c0.1,0.1,0.1,0.2,0.1,0.4
			c0,0.2,0,0.3-0.1,0.4c-0.1,0.1-0.2,0.1-0.3,0.1c-0.1,0-0.2,0-0.3-0.1c-0.1-0.1-0.1-0.2-0.1-0.4c0-0.2,0-0.3,0.1-0.4
			C189.6,416.1,189.8,416.1,189.9,416.1z M195.1,421.6c0,0.3-0.1,0.6-0.2,0.8c-0.2,0.2-0.4,0.4-0.7,0.5c-0.3,0.1-0.6,0.2-1,0.2
			c-0.4,0-0.7,0-0.9-0.1c-0.2-0.1-0.5-0.1-0.7-0.2V422c0.2,0.1,0.5,0.2,0.7,0.3c0.3,0.1,0.6,0.1,0.9,0.1c0.4,0,0.7-0.1,0.9-0.2
			c0.2-0.1,0.3-0.3,0.3-0.6c0-0.1,0-0.3-0.1-0.4c-0.1-0.1-0.2-0.2-0.4-0.3c-0.2-0.1-0.4-0.2-0.7-0.3c-0.3-0.1-0.6-0.2-0.8-0.4
			c-0.2-0.1-0.4-0.3-0.5-0.4c-0.1-0.2-0.2-0.4-0.2-0.7c0-0.4,0.2-0.8,0.5-1c0.3-0.2,0.8-0.3,1.4-0.3c0.3,0,0.6,0,0.8,0.1
			c0.3,0.1,0.5,0.1,0.7,0.2l-0.3,0.6c-0.2-0.1-0.4-0.2-0.7-0.2c-0.2-0.1-0.5-0.1-0.7-0.1c-0.3,0-0.6,0.1-0.8,0.2
			c-0.2,0.1-0.3,0.3-0.3,0.5c0,0.2,0,0.3,0.1,0.4c0.1,0.1,0.2,0.2,0.4,0.3c0.2,0.1,0.4,0.2,0.7,0.3c0.3,0.1,0.6,0.2,0.8,0.4
			c0.2,0.1,0.4,0.3,0.5,0.5C195,421.1,195.1,421.3,195.1,421.6z M197.9,422.4c0.1,0,0.2,0,0.4,0c0.1,0,0.2,0,0.3-0.1v0.6
			c-0.1,0-0.2,0.1-0.4,0.1c-0.2,0-0.3,0-0.5,0c-0.3,0-0.5,0-0.7-0.1c-0.2-0.1-0.4-0.2-0.5-0.5c-0.1-0.2-0.2-0.5-0.2-0.9v-3h-0.7
			v-0.4l0.7-0.3l0.3-1.1h0.5v1.2h1.5v0.6h-1.5v2.9c0,0.3,0.1,0.5,0.2,0.7C197.5,422.3,197.7,422.4,197.9,422.4z M201.9,417.9
			c0.1,0,0.2,0,0.3,0c0.1,0,0.2,0,0.3,0l-0.1,0.7c-0.1,0-0.2,0-0.3,0c-0.1,0-0.2,0-0.3,0c-0.2,0-0.4,0-0.6,0.1
			c-0.2,0.1-0.3,0.2-0.5,0.3c-0.1,0.1-0.2,0.3-0.3,0.5c-0.1,0.2-0.1,0.4-0.1,0.7v2.7h-0.8v-5h0.6l0.1,0.9h0c0.1-0.2,0.2-0.3,0.4-0.5
			s0.3-0.3,0.5-0.4C201.4,417.9,201.6,417.9,201.9,417.9z M205.3,417.9c0.6,0,1,0.1,1.3,0.4c0.3,0.3,0.4,0.7,0.4,1.3v3.4h-0.5
			l-0.2-0.7h0c-0.1,0.2-0.3,0.3-0.4,0.5c-0.1,0.1-0.3,0.2-0.5,0.3c-0.2,0.1-0.4,0.1-0.7,0.1c-0.3,0-0.6-0.1-0.8-0.2
			c-0.2-0.1-0.4-0.3-0.6-0.5c-0.1-0.2-0.2-0.5-0.2-0.8c0-0.5,0.2-0.9,0.6-1.1c0.4-0.3,1-0.4,1.8-0.4l0.9,0v-0.3
			c0-0.4-0.1-0.7-0.3-0.9c-0.2-0.2-0.4-0.3-0.8-0.3c-0.3,0-0.5,0-0.7,0.1c-0.2,0.1-0.5,0.2-0.7,0.3l-0.2-0.6
			c0.2-0.1,0.5-0.2,0.8-0.3C204.7,417.9,205,417.9,205.3,417.9z M206.3,420.5l-0.7,0c-0.6,0-1.1,0.1-1.3,0.3
			c-0.2,0.2-0.4,0.4-0.4,0.8c0,0.3,0.1,0.5,0.2,0.6c0.2,0.1,0.4,0.2,0.7,0.2c0.4,0,0.8-0.1,1.1-0.4c0.3-0.2,0.4-0.6,0.4-1.1V420.5z
			 M210.2,422.4c0.1,0,0.2,0,0.4,0c0.1,0,0.2,0,0.3-0.1v0.6c-0.1,0-0.2,0.1-0.4,0.1c-0.2,0-0.3,0-0.5,0c-0.3,0-0.5,0-0.7-0.1
			c-0.2-0.1-0.4-0.2-0.5-0.5c-0.1-0.2-0.2-0.5-0.2-0.9v-3h-0.7v-0.4l0.7-0.3l0.3-1.1h0.5v1.2h1.5v0.6h-1.5v2.9
			c0,0.3,0.1,0.5,0.2,0.7C209.8,422.3,210,422.4,210.2,422.4z M216.2,420.4c0,0.4-0.1,0.8-0.2,1.1c-0.1,0.3-0.3,0.6-0.5,0.8
			s-0.4,0.4-0.7,0.5c-0.3,0.1-0.6,0.2-1,0.2c-0.3,0-0.6-0.1-0.9-0.2c-0.3-0.1-0.5-0.3-0.7-0.5s-0.4-0.5-0.5-0.8
			c-0.1-0.3-0.2-0.7-0.2-1.1c0-0.6,0.1-1,0.3-1.4c0.2-0.4,0.5-0.7,0.8-0.9c0.3-0.2,0.8-0.3,1.2-0.3c0.4,0,0.8,0.1,1.2,0.3
			c0.3,0.2,0.6,0.5,0.8,0.9C216.1,419.4,216.2,419.9,216.2,420.4z M212.4,420.4c0,0.4,0.1,0.7,0.2,1c0.1,0.3,0.3,0.5,0.5,0.7
			c0.2,0.2,0.5,0.2,0.9,0.2c0.3,0,0.6-0.1,0.8-0.2c0.2-0.2,0.4-0.4,0.5-0.7c0.1-0.3,0.2-0.7,0.2-1c0-0.4-0.1-0.8-0.2-1
			c-0.1-0.3-0.3-0.5-0.5-0.7c-0.2-0.2-0.5-0.2-0.8-0.2c-0.5,0-0.9,0.2-1.2,0.5C212.5,419.4,212.4,419.8,212.4,420.4z M219.8,417.9
			c0.1,0,0.2,0,0.3,0c0.1,0,0.2,0,0.3,0l-0.1,0.7c-0.1,0-0.2,0-0.3,0c-0.1,0-0.2,0-0.3,0c-0.2,0-0.4,0-0.6,0.1
			c-0.2,0.1-0.3,0.2-0.5,0.3c-0.1,0.1-0.2,0.3-0.3,0.5c-0.1,0.2-0.1,0.4-0.1,0.7v2.7h-0.8v-5h0.6l0.1,0.9h0c0.1-0.2,0.2-0.3,0.4-0.5
			c0.1-0.2,0.3-0.3,0.5-0.4C219.3,417.9,219.5,417.9,219.8,417.9z"/>
		<path class="st8" d="M134.2,434.4v-40.9h15.9v40.9H134.2z"/>
		<path class="st6" d="M134.2,434.4v-40.9h15.9v40.9H134.2z"/>
		<path class="st7" d="M142,422.7c0.4,0,0.8,0.1,1.2,0.2c0.4,0.1,0.7,0.3,0.9,0.5c0.3,0.2,0.5,0.5,0.6,0.8c0.1,0.3,0.2,0.7,0.2,1.1
			c0,0.4-0.1,0.8-0.2,1.2c-0.1,0.3-0.3,0.6-0.6,0.8c-0.3,0.2-0.6,0.4-0.9,0.5c-0.4,0.1-0.8,0.2-1.2,0.2c-0.6,0-1.1-0.1-1.5-0.3
			c-0.4-0.2-0.8-0.5-1-0.9c-0.2-0.4-0.4-0.9-0.4-1.5c0-0.6,0.1-1.1,0.4-1.4c0.2-0.4,0.6-0.7,1-0.9
			C140.9,422.8,141.4,422.7,142,422.7z M142,427.2c0.5,0,0.9-0.1,1.2-0.2c0.4-0.1,0.6-0.4,0.8-0.6c0.2-0.3,0.3-0.6,0.3-1.1
			c0-0.4-0.1-0.8-0.3-1.1c-0.2-0.3-0.5-0.5-0.8-0.6c-0.4-0.1-0.8-0.2-1.2-0.2c-0.7,0-1.3,0.2-1.7,0.5c-0.4,0.3-0.6,0.8-0.6,1.4
			c0,0.4,0.1,0.8,0.3,1.1c0.2,0.3,0.5,0.5,0.8,0.6C141.1,427.2,141.5,427.2,142,427.2z M144.8,418l-2.5,0.8c-0.1,0-0.2,0.1-0.3,0.1
			c-0.1,0-0.2,0.1-0.3,0.1c-0.1,0-0.2,0-0.3,0.1c-0.1,0-0.2,0-0.2,0v0c0.1,0,0.1,0,0.2,0c0.1,0,0.2,0,0.3,0.1c0.1,0,0.2,0,0.3,0.1
			c0.1,0,0.2,0.1,0.3,0.1l2.5,0.8v0.7l-4.3,1.2v-0.7l2.4-0.6c0.2,0,0.3-0.1,0.5-0.1c0.1,0,0.3-0.1,0.4-0.1c0.1,0,0.2-0.1,0.3-0.1v0
			c-0.1,0-0.1,0-0.2-0.1c-0.1,0-0.2,0-0.3-0.1c-0.1,0-0.2,0-0.3-0.1c-0.1,0-0.2-0.1-0.3-0.1l-2.5-0.8v-0.7l2.5-0.8
			c0.1,0,0.3-0.1,0.4-0.1c0.1,0,0.3-0.1,0.4-0.1c0.1,0,0.2-0.1,0.3-0.1v0c-0.1,0-0.2,0-0.3,0c-0.1,0-0.3-0.1-0.4-0.1
			c-0.2,0-0.3-0.1-0.5-0.1l-2.4-0.6v-0.7l4.3,1.2V418z M140.5,413.3c0-0.5,0.1-0.9,0.4-1.1c0.2-0.3,0.6-0.4,1.2-0.4h2.8v0.6h-2.7
			c-0.4,0-0.6,0.1-0.8,0.2c-0.2,0.2-0.3,0.4-0.3,0.7c0,0.5,0.1,0.8,0.4,1c0.3,0.2,0.6,0.3,1.2,0.3h2.2v0.6h-4.3v-0.5l0.6-0.1v0
			c-0.1-0.1-0.3-0.2-0.4-0.3c-0.1-0.1-0.2-0.3-0.2-0.5C140.5,413.7,140.5,413.5,140.5,413.3z M140.5,408.8c0-0.4,0.1-0.7,0.2-0.9
			c0.2-0.3,0.4-0.5,0.7-0.6c0.3-0.1,0.6-0.2,1-0.2h0.4v3c0.5,0,0.9-0.1,1.1-0.4c0.3-0.2,0.4-0.6,0.4-1c0-0.3,0-0.5-0.1-0.7
			c-0.1-0.2-0.1-0.4-0.2-0.7h0.6c0.1,0.2,0.2,0.4,0.2,0.7c0.1,0.2,0.1,0.5,0.1,0.8c0,0.4-0.1,0.8-0.2,1.1c-0.2,0.3-0.4,0.5-0.7,0.7
			c-0.3,0.2-0.7,0.3-1.2,0.2c-0.5,0-0.9-0.1-1.2-0.2c-0.3-0.2-0.6-0.4-0.8-0.7C140.6,409.5,140.5,409.2,140.5,408.8z M141,408.8
			c0,0.3,0.1,0.6,0.3,0.8c0.2,0.2,0.5,0.3,0.9,0.4v-2.3c-0.2,0-0.5,0-0.7,0.1c-0.2,0.1-0.3,0.2-0.5,0.3
			C141.1,408.3,141,408.5,141,408.8z M140.5,404c0-0.1,0-0.2,0-0.3c0-0.1,0-0.2,0-0.2l0.6,0.1c0,0.1,0,0.1,0,0.2c0,0.1,0,0.2,0,0.2
			c0,0.2,0,0.3,0.1,0.5c0.1,0.1,0.2,0.3,0.3,0.4c0.1,0.1,0.3,0.2,0.5,0.3c0.2,0.1,0.4,0.1,0.6,0.1h2.3v0.7h-4.3v-0.5l0.8-0.1v0
			c-0.2-0.1-0.3-0.2-0.4-0.3c-0.1-0.1-0.2-0.3-0.3-0.4C140.5,404.4,140.5,404.2,140.5,404z M143.7,399.9c0.3,0,0.5,0.1,0.7,0.2
			c0.2,0.1,0.3,0.3,0.4,0.6c0.1,0.3,0.1,0.6,0.1,0.9c0,0.3,0,0.5-0.1,0.8c0,0.2-0.1,0.4-0.2,0.6H144c0.1-0.2,0.2-0.4,0.2-0.6
			c0.1-0.2,0.1-0.5,0.1-0.7c0-0.4-0.1-0.6-0.2-0.8c-0.1-0.2-0.3-0.2-0.5-0.2c-0.1,0-0.2,0-0.3,0.1c-0.1,0.1-0.2,0.2-0.3,0.3
			c-0.1,0.2-0.2,0.4-0.3,0.6c-0.1,0.3-0.2,0.5-0.3,0.7c-0.1,0.2-0.2,0.4-0.4,0.5c-0.1,0.1-0.3,0.2-0.6,0.2c-0.4,0-0.6-0.1-0.8-0.4
			c-0.2-0.3-0.3-0.7-0.3-1.2c0-0.3,0-0.5,0.1-0.7c0.1-0.2,0.1-0.4,0.2-0.6l0.5,0.2c-0.1,0.2-0.1,0.4-0.2,0.6
			c-0.1,0.2-0.1,0.4-0.1,0.6c0,0.3,0.1,0.5,0.2,0.7c0.1,0.2,0.2,0.2,0.4,0.2c0.1,0,0.2,0,0.3-0.1c0.1-0.1,0.2-0.2,0.2-0.4
			c0.1-0.2,0.2-0.4,0.3-0.7c0.1-0.3,0.2-0.5,0.3-0.7c0.1-0.2,0.2-0.3,0.4-0.5C143.2,399.9,143.4,399.9,143.7,399.9z"/>
		<path class="st4" d="M250.2,343h80.7v41.3h-80.7V343z"/>
		<path class="st6" d="M250.2,343h80.7v41.3h-80.7V343z"/>
		<path class="st7" d="M275,355l-1.8,6.7h-0.8l-1.3-4.5c0-0.1-0.1-0.2-0.1-0.4c0-0.1-0.1-0.3-0.1-0.4s-0.1-0.2-0.1-0.3
			c0-0.1,0-0.2,0-0.2c0,0,0,0.1,0,0.2c0,0.1,0,0.2-0.1,0.3c0,0.1,0,0.2-0.1,0.4c0,0.1-0.1,0.2-0.1,0.4l-1.3,4.5h-0.8l-1.8-6.7h0.8
			l1.1,4.2c0,0.1,0.1,0.3,0.1,0.4c0,0.1,0.1,0.3,0.1,0.4c0,0.1,0.1,0.2,0.1,0.4c0,0.1,0.1,0.2,0.1,0.3c0-0.1,0-0.2,0.1-0.4
			c0-0.1,0-0.3,0.1-0.4c0-0.1,0.1-0.3,0.1-0.4c0-0.1,0.1-0.3,0.1-0.4l1.2-4.1h0.8l1.2,4.2c0,0.1,0.1,0.3,0.1,0.4
			c0,0.1,0.1,0.3,0.1,0.4c0,0.1,0.1,0.2,0.1,0.4c0,0.1,0,0.2,0.1,0.3c0-0.1,0-0.3,0.1-0.5c0-0.2,0.1-0.3,0.1-0.5
			c0-0.2,0.1-0.4,0.1-0.6l1.1-4.2H275z M280.2,359.1c0,0.4-0.1,0.8-0.2,1.1s-0.3,0.6-0.5,0.8c-0.2,0.2-0.4,0.4-0.7,0.5
			c-0.3,0.1-0.6,0.2-1,0.2c-0.3,0-0.6-0.1-0.9-0.2c-0.3-0.1-0.5-0.3-0.7-0.5s-0.4-0.5-0.5-0.8c-0.1-0.3-0.2-0.7-0.2-1.1
			c0-0.6,0.1-1,0.3-1.4s0.5-0.7,0.8-0.9s0.8-0.3,1.2-0.3c0.4,0,0.8,0.1,1.2,0.3c0.3,0.2,0.6,0.5,0.8,0.9
			C280.1,358.1,280.2,358.6,280.2,359.1z M276.4,359.1c0,0.4,0.1,0.7,0.2,1c0.1,0.3,0.3,0.5,0.5,0.7c0.2,0.2,0.5,0.2,0.9,0.2
			c0.3,0,0.6-0.1,0.8-0.2c0.2-0.2,0.4-0.4,0.5-0.7c0.1-0.3,0.2-0.7,0.2-1c0-0.4-0.1-0.8-0.2-1c-0.1-0.3-0.3-0.5-0.5-0.7
			c-0.2-0.2-0.5-0.2-0.8-0.2c-0.5,0-0.9,0.2-1.2,0.5C276.5,358,276.4,358.5,276.4,359.1z M283.8,356.6c0.1,0,0.2,0,0.3,0
			c0.1,0,0.2,0,0.3,0l-0.1,0.7c-0.1,0-0.2,0-0.3,0c-0.1,0-0.2,0-0.3,0c-0.2,0-0.4,0-0.6,0.1c-0.2,0.1-0.3,0.2-0.5,0.3
			c-0.1,0.1-0.2,0.3-0.3,0.5c-0.1,0.2-0.1,0.4-0.1,0.7v2.7h-0.8v-5h0.6l0.1,0.9h0c0.1-0.2,0.2-0.3,0.4-0.5c0.1-0.2,0.3-0.3,0.5-0.4
			C283.3,356.6,283.6,356.6,283.8,356.6z M286.1,354.5v3.7c0,0.1,0,0.3,0,0.5c0,0.2,0,0.3,0,0.5h0c0.1-0.1,0.2-0.2,0.3-0.3
			c0.1-0.2,0.2-0.3,0.3-0.4l1.7-1.8h0.9l-2,2.1l2.2,2.9h-0.9l-1.8-2.4l-0.6,0.5v1.8h-0.7v-7.1H286.1z M293.5,360.3
			c0,0.3-0.1,0.6-0.2,0.8c-0.2,0.2-0.4,0.4-0.7,0.5c-0.3,0.1-0.6,0.2-1,0.2c-0.4,0-0.7,0-0.9-0.1c-0.2-0.1-0.5-0.1-0.7-0.2v-0.7
			c0.2,0.1,0.5,0.2,0.7,0.3c0.3,0.1,0.6,0.1,0.9,0.1c0.4,0,0.7-0.1,0.9-0.2s0.3-0.3,0.3-0.6c0-0.1,0-0.3-0.1-0.4
			c-0.1-0.1-0.2-0.2-0.4-0.3c-0.2-0.1-0.4-0.2-0.7-0.3c-0.3-0.1-0.6-0.2-0.8-0.4c-0.2-0.1-0.4-0.3-0.5-0.4c-0.1-0.2-0.2-0.4-0.2-0.7
			c0-0.4,0.2-0.8,0.5-1c0.3-0.2,0.8-0.3,1.4-0.3c0.3,0,0.6,0,0.8,0.1c0.3,0.1,0.5,0.1,0.7,0.2l-0.3,0.6c-0.2-0.1-0.4-0.2-0.7-0.2
			c-0.2-0.1-0.5-0.1-0.7-0.1c-0.3,0-0.6,0.1-0.8,0.2c-0.2,0.1-0.3,0.3-0.3,0.5c0,0.2,0,0.3,0.1,0.4c0.1,0.1,0.2,0.2,0.4,0.3
			c0.2,0.1,0.4,0.2,0.7,0.3s0.6,0.2,0.8,0.4s0.4,0.3,0.5,0.5C293.4,359.8,293.5,360,293.5,360.3z M297,356.6c0.6,0,1.1,0.2,1.5,0.6
			c0.4,0.4,0.6,1.1,0.6,1.9c0,0.6-0.1,1.1-0.3,1.4c-0.2,0.4-0.4,0.7-0.7,0.9c-0.3,0.2-0.7,0.3-1.1,0.3c-0.3,0-0.5,0-0.7-0.1
			c-0.2-0.1-0.4-0.2-0.5-0.3c-0.1-0.1-0.2-0.2-0.3-0.4h-0.1c0,0.1,0,0.3,0,0.4c0,0.2,0,0.3,0,0.4v2h-0.8v-7.2h0.6l0.1,0.7h0
			c0.1-0.2,0.2-0.3,0.3-0.4c0.1-0.1,0.3-0.2,0.5-0.3C296.5,356.6,296.7,356.6,297,356.6z M296.9,357.2c-0.4,0-0.6,0.1-0.8,0.2
			s-0.4,0.3-0.5,0.6c-0.1,0.3-0.1,0.6-0.1,1v0.1c0,0.4,0,0.8,0.1,1.1c0.1,0.3,0.2,0.5,0.5,0.7c0.2,0.2,0.5,0.2,0.9,0.2
			c0.3,0,0.6-0.1,0.8-0.2s0.4-0.4,0.5-0.7c0.1-0.3,0.2-0.6,0.2-1c0-0.6-0.1-1.1-0.3-1.4C297.7,357.4,297.4,357.2,296.9,357.2z
			 M302.2,356.6c0.6,0,1,0.1,1.3,0.4c0.3,0.3,0.4,0.7,0.4,1.3v3.4h-0.5l-0.2-0.7h0c-0.1,0.2-0.3,0.3-0.4,0.5
			c-0.1,0.1-0.3,0.2-0.5,0.3c-0.2,0.1-0.4,0.1-0.7,0.1c-0.3,0-0.6-0.1-0.8-0.2c-0.2-0.1-0.4-0.3-0.6-0.5c-0.1-0.2-0.2-0.5-0.2-0.8
			c0-0.5,0.2-0.9,0.6-1.1c0.4-0.3,1-0.4,1.8-0.4l0.9,0v-0.3c0-0.4-0.1-0.7-0.3-0.9c-0.2-0.2-0.4-0.3-0.8-0.3c-0.3,0-0.5,0-0.7,0.1
			c-0.2,0.1-0.5,0.2-0.7,0.3l-0.2-0.6c0.2-0.1,0.5-0.2,0.8-0.3C301.6,356.6,301.9,356.6,302.2,356.6z M303.2,359.2l-0.7,0
			c-0.6,0-1.1,0.1-1.3,0.3c-0.2,0.2-0.4,0.4-0.4,0.8c0,0.3,0.1,0.5,0.2,0.6c0.2,0.1,0.4,0.2,0.7,0.2c0.4,0,0.8-0.1,1.1-0.4
			c0.3-0.2,0.4-0.6,0.4-1.1V359.2z M307.6,361.7c-0.4,0-0.8-0.1-1.2-0.3s-0.6-0.5-0.8-0.8c-0.2-0.4-0.3-0.9-0.3-1.4
			c0-0.6,0.1-1.1,0.3-1.5c0.2-0.4,0.5-0.7,0.8-0.8c0.4-0.2,0.8-0.3,1.2-0.3c0.2,0,0.5,0,0.7,0.1c0.2,0,0.4,0.1,0.6,0.2l-0.2,0.6
			c-0.2-0.1-0.3-0.1-0.5-0.2c-0.2-0.1-0.4-0.1-0.6-0.1c-0.3,0-0.6,0.1-0.9,0.2c-0.2,0.1-0.4,0.4-0.5,0.7c-0.1,0.3-0.2,0.6-0.2,1
			c0,0.4,0.1,0.8,0.2,1c0.1,0.3,0.3,0.5,0.5,0.7c0.2,0.1,0.5,0.2,0.8,0.2c0.3,0,0.5,0,0.7-0.1c0.2-0.1,0.4-0.1,0.6-0.2v0.7
			c-0.2,0.1-0.4,0.1-0.6,0.2C308.1,361.7,307.8,361.7,307.6,361.7z M311.9,356.6c0.4,0,0.8,0.1,1.1,0.3s0.5,0.5,0.7,0.8
			c0.2,0.3,0.2,0.7,0.2,1.2v0.5h-3.4c0,0.6,0.2,1,0.4,1.3s0.7,0.5,1.2,0.5c0.3,0,0.6,0,0.8-0.1c0.2-0.1,0.5-0.1,0.8-0.2v0.7
			c-0.2,0.1-0.5,0.2-0.7,0.2c-0.2,0.1-0.5,0.1-0.9,0.1c-0.5,0-0.9-0.1-1.3-0.3c-0.4-0.2-0.6-0.5-0.8-0.9c-0.2-0.4-0.3-0.8-0.3-1.4
			s0.1-1,0.3-1.4c0.2-0.4,0.4-0.7,0.8-0.9C311.1,356.7,311.5,356.6,311.9,356.6z M311.9,357.2c-0.4,0-0.7,0.1-1,0.4
			c-0.2,0.3-0.4,0.6-0.4,1.1h2.6c0-0.3,0-0.6-0.1-0.8c-0.1-0.2-0.2-0.4-0.4-0.5C312.4,357.2,312.2,357.2,311.9,357.2z"/>
		<path class="st7" d="M275.1,372.6l-2.2-5.9h0c0,0.1,0,0.3,0,0.5c0,0.2,0,0.4,0,0.6c0,0.2,0,0.4,0,0.6v4.2h-0.7V366h1.2l2.1,5.5h0
			l2.1-5.5h1.1v6.7h-0.8v-4.3c0-0.2,0-0.4,0-0.6c0-0.2,0-0.4,0-0.6c0-0.2,0-0.3,0-0.5h0l-2.3,5.9H275.1z M282.3,367.6
			c0.6,0,1,0.1,1.3,0.4c0.3,0.3,0.4,0.7,0.4,1.3v3.4h-0.5l-0.2-0.7h0c-0.1,0.2-0.3,0.3-0.4,0.5c-0.1,0.1-0.3,0.2-0.5,0.3
			c-0.2,0.1-0.4,0.1-0.7,0.1c-0.3,0-0.6-0.1-0.8-0.2c-0.2-0.1-0.4-0.3-0.6-0.5c-0.1-0.2-0.2-0.5-0.2-0.8c0-0.5,0.2-0.9,0.6-1.1
			c0.4-0.3,1-0.4,1.8-0.4l0.9,0v-0.3c0-0.4-0.1-0.7-0.3-0.9c-0.2-0.2-0.4-0.3-0.8-0.3c-0.3,0-0.5,0-0.7,0.1
			c-0.2,0.1-0.5,0.2-0.7,0.3l-0.2-0.6c0.2-0.1,0.5-0.2,0.8-0.3S281.9,367.6,282.3,367.6z M283.3,370.2l-0.7,0
			c-0.6,0-1.1,0.1-1.3,0.3c-0.2,0.2-0.4,0.4-0.4,0.8c0,0.3,0.1,0.5,0.2,0.6c0.2,0.1,0.4,0.2,0.7,0.2c0.4,0,0.8-0.1,1.1-0.4
			c0.3-0.2,0.4-0.6,0.4-1.1V370.2z M287.9,367.6c0.6,0,1,0.1,1.3,0.4c0.3,0.3,0.5,0.7,0.5,1.4v3.2H289v-3.2c0-0.4-0.1-0.7-0.3-0.9
			c-0.2-0.2-0.5-0.3-0.9-0.3c-0.6,0-0.9,0.2-1.2,0.5c-0.2,0.3-0.3,0.8-0.3,1.4v2.6h-0.7v-5h0.6l0.1,0.7h0c0.1-0.2,0.2-0.3,0.4-0.4
			c0.2-0.1,0.3-0.2,0.5-0.3C287.5,367.6,287.7,367.6,287.9,367.6z M293.2,367.6c0.6,0,1,0.1,1.3,0.4c0.3,0.3,0.4,0.7,0.4,1.3v3.4
			h-0.5l-0.2-0.7h0c-0.1,0.2-0.3,0.3-0.4,0.5c-0.1,0.1-0.3,0.2-0.5,0.3c-0.2,0.1-0.4,0.1-0.7,0.1c-0.3,0-0.6-0.1-0.8-0.2
			c-0.2-0.1-0.4-0.3-0.6-0.5c-0.1-0.2-0.2-0.5-0.2-0.8c0-0.5,0.2-0.9,0.6-1.1c0.4-0.3,1-0.4,1.8-0.4l0.9,0v-0.3
			c0-0.4-0.1-0.7-0.3-0.9c-0.2-0.2-0.4-0.3-0.8-0.3c-0.3,0-0.5,0-0.7,0.1c-0.2,0.1-0.5,0.2-0.7,0.3l-0.2-0.6
			c0.2-0.1,0.5-0.2,0.8-0.3S292.8,367.6,293.2,367.6z M294.2,370.2l-0.7,0c-0.6,0-1.1,0.1-1.3,0.3c-0.2,0.2-0.4,0.4-0.4,0.8
			c0,0.3,0.1,0.5,0.2,0.6c0.2,0.1,0.4,0.2,0.7,0.2c0.4,0,0.8-0.1,1.1-0.4c0.3-0.2,0.4-0.6,0.4-1.1V370.2z M297.8,374.9
			c-0.7,0-1.2-0.1-1.5-0.4c-0.4-0.2-0.5-0.6-0.5-1c0-0.3,0.1-0.6,0.3-0.8s0.5-0.4,0.8-0.4c-0.1-0.1-0.2-0.2-0.3-0.3
			c-0.1-0.1-0.1-0.3-0.1-0.4c0-0.2,0-0.3,0.1-0.5c0.1-0.1,0.3-0.3,0.5-0.4c-0.3-0.1-0.5-0.3-0.6-0.5c-0.2-0.3-0.2-0.6-0.2-0.9
			c0-0.4,0.1-0.7,0.2-0.9c0.2-0.2,0.4-0.4,0.7-0.6c0.3-0.1,0.6-0.2,1-0.2c0.1,0,0.2,0,0.3,0c0.1,0,0.2,0,0.3,0c0.1,0,0.2,0,0.2,0
			h1.7v0.5l-0.9,0.1c0.1,0.1,0.2,0.3,0.2,0.4c0.1,0.2,0.1,0.3,0.1,0.5c0,0.5-0.2,0.9-0.5,1.2c-0.3,0.3-0.8,0.4-1.4,0.4
			c-0.1,0-0.3,0-0.4,0c-0.1,0.1-0.3,0.2-0.3,0.3c-0.1,0.1-0.1,0.2-0.1,0.3c0,0.1,0,0.2,0.1,0.2c0.1,0.1,0.2,0.1,0.3,0.1
			c0.1,0,0.2,0,0.4,0h0.9c0.5,0,1,0.1,1.2,0.3c0.3,0.2,0.4,0.6,0.4,1c0,0.6-0.2,1-0.7,1.3C299.4,374.7,298.7,374.9,297.8,374.9z
			 M297.9,374.3c0.4,0,0.7,0,1-0.1c0.3-0.1,0.5-0.2,0.6-0.4c0.1-0.2,0.2-0.3,0.2-0.5c0-0.2,0-0.3-0.1-0.5c-0.1-0.1-0.2-0.2-0.4-0.2
			c-0.2,0-0.4-0.1-0.6-0.1h-0.9c-0.2,0-0.4,0-0.6,0.1c-0.2,0.1-0.3,0.2-0.4,0.3s-0.1,0.3-0.1,0.5c0,0.3,0.1,0.5,0.3,0.6
			C297.1,374.2,297.5,374.3,297.9,374.3z M298.1,370.3c0.4,0,0.6-0.1,0.8-0.3c0.2-0.2,0.3-0.5,0.3-0.8c0-0.4-0.1-0.7-0.3-0.8
			c-0.2-0.2-0.5-0.3-0.8-0.3c-0.4,0-0.6,0.1-0.8,0.3c-0.2,0.2-0.3,0.5-0.3,0.8c0,0.3,0.1,0.6,0.3,0.8
			C297.5,370.2,297.7,370.3,298.1,370.3z M303.4,367.6c0.4,0,0.8,0.1,1.1,0.3s0.5,0.5,0.7,0.8c0.2,0.3,0.2,0.7,0.2,1.2v0.5H302
			c0,0.6,0.2,1,0.4,1.3c0.3,0.3,0.7,0.5,1.2,0.5c0.3,0,0.6,0,0.8-0.1c0.2-0.1,0.5-0.1,0.8-0.2v0.7c-0.2,0.1-0.5,0.2-0.7,0.2
			c-0.2,0.1-0.5,0.1-0.9,0.1c-0.5,0-0.9-0.1-1.3-0.3c-0.4-0.2-0.6-0.5-0.8-0.9c-0.2-0.4-0.3-0.8-0.3-1.4s0.1-1,0.3-1.4
			c0.2-0.4,0.4-0.7,0.8-0.9C302.6,367.7,303,367.6,303.4,367.6z M303.4,368.2c-0.4,0-0.7,0.1-1,0.4c-0.2,0.3-0.4,0.6-0.4,1.1h2.6
			c0-0.3,0-0.6-0.1-0.8c-0.1-0.2-0.2-0.4-0.4-0.5C303.9,368.2,303.7,368.2,303.4,368.2z M309,367.6c0.1,0,0.2,0,0.3,0
			c0.1,0,0.2,0,0.3,0l-0.1,0.7c-0.1,0-0.2,0-0.3,0c-0.1,0-0.2,0-0.3,0c-0.2,0-0.4,0-0.6,0.1c-0.2,0.1-0.3,0.2-0.5,0.3
			c-0.1,0.1-0.2,0.3-0.3,0.5c-0.1,0.2-0.1,0.4-0.1,0.7v2.7h-0.8v-5h0.6l0.1,0.9h0c0.1-0.2,0.2-0.3,0.4-0.5s0.3-0.3,0.5-0.4
			C308.6,367.6,308.8,367.6,309,367.6z"/>
		<path class="st2" d="M250.2,312.8h-20.7v50.9h20.7"/>
		<path class="st6" d="M250.2,312.8h-20.7v50.9h20.7"/>
		<path class="st4" d="M250.2,292.1h80.7v41.3h-80.7V292.1z"/>
		<path class="st6" d="M250.2,292.1h80.7v41.3h-80.7V292.1z"/>
		<path class="st7" d="M275,304.1l-1.8,6.7h-0.8l-1.3-4.5c0-0.1-0.1-0.2-0.1-0.4c0-0.1-0.1-0.3-0.1-0.4s-0.1-0.2-0.1-0.3
			c0-0.1,0-0.2,0-0.2c0,0,0,0.1,0,0.2c0,0.1,0,0.2-0.1,0.3c0,0.1,0,0.2-0.1,0.4c0,0.1-0.1,0.2-0.1,0.4l-1.3,4.5h-0.8l-1.8-6.7h0.8
			l1.1,4.2c0,0.1,0.1,0.3,0.1,0.4c0,0.1,0.1,0.3,0.1,0.4c0,0.1,0.1,0.2,0.1,0.4c0,0.1,0.1,0.2,0.1,0.3c0-0.1,0-0.2,0.1-0.4
			c0-0.1,0-0.3,0.1-0.4c0-0.1,0.1-0.3,0.1-0.4c0-0.1,0.1-0.3,0.1-0.4l1.2-4.1h0.8l1.2,4.2c0,0.1,0.1,0.3,0.1,0.4
			c0,0.1,0.1,0.3,0.1,0.4c0,0.1,0.1,0.2,0.1,0.4c0,0.1,0,0.2,0.1,0.3c0-0.1,0-0.3,0.1-0.5c0-0.2,0.1-0.3,0.1-0.5
			c0-0.2,0.1-0.4,0.1-0.6l1.1-4.2H275z M280.2,308.3c0,0.4-0.1,0.8-0.2,1.1s-0.3,0.6-0.5,0.8c-0.2,0.2-0.4,0.4-0.7,0.5
			c-0.3,0.1-0.6,0.2-1,0.2c-0.3,0-0.6-0.1-0.9-0.2c-0.3-0.1-0.5-0.3-0.7-0.5s-0.4-0.5-0.5-0.8c-0.1-0.3-0.2-0.7-0.2-1.1
			c0-0.6,0.1-1,0.3-1.4s0.5-0.7,0.8-0.9s0.8-0.3,1.2-0.3c0.4,0,0.8,0.1,1.2,0.3c0.3,0.2,0.6,0.5,0.8,0.9
			C280.1,307.3,280.2,307.7,280.2,308.3z M276.4,308.3c0,0.4,0.1,0.7,0.2,1c0.1,0.3,0.3,0.5,0.5,0.7c0.2,0.2,0.5,0.2,0.9,0.2
			c0.3,0,0.6-0.1,0.8-0.2c0.2-0.2,0.4-0.4,0.5-0.7c0.1-0.3,0.2-0.7,0.2-1c0-0.4-0.1-0.8-0.2-1c-0.1-0.3-0.3-0.5-0.5-0.7
			c-0.2-0.2-0.5-0.2-0.8-0.2c-0.5,0-0.9,0.2-1.2,0.5C276.5,307.2,276.4,307.7,276.4,308.3z M283.8,305.7c0.1,0,0.2,0,0.3,0
			c0.1,0,0.2,0,0.3,0l-0.1,0.7c-0.1,0-0.2,0-0.3,0c-0.1,0-0.2,0-0.3,0c-0.2,0-0.4,0-0.6,0.1c-0.2,0.1-0.3,0.2-0.5,0.3
			c-0.1,0.1-0.2,0.3-0.3,0.5c-0.1,0.2-0.1,0.4-0.1,0.7v2.7h-0.8v-5h0.6l0.1,0.9h0c0.1-0.2,0.2-0.3,0.4-0.5c0.1-0.2,0.3-0.3,0.5-0.4
			C283.3,305.7,283.6,305.7,283.8,305.7z M286.1,303.7v3.7c0,0.1,0,0.3,0,0.5c0,0.2,0,0.3,0,0.5h0c0.1-0.1,0.2-0.2,0.3-0.3
			c0.1-0.2,0.2-0.3,0.3-0.4l1.7-1.8h0.9l-2,2.1l2.2,2.9h-0.9l-1.8-2.4l-0.6,0.5v1.8h-0.7v-7.1H286.1z M293.5,309.4
			c0,0.3-0.1,0.6-0.2,0.8c-0.2,0.2-0.4,0.4-0.7,0.5c-0.3,0.1-0.6,0.2-1,0.2c-0.4,0-0.7,0-0.9-0.1c-0.2-0.1-0.5-0.1-0.7-0.2v-0.7
			c0.2,0.1,0.5,0.2,0.7,0.3c0.3,0.1,0.6,0.1,0.9,0.1c0.4,0,0.7-0.1,0.9-0.2s0.3-0.3,0.3-0.6c0-0.1,0-0.3-0.1-0.4
			c-0.1-0.1-0.2-0.2-0.4-0.3c-0.2-0.1-0.4-0.2-0.7-0.3c-0.3-0.1-0.6-0.2-0.8-0.4c-0.2-0.1-0.4-0.3-0.5-0.4c-0.1-0.2-0.2-0.4-0.2-0.7
			c0-0.4,0.2-0.8,0.5-1c0.3-0.2,0.8-0.3,1.4-0.3c0.3,0,0.6,0,0.8,0.1c0.3,0.1,0.5,0.1,0.7,0.2l-0.3,0.6c-0.2-0.1-0.4-0.2-0.7-0.2
			c-0.2-0.1-0.5-0.1-0.7-0.1c-0.3,0-0.6,0.1-0.8,0.2c-0.2,0.1-0.3,0.3-0.3,0.5c0,0.2,0,0.3,0.1,0.4c0.1,0.1,0.2,0.2,0.4,0.3
			c0.2,0.1,0.4,0.2,0.7,0.3s0.6,0.2,0.8,0.4s0.4,0.3,0.5,0.5C293.4,308.9,293.5,309.1,293.5,309.4z M297,305.7
			c0.6,0,1.1,0.2,1.5,0.6c0.4,0.4,0.6,1.1,0.6,1.9c0,0.6-0.1,1.1-0.3,1.4c-0.2,0.4-0.4,0.7-0.7,0.9c-0.3,0.2-0.7,0.3-1.1,0.3
			c-0.3,0-0.5,0-0.7-0.1c-0.2-0.1-0.4-0.2-0.5-0.3c-0.1-0.1-0.2-0.2-0.3-0.4h-0.1c0,0.1,0,0.3,0,0.4c0,0.2,0,0.3,0,0.4v2h-0.8v-7.2
			h0.6l0.1,0.7h0c0.1-0.2,0.2-0.3,0.3-0.4c0.1-0.1,0.3-0.2,0.5-0.3C296.5,305.7,296.7,305.7,297,305.7z M296.9,306.3
			c-0.4,0-0.6,0.1-0.8,0.2s-0.4,0.3-0.5,0.6c-0.1,0.3-0.1,0.6-0.1,1v0.1c0,0.4,0,0.8,0.1,1.1c0.1,0.3,0.2,0.5,0.5,0.7
			c0.2,0.2,0.5,0.2,0.9,0.2c0.3,0,0.6-0.1,0.8-0.2s0.4-0.4,0.5-0.7c0.1-0.3,0.2-0.6,0.2-1c0-0.6-0.1-1.1-0.3-1.4
			C297.7,306.5,297.4,306.3,296.9,306.3z M302.2,305.7c0.6,0,1,0.1,1.3,0.4c0.3,0.3,0.4,0.7,0.4,1.3v3.4h-0.5l-0.2-0.7h0
			c-0.1,0.2-0.3,0.3-0.4,0.5c-0.1,0.1-0.3,0.2-0.5,0.3c-0.2,0.1-0.4,0.1-0.7,0.1c-0.3,0-0.6-0.1-0.8-0.2c-0.2-0.1-0.4-0.3-0.6-0.5
			c-0.1-0.2-0.2-0.5-0.2-0.8c0-0.5,0.2-0.9,0.6-1.1c0.4-0.3,1-0.4,1.8-0.4l0.9,0v-0.3c0-0.4-0.1-0.7-0.3-0.9
			c-0.2-0.2-0.4-0.3-0.8-0.3c-0.3,0-0.5,0-0.7,0.1c-0.2,0.1-0.5,0.2-0.7,0.3l-0.2-0.6c0.2-0.1,0.5-0.2,0.8-0.3
			C301.6,305.7,301.9,305.7,302.2,305.7z M303.2,308.3l-0.7,0c-0.6,0-1.1,0.1-1.3,0.3c-0.2,0.2-0.4,0.4-0.4,0.8
			c0,0.3,0.1,0.5,0.2,0.6c0.2,0.1,0.4,0.2,0.7,0.2c0.4,0,0.8-0.1,1.1-0.4c0.3-0.2,0.4-0.6,0.4-1.1V308.3z M307.6,310.9
			c-0.4,0-0.8-0.1-1.2-0.3s-0.6-0.5-0.8-0.8c-0.2-0.4-0.3-0.9-0.3-1.4c0-0.6,0.1-1.1,0.3-1.5c0.2-0.4,0.5-0.7,0.8-0.8
			c0.4-0.2,0.8-0.3,1.2-0.3c0.2,0,0.5,0,0.7,0.1c0.2,0,0.4,0.1,0.6,0.2l-0.2,0.6c-0.2-0.1-0.3-0.1-0.5-0.2c-0.2-0.1-0.4-0.1-0.6-0.1
			c-0.3,0-0.6,0.1-0.9,0.2c-0.2,0.1-0.4,0.4-0.5,0.7c-0.1,0.3-0.2,0.6-0.2,1c0,0.4,0.1,0.8,0.2,1c0.1,0.3,0.3,0.5,0.5,0.7
			c0.2,0.1,0.5,0.2,0.8,0.2c0.3,0,0.5,0,0.7-0.1c0.2-0.1,0.4-0.1,0.6-0.2v0.7c-0.2,0.1-0.4,0.1-0.6,0.2
			C308.1,310.8,307.8,310.9,307.6,310.9z M311.9,305.7c0.4,0,0.8,0.1,1.1,0.3s0.5,0.5,0.7,0.8c0.2,0.3,0.2,0.7,0.2,1.2v0.5h-3.4
			c0,0.6,0.2,1,0.4,1.3s0.7,0.5,1.2,0.5c0.3,0,0.6,0,0.8-0.1c0.2-0.1,0.5-0.1,0.8-0.2v0.7c-0.2,0.1-0.5,0.2-0.7,0.2
			c-0.2,0.1-0.5,0.1-0.9,0.1c-0.5,0-0.9-0.1-1.3-0.3c-0.4-0.2-0.6-0.5-0.8-0.9c-0.2-0.4-0.3-0.8-0.3-1.4s0.1-1,0.3-1.4
			c0.2-0.4,0.4-0.7,0.8-0.9C311.1,305.8,311.5,305.7,311.9,305.7z M311.9,306.3c-0.4,0-0.7,0.1-1,0.4c-0.2,0.3-0.4,0.6-0.4,1.1h2.6
			c0-0.3,0-0.6-0.1-0.8c-0.1-0.2-0.2-0.4-0.4-0.5C312.4,306.4,312.2,306.3,311.9,306.3z"/>
		<path class="st7" d="M265.5,321.8l-0.8-2.1H262l-0.8,2.1h-0.8l2.6-6.7h0.7l2.6,6.7H265.5z M264.5,319l-0.8-2.1
			c0-0.1,0-0.1-0.1-0.3c0-0.1-0.1-0.2-0.1-0.4c0-0.1-0.1-0.2-0.1-0.3c0,0.1-0.1,0.2-0.1,0.4c0,0.1-0.1,0.2-0.1,0.3s-0.1,0.2-0.1,0.3
			l-0.8,2.1H264.5z M268.9,321.9c-0.6,0-1.1-0.2-1.5-0.6c-0.4-0.4-0.5-1.1-0.5-1.9s0.2-1.5,0.6-1.9c0.4-0.4,0.9-0.7,1.5-0.7
			c0.3,0,0.5,0,0.7,0.1c0.2,0.1,0.4,0.2,0.5,0.3c0.1,0.1,0.3,0.2,0.4,0.4h0c0-0.1,0-0.2,0-0.4c0-0.2,0-0.3,0-0.4v-2h0.7v7.1h-0.6
			l-0.1-0.7h0c-0.1,0.1-0.2,0.3-0.4,0.4c-0.1,0.1-0.3,0.2-0.5,0.3S269.2,321.9,268.9,321.9z M269,321.2c0.5,0,0.9-0.2,1.1-0.5
			c0.2-0.3,0.3-0.8,0.3-1.4v-0.1c0-0.6-0.1-1.1-0.3-1.5c-0.2-0.3-0.6-0.5-1.2-0.5c-0.5,0-0.8,0.2-1,0.5c-0.2,0.4-0.3,0.8-0.3,1.5
			c0,0.6,0.1,1.1,0.3,1.4C268.2,321.1,268.5,321.2,269,321.2z M278.2,316.7c0.6,0,1,0.1,1.2,0.4c0.3,0.3,0.4,0.7,0.4,1.4v3.3h-0.7
			v-3.2c0-0.4-0.1-0.7-0.3-0.9c-0.2-0.2-0.4-0.3-0.8-0.3c-0.5,0-0.8,0.1-1,0.4c-0.2,0.3-0.3,0.7-0.3,1.2v2.8H276v-3.2
			c0-0.3,0-0.5-0.1-0.7c-0.1-0.2-0.2-0.3-0.3-0.4s-0.3-0.1-0.6-0.1c-0.3,0-0.6,0.1-0.8,0.2c-0.2,0.1-0.3,0.3-0.4,0.6
			c-0.1,0.3-0.1,0.6-0.1,1v2.6h-0.7v-5h0.6l0.1,0.7h0c0.1-0.2,0.2-0.3,0.4-0.4c0.2-0.1,0.3-0.2,0.5-0.3c0.2-0.1,0.4-0.1,0.6-0.1
			c0.4,0,0.7,0.1,1,0.2c0.3,0.1,0.4,0.3,0.6,0.6h0c0.2-0.3,0.4-0.5,0.7-0.6C277.6,316.8,277.9,316.7,278.2,316.7z M282.2,316.8v5
			h-0.7v-5H282.2z M281.8,314.9c0.1,0,0.2,0,0.3,0.1c0.1,0.1,0.1,0.2,0.1,0.4c0,0.2,0,0.3-0.1,0.4c-0.1,0.1-0.2,0.1-0.3,0.1
			c-0.1,0-0.2,0-0.3-0.1c-0.1-0.1-0.1-0.2-0.1-0.4c0-0.2,0-0.3,0.1-0.4C281.6,315,281.7,314.9,281.8,314.9z M286.2,316.7
			c0.6,0,1,0.1,1.3,0.4c0.3,0.3,0.5,0.7,0.5,1.4v3.2h-0.7v-3.2c0-0.4-0.1-0.7-0.3-0.9c-0.2-0.2-0.5-0.3-0.9-0.3
			c-0.6,0-0.9,0.2-1.2,0.5c-0.2,0.3-0.3,0.8-0.3,1.4v2.6h-0.7v-5h0.6l0.1,0.7h0c0.1-0.2,0.2-0.3,0.4-0.4c0.2-0.1,0.3-0.2,0.5-0.3
			C285.7,316.7,285.9,316.7,286.2,316.7z M290.3,316.8v5h-0.7v-5H290.3z M289.9,314.9c0.1,0,0.2,0,0.3,0.1c0.1,0.1,0.1,0.2,0.1,0.4
			c0,0.2,0,0.3-0.1,0.4c-0.1,0.1-0.2,0.1-0.3,0.1c-0.1,0-0.2,0-0.3-0.1s-0.1-0.2-0.1-0.4c0-0.2,0-0.3,0.1-0.4
			C289.7,315,289.8,314.9,289.9,314.9z M295.1,320.4c0,0.3-0.1,0.6-0.2,0.8c-0.2,0.2-0.4,0.4-0.7,0.5c-0.3,0.1-0.6,0.2-1,0.2
			c-0.4,0-0.7,0-0.9-0.1c-0.2-0.1-0.5-0.1-0.7-0.2v-0.7c0.2,0.1,0.5,0.2,0.7,0.3c0.3,0.1,0.6,0.1,0.9,0.1c0.4,0,0.7-0.1,0.9-0.2
			s0.3-0.3,0.3-0.6c0-0.1,0-0.3-0.1-0.4c-0.1-0.1-0.2-0.2-0.4-0.3c-0.2-0.1-0.4-0.2-0.7-0.3c-0.3-0.1-0.6-0.2-0.8-0.4
			c-0.2-0.1-0.4-0.3-0.5-0.4c-0.1-0.2-0.2-0.4-0.2-0.7c0-0.4,0.2-0.8,0.5-1c0.3-0.2,0.8-0.3,1.4-0.3c0.3,0,0.6,0,0.8,0.1
			c0.3,0.1,0.5,0.1,0.7,0.2l-0.3,0.6c-0.2-0.1-0.4-0.2-0.7-0.2c-0.2-0.1-0.5-0.1-0.7-0.1c-0.3,0-0.6,0.1-0.8,0.2s-0.3,0.3-0.3,0.5
			c0,0.2,0,0.3,0.1,0.4c0.1,0.1,0.2,0.2,0.4,0.3c0.2,0.1,0.4,0.2,0.7,0.3c0.3,0.1,0.6,0.2,0.8,0.4c0.2,0.1,0.4,0.3,0.5,0.5
			C295,319.9,295.1,320.1,295.1,320.4z M297.9,321.2c0.1,0,0.2,0,0.4,0c0.1,0,0.2,0,0.3-0.1v0.6c-0.1,0-0.2,0.1-0.4,0.1
			c-0.2,0-0.3,0-0.5,0c-0.3,0-0.5,0-0.7-0.1c-0.2-0.1-0.4-0.2-0.5-0.5c-0.1-0.2-0.2-0.5-0.2-0.9v-3h-0.7V317l0.7-0.3l0.3-1.1h0.5
			v1.2h1.5v0.6h-1.5v2.9c0,0.3,0.1,0.5,0.2,0.7S297.7,321.2,297.9,321.2z M301.9,316.7c0.1,0,0.2,0,0.3,0c0.1,0,0.2,0,0.3,0
			l-0.1,0.7c-0.1,0-0.2,0-0.3,0c-0.1,0-0.2,0-0.3,0c-0.2,0-0.4,0-0.6,0.1c-0.2,0.1-0.3,0.2-0.5,0.3c-0.1,0.1-0.2,0.3-0.3,0.5
			c-0.1,0.2-0.1,0.4-0.1,0.7v2.7h-0.8v-5h0.6l0.1,0.9h0c0.1-0.2,0.2-0.3,0.4-0.5s0.3-0.3,0.5-0.4
			C301.4,316.7,301.6,316.7,301.9,316.7z M305.3,316.7c0.6,0,1,0.1,1.3,0.4c0.3,0.3,0.4,0.7,0.4,1.3v3.4h-0.5l-0.2-0.7h0
			c-0.1,0.2-0.3,0.3-0.4,0.5c-0.1,0.1-0.3,0.2-0.5,0.3c-0.2,0.1-0.4,0.1-0.7,0.1c-0.3,0-0.6-0.1-0.8-0.2c-0.2-0.1-0.4-0.3-0.6-0.5
			c-0.1-0.2-0.2-0.5-0.2-0.8c0-0.5,0.2-0.9,0.6-1.1c0.4-0.3,1-0.4,1.8-0.4l0.9,0v-0.3c0-0.4-0.1-0.7-0.3-0.9s-0.4-0.3-0.8-0.3
			c-0.3,0-0.5,0-0.7,0.1c-0.2,0.1-0.5,0.2-0.7,0.3l-0.2-0.6c0.2-0.1,0.5-0.2,0.8-0.3C304.7,316.7,305,316.7,305.3,316.7z
			 M306.3,319.3l-0.7,0c-0.6,0-1.1,0.1-1.3,0.3c-0.2,0.2-0.4,0.4-0.4,0.8c0,0.3,0.1,0.5,0.2,0.6c0.2,0.1,0.4,0.2,0.7,0.2
			c0.4,0,0.8-0.1,1.1-0.4c0.3-0.2,0.4-0.6,0.4-1.1V319.3z M310.2,321.2c0.1,0,0.2,0,0.4,0c0.1,0,0.2,0,0.3-0.1v0.6
			c-0.1,0-0.2,0.1-0.4,0.1c-0.2,0-0.3,0-0.5,0c-0.3,0-0.5,0-0.7-0.1c-0.2-0.1-0.4-0.2-0.5-0.5c-0.1-0.2-0.2-0.5-0.2-0.9v-3H308V317
			l0.7-0.3l0.3-1.1h0.5v1.2h1.5v0.6h-1.5v2.9c0,0.3,0.1,0.5,0.2,0.7C309.8,321.2,310,321.2,310.2,321.2z M316.2,319.3
			c0,0.4-0.1,0.8-0.2,1.1c-0.1,0.3-0.3,0.6-0.5,0.8s-0.4,0.4-0.7,0.5c-0.3,0.1-0.6,0.2-1,0.2c-0.3,0-0.6-0.1-0.9-0.2
			c-0.3-0.1-0.5-0.3-0.7-0.5c-0.2-0.2-0.4-0.5-0.5-0.8s-0.2-0.7-0.2-1.1c0-0.6,0.1-1,0.3-1.4c0.2-0.4,0.5-0.7,0.8-0.9
			c0.3-0.2,0.8-0.3,1.2-0.3c0.4,0,0.8,0.1,1.2,0.3c0.3,0.2,0.6,0.5,0.8,0.9C316.1,318.3,316.2,318.7,316.2,319.3z M312.4,319.3
			c0,0.4,0.1,0.7,0.2,1c0.1,0.3,0.3,0.5,0.5,0.7c0.2,0.2,0.5,0.2,0.9,0.2c0.3,0,0.6-0.1,0.8-0.2c0.2-0.2,0.4-0.4,0.5-0.7
			c0.1-0.3,0.2-0.7,0.2-1c0-0.4-0.1-0.8-0.2-1c-0.1-0.3-0.3-0.5-0.5-0.7c-0.2-0.2-0.5-0.2-0.8-0.2c-0.5,0-0.9,0.2-1.2,0.5
			C312.6,318.2,312.4,318.7,312.4,319.3z M319.8,316.7c0.1,0,0.2,0,0.3,0c0.1,0,0.2,0,0.3,0l-0.1,0.7c-0.1,0-0.2,0-0.3,0
			c-0.1,0-0.2,0-0.3,0c-0.2,0-0.4,0-0.6,0.1c-0.2,0.1-0.3,0.2-0.5,0.3c-0.1,0.1-0.2,0.3-0.3,0.5c-0.1,0.2-0.1,0.4-0.1,0.7v2.7h-0.8
			v-5h0.6l0.1,0.9h0c0.1-0.2,0.2-0.3,0.4-0.5s0.3-0.3,0.5-0.4C319.3,316.7,319.6,316.7,319.8,316.7z"/>
		<path class="st4" d="M234.2,333.3v-40.9h15.9v40.9H234.2z"/>
		<path class="st6" d="M234.2,333.3v-40.9h15.9v40.9H234.2z"/>
		<path class="st7" d="M242,321.5c0.4,0,0.8,0.1,1.2,0.2c0.4,0.1,0.7,0.3,0.9,0.5c0.3,0.2,0.5,0.5,0.6,0.8c0.1,0.3,0.2,0.7,0.2,1.1
			c0,0.4-0.1,0.8-0.2,1.2c-0.1,0.3-0.3,0.6-0.6,0.8c-0.3,0.2-0.6,0.4-0.9,0.5c-0.4,0.1-0.8,0.2-1.2,0.2c-0.6,0-1.1-0.1-1.5-0.3
			c-0.4-0.2-0.8-0.5-1-0.9c-0.2-0.4-0.4-0.9-0.4-1.5c0-0.6,0.1-1.1,0.4-1.4c0.2-0.4,0.6-0.7,1-0.9
			C240.9,321.6,241.4,321.5,242,321.5z M242,326.1c0.5,0,0.9-0.1,1.2-0.2c0.4-0.1,0.6-0.4,0.8-0.6c0.2-0.3,0.3-0.6,0.3-1.1
			c0-0.4-0.1-0.8-0.3-1.1c-0.2-0.3-0.5-0.5-0.8-0.6c-0.4-0.1-0.8-0.2-1.2-0.2c-0.7,0-1.3,0.2-1.7,0.5c-0.4,0.3-0.6,0.8-0.6,1.4
			c0,0.4,0.1,0.8,0.3,1.1c0.2,0.3,0.5,0.5,0.8,0.6C241.1,326,241.5,326.1,242,326.1z M244.8,316.9l-2.5,0.8c-0.1,0-0.2,0.1-0.3,0.1
			c-0.1,0-0.2,0.1-0.3,0.1c-0.1,0-0.2,0-0.3,0.1c-0.1,0-0.2,0-0.2,0v0c0.1,0,0.1,0,0.2,0c0.1,0,0.2,0,0.3,0.1c0.1,0,0.2,0,0.3,0.1
			c0.1,0,0.2,0.1,0.3,0.1l2.5,0.8v0.7l-4.3,1.2v-0.7l2.4-0.6c0.2,0,0.3-0.1,0.5-0.1c0.1,0,0.3-0.1,0.4-0.1c0.1,0,0.2-0.1,0.3-0.1v0
			c-0.1,0-0.1,0-0.2-0.1c-0.1,0-0.2,0-0.3-0.1c-0.1,0-0.2,0-0.3-0.1c-0.1,0-0.2-0.1-0.3-0.1l-2.5-0.8v-0.7l2.5-0.8
			c0.1,0,0.3-0.1,0.4-0.1c0.1,0,0.3-0.1,0.4-0.1c0.1,0,0.2-0.1,0.3-0.1v0c-0.1,0-0.2,0-0.3,0c-0.1,0-0.3-0.1-0.4-0.1
			c-0.2,0-0.3-0.1-0.5-0.1l-2.4-0.6v-0.7l4.3,1.2V316.9z M240.5,312.1c0-0.5,0.1-0.9,0.4-1.1c0.2-0.3,0.6-0.4,1.2-0.4h2.8v0.6h-2.7
			c-0.4,0-0.6,0.1-0.8,0.2c-0.2,0.2-0.3,0.4-0.3,0.7c0,0.5,0.1,0.8,0.4,1c0.3,0.2,0.6,0.3,1.2,0.3h2.2v0.6h-4.3v-0.5l0.6-0.1v0
			c-0.1-0.1-0.3-0.2-0.4-0.3c-0.1-0.1-0.2-0.3-0.2-0.5C240.5,312.5,240.5,312.3,240.5,312.1z M240.5,307.6c0-0.4,0.1-0.7,0.2-0.9
			c0.2-0.3,0.4-0.5,0.7-0.6c0.3-0.1,0.6-0.2,1-0.2h0.4v3c0.5,0,0.9-0.1,1.1-0.4c0.3-0.2,0.4-0.6,0.4-1c0-0.3,0-0.5-0.1-0.7
			c-0.1-0.2-0.1-0.4-0.2-0.7h0.6c0.1,0.2,0.2,0.4,0.2,0.7c0.1,0.2,0.1,0.5,0.1,0.8c0,0.4-0.1,0.8-0.2,1.1c-0.2,0.3-0.4,0.5-0.7,0.7
			c-0.3,0.2-0.7,0.2-1.2,0.2c-0.5,0-0.9-0.1-1.2-0.2c-0.3-0.2-0.6-0.4-0.8-0.7C240.6,308.3,240.5,308,240.5,307.6z M241,307.6
			c0,0.3,0.1,0.6,0.3,0.8c0.2,0.2,0.5,0.3,0.9,0.4v-2.3c-0.2,0-0.5,0-0.7,0.1c-0.2,0.1-0.3,0.2-0.5,0.3
			C241.1,307.2,241,307.4,241,307.6z M240.5,302.8c0-0.1,0-0.2,0-0.3c0-0.1,0-0.2,0-0.2l0.6,0.1c0,0.1,0,0.1,0,0.2
			c0,0.1,0,0.2,0,0.2c0,0.2,0,0.3,0.1,0.5c0.1,0.1,0.2,0.3,0.3,0.4c0.1,0.1,0.3,0.2,0.5,0.3c0.2,0.1,0.4,0.1,0.6,0.1h2.3v0.7h-4.3
			v-0.5l0.8-0.1v0c-0.2-0.1-0.3-0.2-0.4-0.3c-0.1-0.1-0.2-0.3-0.3-0.4C240.5,303.2,240.5,303,240.5,302.8z M243.7,298.7
			c0.3,0,0.5,0.1,0.7,0.2c0.2,0.1,0.3,0.3,0.4,0.6c0.1,0.2,0.1,0.6,0.1,0.9c0,0.3,0,0.5-0.1,0.8c0,0.2-0.1,0.4-0.2,0.6h-0.6
			c0.1-0.2,0.2-0.4,0.2-0.6c0.1-0.2,0.1-0.5,0.1-0.7c0-0.4-0.1-0.6-0.2-0.8c-0.1-0.2-0.3-0.2-0.5-0.2c-0.1,0-0.2,0-0.3,0.1
			c-0.1,0.1-0.2,0.2-0.3,0.3c-0.1,0.2-0.2,0.4-0.3,0.6c-0.1,0.3-0.2,0.5-0.3,0.7c-0.1,0.2-0.2,0.4-0.4,0.5c-0.1,0.1-0.3,0.2-0.6,0.2
			c-0.4,0-0.6-0.1-0.8-0.4c-0.2-0.3-0.3-0.7-0.3-1.2c0-0.3,0-0.5,0.1-0.7c0.1-0.2,0.1-0.4,0.2-0.6l0.5,0.2c-0.1,0.2-0.1,0.4-0.2,0.6
			c-0.1,0.2-0.1,0.4-0.1,0.6c0,0.3,0.1,0.5,0.2,0.7c0.1,0.2,0.2,0.2,0.4,0.2c0.1,0,0.2,0,0.3-0.1c0.1-0.1,0.2-0.2,0.2-0.4
			c0.1-0.2,0.2-0.4,0.3-0.7c0.1-0.3,0.2-0.5,0.3-0.7c0.1-0.2,0.2-0.3,0.4-0.5C243.3,298.8,243.4,298.7,243.7,298.7z"/>
		<path class="st4" d="M249.7,265L249.7,265c0-2,1.6-3.6,3.6-3.6h7.1l0,0h16.1h34c1,0,1.9,0.4,2.6,1.1c0.7,0.7,1.1,1.6,1.1,2.6v9.1
			l0,0v5.4l0,0c0,2-1.6,3.6-3.6,3.6h-34l-4.2,11.4l-12-11.4h-7.1c-2,0-3.6-1.6-3.6-3.6l0,0v-5.4l0,0V265z"/>
		<path class="st6" d="M249.7,265L249.7,265c0-2,1.6-3.6,3.6-3.6h7.1l0,0h16.1h34c1,0,1.9,0.4,2.6,1.1c0.7,0.7,1.1,1.6,1.1,2.6v9.1
			l0,0v5.4l0,0c0,2-1.6,3.6-3.6,3.6h-34l-4.2,11.4l-12-11.4h-7.1c-2,0-3.6-1.6-3.6-3.6l0,0v-5.4l0,0V265z"/>
		<path class="st3" d="M260.6,274.9l1.2-5.7h2.9l-0.1,0.6h-2.2l-0.4,2.1h2.1l-0.1,0.6h-2.1l-0.5,2.4H260.6z M265.6,275
			c-0.2,0-0.4,0-0.6-0.1c-0.2-0.1-0.3-0.2-0.4-0.4c-0.1-0.2-0.1-0.3-0.1-0.6c0-0.1,0-0.2,0-0.3c0-0.1,0-0.2,0.1-0.3l0.6-2.6h0.7
			l-0.6,2.7c0,0.1,0,0.2-0.1,0.3c0,0.1,0,0.2,0,0.2c0,0.2,0,0.3,0.1,0.4c0.1,0.1,0.3,0.1,0.5,0.1c0.2,0,0.4-0.1,0.6-0.2
			c0.2-0.1,0.4-0.3,0.6-0.6c0.2-0.3,0.3-0.7,0.4-1.1l0.4-1.9h0.6l-0.9,4.3H267l0.1-0.8h0c-0.1,0.1-0.2,0.3-0.4,0.4
			c-0.1,0.1-0.3,0.2-0.5,0.3C266.1,275,265.9,275,265.6,275z M270.2,275c-0.3,0-0.5-0.1-0.7-0.2c-0.2-0.1-0.3-0.4-0.3-0.7
			c0-0.1,0-0.2,0-0.3c0-0.1,0-0.2,0-0.3l0.5-2.4h-0.7l0.1-0.3l0.7-0.3l0.5-0.9h0.4l-0.2,1h1.1l-0.1,0.5h-1.1l-0.5,2.4
			c0,0.1,0,0.2,0,0.2c0,0.1,0,0.2,0,0.2c0,0.1,0,0.2,0.1,0.3c0.1,0.1,0.2,0.1,0.3,0.1c0.1,0,0.2,0,0.3,0c0.1,0,0.2,0,0.3-0.1v0.5
			c-0.1,0-0.2,0.1-0.3,0.1C270.4,275,270.3,275,270.2,275z M272.9,275c-0.2,0-0.4,0-0.6-0.1c-0.2-0.1-0.3-0.2-0.4-0.4
			c-0.1-0.2-0.1-0.3-0.1-0.6c0-0.1,0-0.2,0-0.3c0-0.1,0-0.2,0.1-0.3l0.6-2.6h0.7l-0.6,2.7c0,0.1,0,0.2-0.1,0.3c0,0.1,0,0.2,0,0.2
			c0,0.2,0,0.3,0.1,0.4c0.1,0.1,0.3,0.1,0.5,0.1c0.2,0,0.4-0.1,0.6-0.2c0.2-0.1,0.4-0.3,0.6-0.6c0.2-0.3,0.3-0.7,0.4-1.1l0.4-1.9
			h0.6l-0.9,4.3h-0.5l0.1-0.8h0c-0.1,0.1-0.2,0.3-0.4,0.4c-0.1,0.1-0.3,0.2-0.5,0.3C273.3,275,273.1,275,272.9,275z M276.2,274.9
			l0.9-4.3h0.5l-0.1,0.8h0c0.1-0.1,0.2-0.3,0.3-0.4c0.1-0.1,0.3-0.3,0.4-0.3c0.2-0.1,0.4-0.1,0.6-0.1c0.1,0,0.2,0,0.2,0
			c0.1,0,0.2,0,0.2,0l-0.1,0.6c-0.1,0-0.1,0-0.2,0c-0.1,0-0.1,0-0.2,0c-0.2,0-0.4,0.1-0.6,0.2c-0.2,0.1-0.3,0.2-0.5,0.4
			c-0.1,0.2-0.2,0.4-0.3,0.6c-0.1,0.2-0.2,0.4-0.2,0.6l-0.4,2H276.2z M281.1,275c-0.3,0-0.6-0.1-0.8-0.2c-0.2-0.1-0.4-0.3-0.5-0.6
			c-0.1-0.2-0.2-0.5-0.2-0.9c0-0.4,0.1-0.7,0.2-1c0.1-0.3,0.2-0.6,0.4-0.9c0.2-0.3,0.4-0.5,0.7-0.6c0.3-0.2,0.6-0.2,0.9-0.2
			c0.4,0,0.7,0.1,0.9,0.3c0.2,0.2,0.3,0.4,0.3,0.7c0,0.2-0.1,0.4-0.2,0.6c-0.1,0.2-0.3,0.3-0.5,0.5c-0.2,0.1-0.5,0.2-0.8,0.3
			c-0.3,0.1-0.7,0.1-1.1,0.1h-0.1c0,0,0,0.1,0,0.2c0,0.1,0,0.1,0,0.2c0,0.3,0.1,0.6,0.2,0.8c0.2,0.2,0.4,0.3,0.7,0.3
			c0.2,0,0.4,0,0.6-0.1c0.2-0.1,0.4-0.1,0.6-0.2v0.6c-0.2,0.1-0.4,0.2-0.6,0.2C281.6,275,281.3,275,281.1,275z M280.3,272.5
			L280.3,272.5c0.4,0,0.7,0,1-0.1c0.3-0.1,0.5-0.2,0.7-0.3c0.2-0.1,0.3-0.3,0.3-0.5c0-0.1-0.1-0.3-0.2-0.4c-0.1-0.1-0.2-0.1-0.5-0.1
			c-0.2,0-0.4,0.1-0.5,0.2c-0.2,0.1-0.3,0.3-0.5,0.5C280.5,272,280.4,272.2,280.3,272.5z M285.5,274.9l1.2-5.7h1.2
			c0.6,0,1,0.1,1.3,0.4c0.3,0.2,0.4,0.6,0.4,1.1c0,0.3-0.1,0.5-0.2,0.8c-0.1,0.2-0.2,0.4-0.5,0.6c-0.2,0.2-0.5,0.3-0.8,0.4l0.9,2.5
			h-0.7l-0.8-2.4h-1l-0.5,2.4H285.5z M286.8,272h0.7c0.3,0,0.5,0,0.7-0.1c0.2-0.1,0.4-0.2,0.5-0.3c0.1-0.1,0.2-0.2,0.3-0.4
			s0.1-0.3,0.1-0.5c0-0.3-0.1-0.6-0.3-0.7c-0.2-0.1-0.5-0.2-0.8-0.2h-0.6L286.8,272z M291.7,275c-0.3,0-0.6-0.1-0.8-0.2
			c-0.2-0.1-0.4-0.3-0.5-0.6c-0.1-0.2-0.2-0.5-0.2-0.9c0-0.3,0-0.5,0.1-0.8c0.1-0.3,0.2-0.5,0.3-0.8c0.1-0.2,0.3-0.4,0.4-0.6
			c0.2-0.2,0.4-0.3,0.6-0.4c0.2-0.1,0.5-0.2,0.8-0.2c0.3,0,0.6,0.1,0.8,0.2c0.2,0.1,0.4,0.3,0.5,0.6c0.1,0.2,0.2,0.5,0.2,0.9
			c0,0.3,0,0.5-0.1,0.8c-0.1,0.3-0.1,0.5-0.2,0.8c-0.1,0.2-0.3,0.4-0.4,0.6c-0.2,0.2-0.4,0.3-0.6,0.4C292.3,274.9,292,275,291.7,275
			z M291.8,274.4c0.2,0,0.3,0,0.5-0.1c0.1-0.1,0.3-0.2,0.4-0.3c0.1-0.1,0.2-0.3,0.3-0.5c0.1-0.2,0.2-0.4,0.2-0.6
			c0.1-0.2,0.1-0.5,0.1-0.8c0-0.2,0-0.3-0.1-0.5c-0.1-0.2-0.1-0.3-0.3-0.4c-0.1-0.1-0.3-0.2-0.5-0.2c-0.2,0-0.3,0-0.5,0.1
			c-0.2,0.1-0.3,0.2-0.4,0.3c-0.1,0.1-0.2,0.3-0.3,0.5c-0.1,0.2-0.2,0.4-0.2,0.6c0,0.2-0.1,0.4-0.1,0.7c0,0.3,0.1,0.6,0.2,0.8
			C291.2,274.3,291.4,274.4,291.8,274.4z M294.5,274.9l1.3-6.1h0.7l-1.3,6.1H294.5z M298.2,275c-0.3,0-0.6-0.1-0.8-0.2
			c-0.2-0.1-0.4-0.3-0.5-0.6c-0.1-0.2-0.2-0.5-0.2-0.9c0-0.4,0.1-0.7,0.2-1c0.1-0.3,0.2-0.6,0.4-0.9c0.2-0.3,0.4-0.5,0.7-0.6
			c0.3-0.2,0.6-0.2,0.9-0.2c0.4,0,0.7,0.1,0.9,0.3c0.2,0.2,0.3,0.4,0.3,0.7c0,0.2-0.1,0.4-0.2,0.6c-0.1,0.2-0.3,0.3-0.5,0.5
			c-0.2,0.1-0.5,0.2-0.8,0.3c-0.3,0.1-0.7,0.1-1.1,0.1h-0.1c0,0,0,0.1,0,0.2c0,0.1,0,0.1,0,0.2c0,0.3,0.1,0.6,0.2,0.8
			c0.2,0.2,0.4,0.3,0.7,0.3c0.2,0,0.4,0,0.6-0.1c0.2-0.1,0.4-0.1,0.6-0.2v0.6c-0.2,0.1-0.4,0.2-0.6,0.2
			C298.7,275,298.5,275,298.2,275z M297.4,272.5L297.4,272.5c0.4,0,0.7,0,1-0.1c0.3-0.1,0.5-0.2,0.7-0.3c0.2-0.1,0.3-0.3,0.3-0.5
			c0-0.1-0.1-0.3-0.2-0.4c-0.1-0.1-0.2-0.1-0.5-0.1c-0.2,0-0.4,0.1-0.5,0.2c-0.2,0.1-0.3,0.3-0.5,0.5
			C297.6,272,297.5,272.2,297.4,272.5z M301.5,275c-0.3,0-0.5,0-0.7-0.1c-0.2-0.1-0.4-0.1-0.5-0.2v-0.6c0.1,0.1,0.3,0.2,0.5,0.2
			c0.2,0.1,0.4,0.1,0.7,0.1c0.2,0,0.4,0,0.5-0.1c0.1-0.1,0.3-0.1,0.3-0.2c0.1-0.1,0.1-0.2,0.1-0.4c0-0.1,0-0.2-0.1-0.3
			c0-0.1-0.1-0.2-0.2-0.2c-0.1-0.1-0.2-0.2-0.4-0.3c-0.2-0.1-0.4-0.2-0.5-0.3c-0.1-0.1-0.2-0.2-0.3-0.4c-0.1-0.1-0.1-0.3-0.1-0.5
			c0-0.2,0.1-0.5,0.2-0.6c0.1-0.2,0.3-0.3,0.5-0.4c0.2-0.1,0.5-0.2,0.8-0.2c0.3,0,0.5,0,0.7,0.1c0.2,0.1,0.4,0.1,0.6,0.2l-0.2,0.5
			c-0.1-0.1-0.3-0.1-0.5-0.2c-0.2-0.1-0.4-0.1-0.6-0.1c-0.2,0-0.4,0.1-0.6,0.2c-0.1,0.1-0.2,0.3-0.2,0.5c0,0.1,0,0.2,0.1,0.3
			c0,0.1,0.1,0.2,0.2,0.2c0.1,0.1,0.3,0.2,0.5,0.3c0.2,0.1,0.3,0.2,0.5,0.3c0.1,0.1,0.3,0.2,0.3,0.4c0.1,0.1,0.1,0.3,0.1,0.5
			c0,0.3-0.1,0.5-0.2,0.7c-0.1,0.2-0.3,0.3-0.6,0.5C302.1,275,301.8,275,301.5,275z"/>
		<path class="st2" d="M302,183.3h28.9v21.7H302V183.3z"/>
		<g transform="matrix(0.12140629921259842 0.0 0.0 0.12140944881889763 302.27444855643046 183.34908215223098)">
			<g>
				<defs>
					<rect id="SVGID_4_" x="101.9" y="78.6" width="28.9" height="21.7"/>
				</defs>
				<clipPath id="SVGID_5_">
					<use xlink:href="#SVGID_4_"  style="overflow:visible;"/>
				</clipPath>
				<g style="clip-path:url(#SVGID_5_);enable-background:new    ;">
					
						<image style="overflow:visible;" width="238" height="179" xlink:href="B64E3D6E8AADF637.png"  transform="matrix(0.999 0 0 1 -2.5935 0)">
					</image>
				</g>
			</g>
		</g>
	</g>
</g>
</svg>
